<svg width="328" height="197" viewBox="0 0 328 197" fill="none" xmlns="http://www.w3.org/2000/svg">
<path d="M163.732 197C254.159 197 327.464 193.83 327.464 189.921C327.464 186.011 254.159 182.841 163.732 182.841C73.3054 182.841 0 186.011 0 189.921C0 193.83 73.3054 197 163.732 197Z" fill="#E6E6E6"/>
<path d="M67.0776 132.16C64.2983 149.038 63.7634 166.788 64.7119 184.738C65.1294 187.972 58.1202 188.049 57.702 184.815C53.9712 166.512 51.6414 147.875 51.7597 129.16L67.0776 132.16Z" fill="url(#paint0_linear)"/>
<path d="M56.7266 186.558C56.7266 188.406 58.5886 189 59.4165 189.14C61.6753 189.522 62.3675 190.432 64.682 190.432C67.8306 190.432 68.116 189.651 68.116 188.833C68.116 187.891 68.0298 186.787 66.7424 185.888C66.2593 185.55 64.7774 182.446 62.3843 182.446C61.0313 182.446 59.5104 183.485 58.9648 184.319C58.2452 185.418 57.482 184.761 57.3248 182.889C56.912 184.998 56.7266 185.171 56.7266 186.558Z" fill="#8CC63F"/>
<path d="M68.1181 188.833C68.1181 188.71 68.1181 188.585 68.1105 188.458C67.9823 188.755 67.3024 188.899 66.6606 188.899C62.2788 188.899 61.1151 188.017 59.804 187.678C58.493 187.339 56.8653 187.525 56.7241 186.555C56.7241 188.402 58.5861 188.997 59.4141 189.136C61.6729 189.518 62.365 190.428 64.6795 190.428C67.8342 190.432 68.1181 189.651 68.1181 188.833Z" fill="#F2F2F2"/>
<path d="M84.0873 133.53C84.4933 149.644 87.0391 166.186 90.9294 182.665C91.2858 185.169 86.1325 185.946 84.8115 183.886C78.4251 167.545 73.2268 150.663 70.1865 133.308L84.0873 133.53Z" fill="url(#paint1_linear)"/>
<path d="M83.4003 186.493C84.0871 188.336 86.4886 187.595 87.6737 187.67C90.9101 187.876 94.5913 189.147 97.5384 187.746C99.3821 186.87 98.996 186.135 98.8891 185.55C98.574 183.821 96.6296 184.664 94.8332 183.85C94.1601 183.545 91.9868 181.039 91.2847 180.785C89.6822 180.209 89.3632 181.721 88.2895 182.362C86.7442 183.283 84.9051 183.267 83.9787 181.683C83.2248 183.87 82.9073 185.174 83.4003 186.493Z" fill="#77A835"/>
<path d="M98.9607 185.887C96.9003 187.108 94.4438 187.649 92.0858 187.365C90.1361 187.13 88.2482 186.361 86.2816 186.489C85.5544 186.535 84.818 186.705 84.1068 186.565C83.816 186.505 83.5432 186.377 83.3101 186.193C83.3383 186.294 83.3627 186.395 83.4001 186.499C84.0869 188.342 86.4884 187.6 87.6735 187.675C90.9099 187.881 94.5911 189.153 97.5383 187.752C99.0446 187.031 99.063 186.409 98.9607 185.887Z" fill="#F2F2F2"/>
<path d="M69.1147 124.127L70.6547 139.974C75.9522 140.516 81.1688 140.01 86.2985 138.348L84.828 122.795L69.1147 124.127Z" fill="#0071BC"/>
<path d="M74.665 141.197C73.291 141.197 71.9179 141.127 70.5511 140.986C70.4174 140.973 70.2875 140.935 70.1689 140.871C70.0504 140.808 69.9455 140.723 69.8603 140.619C69.7751 140.515 69.7113 140.395 69.6726 140.267C69.6339 140.138 69.621 140.003 69.6347 139.87C69.6484 139.736 69.6884 139.606 69.7524 139.488C69.8164 139.37 69.9032 139.266 70.0077 139.182C70.1122 139.098 70.2323 139.035 70.3612 138.997C70.4901 138.959 70.6252 138.948 70.7586 138.962C75.9752 139.497 81.0972 138.962 85.9834 137.38C86.2393 137.3 86.5166 137.324 86.7549 137.447C86.9932 137.57 87.1733 137.782 87.256 138.037C87.3387 138.292 87.3173 138.57 87.1965 138.809C87.0756 139.049 86.8651 139.231 86.6107 139.316C82.7523 140.566 78.721 141.201 74.665 141.197Z" fill="#29ABE2"/>
<path d="M50.914 122.795L50.0601 137.735C55.089 141.022 61.3022 141.791 68.3495 140.782L68.5647 139.172C68.7331 137.915 69.2132 136.72 69.9611 135.696C70.709 134.672 71.7012 133.851 72.8473 133.308V124.127L50.914 122.795Z" fill="#0071BC"/>
<path d="M54.5685 131.255C52.9492 131.789 51.2391 131.637 50.1188 130.908C50.1142 131.167 50.1119 131.434 50.1089 131.701C50.8143 132.058 51.5889 132.258 52.3791 132.286C53.2073 132.318 54.0344 132.201 54.8211 131.94C56.9242 131.247 58.3161 129.705 58.5443 127.813L57.8224 127.698C57.6293 129.319 56.4122 130.649 54.5685 131.255ZM85.36 129.093C85.347 128.987 85.3302 128.891 85.3165 128.788C83.9162 128.788 83.0119 127.929 82.493 126.117L81.794 126.286C82.4976 128.741 83.9009 129.445 85.1967 129.5C85.2669 129.5 85.3348 129.5 85.4043 129.5C85.3921 129.365 85.3768 129.235 85.36 129.095V129.093ZM72.89 134.951L70.8853 135.325L71.0425 136.007L73.5906 135.532V128.492L72.89 128.462V134.951Z" fill="#005F9E"/>
<path d="M62.8084 142.218C57.607 142.218 53.2222 141.016 49.5051 138.586C49.2866 138.435 49.1357 138.205 49.0845 137.945C49.0333 137.685 49.086 137.414 49.2311 137.192C49.3763 136.97 49.6026 136.814 49.8616 136.756C50.1207 136.698 50.392 136.744 50.6177 136.884C55.1857 139.87 60.9395 140.815 68.2066 139.775C68.4727 139.739 68.7423 139.809 68.9567 139.971C69.171 140.133 69.3127 140.373 69.3507 140.639C69.3888 140.905 69.3202 141.175 69.1599 141.39C68.9996 141.606 68.7607 141.749 68.4951 141.789C66.6121 142.066 64.7117 142.21 62.8084 142.218Z" fill="#29ABE2"/>
<path d="M73.8289 71.0288C87.4885 74.4445 97.8249 73.0129 108.731 68.5197C111.048 67.5643 116.107 63.5671 118.511 65.758C122.688 69.5736 112.003 74.1225 109.841 75.3099C99.8441 80.8043 88.521 84.2024 77.0271 82.9799C73.2352 82.5762 67.3554 82.1748 66.0749 77.6198C64.7883 73.0511 68.8862 69.7926 73.8289 71.0288Z" fill="url(#paint2_linear)"/>
<path d="M84.5321 72.732C79.4475 72.4459 63.8121 65.3993 65.6695 76.556C67.0538 84.8739 82.9265 84.545 88.749 83.7117C87.2396 80.1296 86.9649 76.4347 87.9699 72.6214C87.396 72.6099 85.1052 72.7435 84.5321 72.732Z" fill="#77A835"/>
<path d="M115.741 69.3812C112.698 67.1529 109.672 58.5183 111.288 56.9578C112.98 55.3232 115.699 61.1243 115.776 61.5212C115.992 60.4788 120.864 52.4043 121.836 54.8119C122.256 55.8513 119.225 60.3223 118.915 60.9076C119.344 60.1872 124.777 52.724 126.341 55.1515C127.047 56.2473 122.984 60.4849 121.658 62.4201C123.37 60.6001 127.208 57.2958 127.942 58.075C129.51 59.7424 123.446 64.0638 122.872 64.6659C124.926 65.5573 128.758 61.963 129.13 63.5976C129.465 65.0673 119.61 72.2139 115.741 69.3812Z" fill="url(#paint3_linear)"/>
<path d="M55.7011 75.9133C51.2934 83.5704 49.1552 110.738 50.4242 125.789C60.9261 131.746 80.9143 128.214 85.129 126.094C84.2949 117.595 83.5341 105.098 83.8195 97.6597C84.0583 91.4487 83.5905 82.1983 80.8952 76.0942C77.085 67.4665 60.7689 67.1116 55.7011 75.9133Z" fill="#8CC63F"/>
<path d="M84.0491 116.679C83.6774 109.765 84.13 110.36 78.4234 107.251C74.6369 105.191 71.3387 102.172 69.086 98.4801C66.3808 94.0456 66.2419 82.2212 58.4116 83.868C49.9769 85.6423 54.8631 97.1179 57.3478 100.943C62.9567 109.574 73.7784 115.485 84.0491 116.679Z" fill="#77A835"/>
<path d="M62.5436 72.9534C63.3586 76.598 74.6686 79.1827 75.6897 73.9455C76.6336 69.1005 61.5561 68.535 62.5436 72.9534Z" fill="url(#paint4_linear)"/>
<path d="M49.5703 63.4947C56.3086 69.0448 101.102 72.3002 80.5084 49.6022C75.1361 43.6797 67.3134 37.3497 58.9955 37.1635C56.3689 37.1032 47.9358 38.1693 46.8926 41.5445C49.3887 46.8253 49.7397 58.7763 49.5703 63.4947Z" fill="#A46C35"/>
<path d="M68.9537 61.3951C67.9358 64.7017 66.8544 67.3207 64.6712 71.0203C63.7455 73.8094 73.0013 77.0252 71.7292 71.8024C71.1637 68.4066 72.5396 65.5182 74.5046 62.7832C75.1983 58.6205 70.3418 57.2331 68.9537 61.3951Z" fill="url(#paint5_linear)"/>
<path d="M100.444 24.9026C102.591 26.8219 103.592 28.8868 103.364 31.7569C103.136 34.627 101.761 38.2777 99.7445 40.335C98.8516 41.2508 97.6658 42.094 96.4066 41.8811C95.368 41.7048 94.5859 40.8517 93.9761 39.9924C91.4174 36.3852 90.4918 31.7088 91.3175 27.3797C91.7166 25.2903 92.0042 23.2192 94.3554 22.946C96.5333 22.6934 98.8135 23.4436 100.444 24.9026Z" fill="#8E572A"/>
<path d="M99.3478 46.1316C101.429 28.0924 93.3696 16.9922 78.5332 16.9922C64.6576 16.9922 53.5566 23.236 53.5566 39.8855C53.5566 72.4955 111.836 73.1899 99.3478 46.1316Z" fill="url(#paint6_linear)"/>
<g style="mix-blend-mode:multiply" opacity="0.3">
<path d="M74.2858 54.2716C74.2858 55.4316 72.3498 55.894 69.9613 55.3041C67.5727 54.7142 65.6367 53.2964 65.6367 52.1364C65.6367 50.9765 67.5727 50.5141 69.9613 51.104C72.3498 51.6938 74.2858 53.1125 74.2858 54.2716Z" fill="#FFB6AC"/>
</g>
<g style="mix-blend-mode:multiply" opacity="0.3">
<path d="M96.4673 54.5179C98.3572 53.7605 99.6248 52.4865 99.2985 51.6724C98.9722 50.8583 97.1757 50.8124 95.2858 51.5698C93.3958 52.3273 92.1283 53.6012 92.4545 54.4153C92.7808 55.2294 94.5774 55.2754 96.4673 54.5179Z" fill="#FFB6AC"/>
</g>
<path d="M42.4556 28.0924C42.4556 41.9688 51.1451 47.5196 56.3312 47.5196C62.4895 47.5196 63.2694 42.9921 63.2694 37.806C63.2694 29.1676 68.8203 30.1749 67.4322 20.4605C73.6767 37.1123 103.262 16.5083 103.364 31.7545C104.174 18.9831 93.4489 9.35723 82.3678 5.42721C76.9566 3.51028 46.8908 -1.87194 53.336 12.879C43.8429 9.35952 42.4556 19.7645 42.4556 28.0924Z" fill="#A46C35"/>
<path d="M43.8428 44.0505C47.5897 35.3067 57.2736 41.8939 58.5892 48.9069C60.2016 57.485 41.7611 48.9069 43.8428 44.0505Z" fill="url(#paint7_linear)"/>
<path d="M88.7498 57.4668C88.1515 59.1494 87.5196 62.2019 84.0498 62.2019C80.7531 62.2019 78.4898 59.46 78.679 56.9364C79.7451 56.1649 87.1976 57.7026 88.7498 57.4668Z" fill="#870000"/>
<path d="M74.465 51.0857C77.5825 51.0857 80.1098 47.9267 80.1098 44.03C80.1098 40.1332 77.5825 36.9742 74.465 36.9742C71.3475 36.9742 68.8203 40.1332 68.8203 44.03C68.8203 47.9267 71.3475 51.0857 74.465 51.0857Z" fill="white"/>
<path d="M76.0323 50.3805C77.9372 50.3805 79.4815 48.4498 79.4815 46.0682C79.4815 43.6866 77.9372 41.7559 76.0323 41.7559C74.1273 41.7559 72.583 43.6866 72.583 46.0682C72.583 48.4498 74.1273 50.3805 76.0323 50.3805Z" fill="#2E3192"/>
<path d="M76.3772 42.7166C76.3772 44.0268 75.5278 45.0883 74.4801 45.0883C73.4323 45.0883 72.583 44.0268 72.583 42.7166C72.583 41.4063 73.4323 40.3456 74.4793 40.3456C75.5263 40.3456 76.3772 41.4071 76.3772 42.7166Z" fill="white"/>
<path d="M96.0378 45.3701C96.3692 42.089 94.7924 39.2426 92.516 39.0127C90.2395 38.7827 88.1254 41.2563 87.794 44.5374C87.4625 47.8186 89.0393 50.6649 91.3157 50.8949C93.5922 51.1248 95.7063 48.6513 96.0378 45.3701Z" fill="white"/>
<path d="M95.8697 46.2925C95.7636 48.3125 94.5358 49.9501 93.1225 49.9501C91.7092 49.9501 90.6576 48.3125 90.7637 46.2925C90.8698 44.2726 92.0984 42.6342 93.5109 42.6342C94.9234 42.6342 95.9758 44.2718 95.8697 46.2925Z" fill="#2E3192"/>
<path d="M93.723 43.4491C93.665 44.5602 92.9897 45.4606 92.2144 45.4606C91.4391 45.4606 90.8591 44.5602 90.9171 43.4491C90.9751 42.338 91.6497 41.4368 92.4258 41.4368C93.2018 41.4368 93.7818 42.338 93.723 43.4491Z" fill="white"/>
<path d="M44.3315 43.0683C51.5101 40.8393 57.4319 48.3719 57.3777 52.1966C58.3941 51.7029 58.9215 50.6704 58.5895 48.9054C57.3243 42.1785 48.3669 35.8523 44.3315 43.0683Z" fill="url(#paint8_linear)"/>
<path d="M70.1184 37.0741C72.5207 34.9229 75.7548 34.5398 78.6065 36.0058C79.6848 36.5598 82.0985 33.2967 81.446 32.961C77.3077 30.8334 73.1533 32.4077 69.8803 35.3388C69.5247 35.657 68.1534 36.9711 68.4938 37.5465C68.8616 38.1692 69.7659 37.3885 70.1184 37.0734V37.0741Z" fill="#8E572A"/>
<path d="M90.3394 35.8555C93.3057 35.8929 95.6293 37.2764 96.7397 40.0526C96.9968 40.6959 99.0084 38.9186 98.7466 38.2654C97.5631 35.3046 95.1753 33.7676 91.9824 33.7272C91.2018 33.718 89.835 35.8486 90.3394 35.8548V35.8555Z" fill="#8E572A"/>
<g style="mix-blend-mode:multiply">
<path d="M84.7747 45.9889C84.2672 47.3045 84.2604 48.8262 85.0899 50.0235C85.1944 50.1761 86.4772 51.8344 86.5276 51.8412C87.3034 51.4017 87.3563 51.2763 86.6863 51.465L86.2803 51.4879C85.7118 51.5376 85.1394 51.5184 84.5755 51.4307C83.9887 51.3353 82.7792 53.0546 83.2614 53.1324C85.0074 53.4163 87.4677 53.1591 88.0881 51.1338C88.3636 50.2318 87.6783 49.5878 87.1121 48.9818C86.1658 47.9692 85.711 46.5567 86.2338 45.2029C86.6268 44.1834 84.9563 45.5181 84.7747 45.9889Z" fill="#FFB6AC"/>
</g>
<path d="M47.4166 23.3338C47.5325 22.2211 47.7227 21.1175 47.9859 20.0303C48.2453 18.9459 48.6101 17.8935 49.1649 16.9473C49.7197 16.001 50.5286 15.2104 51.5641 14.8297C52.5699 14.4115 53.7909 14.4046 54.7631 15.0197C53.8786 14.268 52.5646 14.1665 51.4527 14.5107C50.3126 14.8495 49.3656 15.6882 48.717 16.6611C48.0492 17.6387 47.6585 18.7581 47.3517 19.8662C47.0636 20.982 46.8547 22.1168 46.7268 23.262C46.5062 25.5514 46.5955 27.8827 47.0847 30.13C47.3201 31.2523 47.6394 32.3553 48.0401 33.4297C48.4534 34.4939 48.9502 35.5237 49.5258 36.5096C48.63 34.4202 47.9577 32.2522 47.6127 30.0316C47.2555 27.8171 47.1895 25.5654 47.4166 23.3338ZM49.6296 30.0117C49.5211 27.8965 49.6131 25.7758 49.9044 23.6779C50.2157 21.5984 50.5911 19.4572 51.7694 17.7547C52.3452 16.8956 53.1849 16.2474 54.1617 15.9079C55.1256 15.5393 56.2557 15.5485 57.202 16.0705C56.3374 15.4089 55.1225 15.2982 54.0625 15.5844C52.9787 15.8891 52.024 16.5394 51.3436 17.4364C50.6408 18.3094 50.2081 19.3534 49.8853 20.395C49.5625 21.4367 49.377 22.5073 49.2206 23.5802C48.9204 25.7256 48.8799 27.8994 49.1 30.0545C49.2168 31.1269 49.3916 32.1922 49.6235 33.2458C49.8674 34.2931 50.1784 35.3237 50.5545 36.3311C50.3187 35.2848 50.0967 34.2401 49.9578 33.1832C49.7924 32.1326 49.6823 31.0739 49.6281 30.0117H49.6296ZM59.37 17.5074C58.4542 16.8588 57.1569 16.9809 56.1649 17.5013C55.1492 18.0538 54.4487 19.0168 53.9382 20.002C52.9721 22.0113 52.3356 24.119 51.8678 26.2755C51.4115 28.433 51.1882 30.6332 51.2016 32.8383C51.2062 33.9379 51.2825 35.0353 51.3909 36.1265C51.5234 37.2141 51.7145 38.2936 51.9632 39.3606C51.7389 37.1865 51.6366 35.0109 51.7343 32.8482C51.8283 30.6868 52.0996 28.5368 52.5455 26.4198C52.7569 25.3606 53.0301 24.3144 53.3437 23.2803C53.6418 22.2455 53.9998 21.2288 54.4159 20.2355C54.844 19.2717 55.4468 18.3537 56.3336 17.7936C57.202 17.2251 58.3779 17.006 59.37 17.5074ZM65.6275 23.1628C65.5855 24.2655 65.2925 25.3499 64.8552 26.3595C63.9639 28.3802 62.5819 30.2285 61.8661 32.4682C61.1381 34.7484 61.5403 37.0812 61.2648 39.2545C61.132 40.3404 60.8222 41.4309 60.1499 42.2909C59.5035 43.1601 58.4947 43.8217 57.3508 43.85C58.4954 43.9843 59.6401 43.3639 60.4116 42.5077C61.1969 41.6194 61.5876 40.4664 61.7921 39.3347C62.1973 37.0453 61.8333 34.7468 62.5277 32.6742C63.171 30.5787 64.5271 28.7198 65.3512 26.5579C65.748 25.4735 65.9968 24.3235 65.9686 23.1636C65.9251 22.0151 65.5657 20.8315 64.7682 20.0096C65.4336 20.93 65.6901 22.0655 65.6275 23.1628ZM96.8616 23.2842C95.3216 22.8423 93.7076 22.6981 92.1097 22.75C88.9046 22.8751 85.8285 23.784 82.7463 24.3021C79.6939 24.8722 76.4743 25.0553 73.5791 23.9397C72.1349 23.3739 70.8409 22.4824 69.7979 21.3344C68.7255 20.1857 67.9017 18.828 67.378 17.3464C67.7649 18.8802 68.5296 20.3225 69.5438 21.558C70.5817 22.8 71.8942 23.7836 73.3776 24.4311C74.8642 25.0866 76.4942 25.3377 78.0944 25.3842C79.6946 25.4308 81.2995 25.253 82.8677 24.9844C85.9926 24.4006 89.0252 23.5116 92.1387 23.2826C93.6878 23.1666 95.2598 23.2475 96.7746 23.6108C98.2932 23.9503 99.7507 24.6211 100.958 25.6422C99.8507 24.5044 98.3855 23.7428 96.8585 23.2842H96.8616ZM72.7244 21.7091C74.0797 22.3577 75.583 22.6905 77.084 22.7668C78.5851 22.8431 80.0815 22.6515 81.5383 22.3791C84.4427 21.7778 87.2288 20.8254 90.1157 20.5515C91.5526 20.4027 93.0155 20.466 94.412 20.833C95.8367 21.1638 97.1462 21.8717 98.2031 22.8828C97.2599 21.7465 95.9222 20.9605 94.5059 20.5057C93.0895 20.0509 91.5618 19.9303 90.0752 20.0188C87.0831 20.1936 84.2558 21.1635 81.4048 21.6976C79.9823 21.9853 78.5431 22.186 77.1092 22.1357C75.6752 22.0829 74.2623 21.7728 72.9381 21.2199C71.6007 20.6688 70.3725 19.8834 69.311 18.9008C68.2236 17.9378 67.3407 16.755 66.65 15.4577C67.214 16.8312 68.0377 18.0829 69.076 19.1443C70.1284 20.2112 71.3642 21.08 72.7244 21.7091ZM70.01 17.4593C71.1273 18.2067 72.3907 18.708 73.7164 18.9298C76.3873 19.3778 79.0643 18.82 81.6047 18.2179C84.1421 17.5578 86.655 16.8313 89.2358 16.7397C90.5223 16.682 91.8093 16.8451 93.0407 17.222C94.2925 17.5835 95.4356 18.2485 96.3686 19.158C95.5498 18.1248 94.3845 17.3853 93.1521 16.9007C91.894 16.4446 90.5664 16.2097 89.2282 16.2063C86.5443 16.1903 83.9688 16.945 81.4384 17.5456C78.9254 18.2011 76.3476 18.7208 73.7958 18.4048C72.5211 18.2526 71.2928 17.8334 70.1909 17.1747C69.058 16.529 68.1358 15.5697 67.5352 14.4122C67.9885 15.6531 68.9165 16.6939 70.0062 17.4593H70.01Z" fill="#CC8642"/>
<path d="M87.1633 58.4214C87.432 58.181 87.664 57.8201 87.6098 57.4607C85.5669 57.3126 81.8292 56.6815 79.8535 56.7197C79.9762 57.1497 80.2136 57.5383 80.5403 57.8437C81.4637 58.7511 82.6992 59.3356 83.9178 59.4417C85.1365 59.5478 86.3232 59.1746 87.1633 58.4214Z" fill="white"/>
<path d="M64.6067 84.2366C66.387 95.13 74.0548 103.085 85.058 103.579C90.7608 103.833 95.0845 102.747 95.2211 105.244C95.4226 108.941 88.5935 110.321 81.7713 110.291C69.0823 110.235 59.9525 102.344 55.4013 92.4163C53.7987 88.9213 52.4366 82.7653 55.1723 79.2031C58.3988 75.0136 64.4831 78.4613 64.6067 84.2366Z" fill="url(#paint9_linear)"/>
<path d="M64.8995 84.0101C64.7637 77.8289 58.2536 74.1332 54.8028 78.6218C51.8709 82.4373 53.3292 89.026 55.0447 92.7675C55.9181 94.6751 56.9521 96.505 58.1353 98.2375C60.0522 95.3064 63.9219 92.6912 67.7718 92.6668C66.3906 90.0753 65.4146 87.1587 64.8995 84.0101Z" fill="#8CC63F"/>
<path d="M92.5182 106.236C91.3865 102.638 94.0643 93.8886 96.2903 93.5887C98.6216 93.2743 97.3754 99.5585 97.206 99.9225C97.9974 99.2098 106.706 95.5911 106.063 98.1071C105.786 99.193 100.694 100.999 100.098 101.288C100.87 100.962 109.669 98.1666 109.491 101.05C109.415 102.347 103.625 103.356 101.412 104.131C103.869 103.679 108.919 103.292 109.049 104.352C109.325 106.626 101.875 106.514 101.06 106.659C102.187 108.595 107.403 107.969 106.736 109.503C106.131 110.891 93.9574 110.81 92.5182 106.236Z" fill="url(#paint10_linear)"/>
<g style="mix-blend-mode:multiply" opacity="0.3">
<path d="M60.4483 163.217C62.1797 163.217 63.5832 161.814 63.5832 160.082C63.5832 158.351 62.1797 156.947 60.4483 156.947C58.717 156.947 57.3135 158.351 57.3135 160.082C57.3135 161.814 58.717 163.217 60.4483 163.217Z" fill="#FFB6AC"/>
</g>
<g style="mix-blend-mode:multiply" opacity="0.3">
<path d="M85.5872 156.685C85.9192 158.384 85.3385 159.928 84.2899 160.133C83.2414 160.339 82.1212 159.127 81.7892 157.428C81.4573 155.729 82.038 154.185 83.0865 153.98C84.135 153.774 85.2553 154.988 85.5872 156.685Z" fill="#FFB6AC"/>
</g>
<path d="M49.4078 124.755H34.2517L9.7749 190.455H24.931L49.4078 124.755Z" fill="#C29B71"/>
<path d="M49.4077 124.755H34.2515L32.8291 128.573H47.9852L49.4077 124.755Z" fill="#A37649"/>
<path d="M275.48 124.755H290.636L315.113 190.455H299.957L275.48 124.755Z" fill="#C29B71"/>
<path d="M275.48 124.755H290.636L292.059 128.573H276.903L275.48 124.755Z" fill="#A37649"/>
<path d="M311.094 117.373H13.7949V122.846H311.094V117.373Z" fill="#C29B71"/>
<path d="M308.926 124.756H15.4203L13.7949 122.846H311.093L308.926 124.756Z" fill="#A37649"/>
<path d="M308.926 115.464H15.4203L13.7949 117.373H311.093L308.926 115.464Z" fill="#D6BEA2"/>
<path d="M212.869 166.325H173.222V188.285H212.869V166.325Z" fill="#7D8589"/>
<path d="M212.869 165.999H173.222V166.652H212.869V165.999Z" fill="#A8B3B8"/>
<path d="M212.869 187.958H173.222V188.611H212.869V187.958Z" fill="#4D4D4F"/>
<path d="M178.476 165.999H182.358V161.252H178.476V165.999ZM203.735 161.252V165.999H207.618V161.252H203.735Z" fill="#4D4D4F"/>
<path d="M182.491 170.216H177.889V171.366H182.491V170.216Z" fill="white"/>
<path d="M207.893 170.215H206.167V168.489H205.016V170.215H203.291V171.366H205.016V173.092H206.167V171.366H207.893V170.215Z" fill="white"/>
<path d="M159.912 181.929C158.884 181.936 157.865 181.74 156.914 181.352C155.962 180.964 155.096 180.392 154.366 179.668C152.738 178.049 151.878 175.776 151.878 173.092V115.464H154.421V173.092C154.421 177.417 157.267 179.387 159.915 179.387C162.563 179.387 165.409 177.417 165.409 173.092C165.409 170.029 167.699 168.427 169.954 168.427H173.226V170.969H169.952C169.029 170.969 167.951 171.525 167.951 173.092C167.947 178.894 163.905 181.929 159.912 181.929Z" fill="#CAF0FF"/>
<path d="M303.292 0H189.102C185.761 0 183.053 2.70797 183.053 6.04841V83.3919C183.053 86.7324 185.761 89.4404 189.102 89.4404H303.292C306.632 89.4404 309.34 86.7324 309.34 83.3919V6.04841C309.34 2.70797 306.632 0 303.292 0Z" fill="#525152"/>
<path d="M183.053 73.9705V81.8816C183.053 83.8869 183.85 85.81 185.268 87.228C186.686 88.6459 188.609 89.4425 190.614 89.4425H301.779C303.785 89.4425 305.708 88.6459 307.126 87.228C308.544 85.81 309.34 83.8869 309.34 81.8816V73.9705H183.053Z" fill="#B5B5B5"/>
<path d="M298.207 0H184.016C180.676 0 177.968 2.70797 177.968 6.04841V83.3919C177.968 86.7324 180.676 89.4404 184.016 89.4404H298.207C301.547 89.4404 304.255 86.7324 304.255 83.3919V6.04841C304.255 2.70797 301.547 0 298.207 0Z" fill="#343334"/>
<path d="M177.968 73.9705V81.8816C177.968 83.8869 178.764 85.81 180.182 87.228C181.6 88.6459 183.523 89.4425 185.529 89.4425H296.697C298.701 89.4409 300.623 88.6436 302.039 87.2258C303.456 85.8081 304.252 83.8858 304.252 81.8816V73.9705H177.968Z" fill="white"/>
<path d="M299.17 67.1192V7.06549C299.17 5.97182 298.283 5.08521 297.19 5.08521L185.034 5.08521C183.94 5.08521 183.054 5.97182 183.054 7.06549V67.1192C183.054 68.2129 183.94 69.0995 185.034 69.0995H297.19C298.283 69.0995 299.17 68.2129 299.17 67.1192Z" fill="#274258"/>
<path d="M242.298 12.7966H228.08V13.8139H242.298V12.7966Z" fill="#69DBBE"/>
<path d="M226.602 12.7966H222.5V13.8139H226.602V12.7966Z" fill="#69DBBE"/>
<path d="M242.298 15.6774H228.08V16.6946H242.298V15.6774Z" fill="#69DBBE"/>
<path d="M226.602 15.6774H222.5V16.6946H226.602V15.6774Z" fill="#69DBBE"/>
<path d="M242.298 18.5581H228.08V19.5753H242.298V18.5581Z" fill="#69DBBE"/>
<path d="M226.602 18.5581H222.5V19.5753H226.602V18.5581Z" fill="#69DBBE"/>
<path d="M242.298 21.4387H228.08V22.4559H242.298V21.4387Z" fill="#69DBBE"/>
<path d="M226.602 21.4387H222.5V22.4559H226.602V21.4387Z" fill="#69DBBE"/>
<path d="M242.298 24.3187H228.08V25.336H242.298V24.3187Z" fill="#69DBBE"/>
<path d="M226.602 24.3187H222.5V25.336H226.602V24.3187Z" fill="#69DBBE"/>
<path d="M242.298 30.2969H228.08V31.3141H242.298V30.2969Z" fill="#69DBBE"/>
<path d="M226.602 30.2969H222.5V31.3141H226.602V30.2969Z" fill="#69DBBE"/>
<path d="M242.298 33.1779H228.08V34.1951H242.298V33.1779Z" fill="#69DBBE"/>
<path d="M226.602 33.1779H222.5V34.1951H226.602V33.1779Z" fill="#69DBBE"/>
<path d="M242.298 36.0585H228.08V37.0757H242.298V36.0585Z" fill="#69DBBE"/>
<path d="M226.602 36.0585H222.5V37.0757H226.602V36.0585Z" fill="#69DBBE"/>
<path d="M242.298 38.9392H228.08V39.9564H242.298V38.9392Z" fill="#69DBBE"/>
<path d="M226.602 38.9392H222.5V39.9564H226.602V38.9392Z" fill="#69DBBE"/>
<path d="M242.298 41.8192H228.08V42.8364H242.298V41.8192Z" fill="#69DBBE"/>
<path d="M226.602 41.8192H222.5V42.8364H226.602V41.8192Z" fill="#69DBBE"/>
<path d="M242.298 48.6255H228.08V49.6427H242.298V48.6255Z" fill="#69DBBE"/>
<path d="M226.602 48.6255H222.5V49.6427H226.602V48.6255Z" fill="#69DBBE"/>
<path d="M242.298 51.5062H228.08V52.5235H242.298V51.5062Z" fill="#69DBBE"/>
<path d="M226.602 51.5062H222.5V52.5235H226.602V51.5062Z" fill="#69DBBE"/>
<path d="M277.622 12.7966H270.938V13.8139H277.622V12.7966Z" fill="#69DBBE"/>
<path d="M269.46 12.7966H266.433V13.8139H269.46V12.7966Z" fill="#69DBBE"/>
<path d="M277.622 15.6774H270.938V16.6946H277.622V15.6774Z" fill="#69DBBE"/>
<path d="M269.46 15.6774H266.433V16.6946H269.46V15.6774Z" fill="#69DBBE"/>
<path d="M277.622 18.5581H270.938V19.5753H277.622V18.5581Z" fill="#69DBBE"/>
<path d="M269.46 18.5581H266.433V19.5753H269.46V18.5581Z" fill="#69DBBE"/>
<path d="M277.622 21.4387H270.938V22.4559H277.622V21.4387Z" fill="#69DBBE"/>
<path d="M269.46 21.4387H266.433V22.4559H269.46V21.4387Z" fill="#69DBBE"/>
<path d="M277.622 24.3187H270.938V25.336H277.622V24.3187Z" fill="#69DBBE"/>
<path d="M269.46 24.3187H266.433V25.336H269.46V24.3187Z" fill="#69DBBE"/>
<path d="M277.622 30.2969H270.938V31.3141H277.622V30.2969Z" fill="#69DBBE"/>
<path d="M269.46 30.2969H266.433V31.3141H269.46V30.2969Z" fill="#69DBBE"/>
<path d="M277.622 33.1779H270.938V34.1951H277.622V33.1779Z" fill="#69DBBE"/>
<path d="M269.46 33.1779H266.433V34.1951H269.46V33.1779Z" fill="#69DBBE"/>
<path d="M277.622 36.0585H270.938V37.0757H277.622V36.0585Z" fill="#69DBBE"/>
<path d="M269.46 36.0585H266.433V37.0757H269.46V36.0585Z" fill="#69DBBE"/>
<path d="M277.622 38.9392H270.938V39.9564H277.622V38.9392Z" fill="#69DBBE"/>
<path d="M269.46 38.9392H266.433V39.9564H269.46V38.9392Z" fill="#69DBBE"/>
<path d="M277.622 41.8192H270.938V42.8364H277.622V41.8192Z" fill="#69DBBE"/>
<path d="M269.46 41.8192H266.433V42.8364H269.46V41.8192Z" fill="#69DBBE"/>
<path d="M255.788 13.3048H244.973V21.947H255.788V13.3048Z" fill="#97B4E4"/>
<path d="M263.725 24.8278H252.364V27.7085H263.725V24.8278Z" fill="#71B951"/>
<path d="M249.587 24.8278H244.973V27.7085H249.587V24.8278Z" fill="#F9CA4D"/>
<path d="M277.441 46.014H266.433V52.0144H277.441V46.014Z" fill="#1B64B7"/>
<path d="M263.726 30.3801H244.973V52.0143H263.726V30.3801Z" fill="#4E7CFD"/>
<path d="M294.185 13.3048H280.198V19.0663H294.185V13.3048Z" fill="#1B64B7"/>
<path d="M294.185 21.947H280.198V24.8278H294.185V21.947Z" fill="#F9CA4D"/>
<path d="M294.185 30.3336H280.198V36.0951H294.185V30.3336Z" fill="#71B951"/>
<path d="M294.185 38.9751H280.198V41.8558H294.185V38.9751Z" fill="#F9CA4D"/>
<path d="M232.901 89.429V89.4404H230.298V106.246C230.297 107.341 229.862 108.392 229.087 109.167C228.312 109.942 227.261 110.378 226.165 110.379H214.068V115.464H237.959L251.161 115.049L257.266 108.944V89.429H232.901Z" fill="#7B7980"/>
<path d="M237.959 110.379H214.068V115.464H237.959V110.379Z" fill="#6B6970"/>
<path d="M250.059 115.464H237.959V110.379H250.059C251.155 110.378 252.205 109.942 252.98 109.167C253.755 108.392 254.191 107.341 254.192 106.246V89.4403H259.277V106.246C259.274 108.69 258.302 111.033 256.574 112.761C254.846 114.489 252.503 115.461 250.059 115.464Z" fill="#8F8D95"/>
<path d="M243.289 83.8826C244.491 82.6804 244.491 80.7312 243.289 79.5291C242.086 78.3269 240.137 78.3269 238.935 79.5291C237.733 80.7312 237.733 82.6804 238.935 83.8826C240.137 85.0847 242.086 85.0847 243.289 83.8826Z" fill="#29ABE2"/>
<path d="M296.697 5.08521H185.529C184.872 5.08581 184.243 5.34682 183.779 5.81094C183.315 6.27506 183.054 6.90437 183.053 7.56074V8.29561H299.17V7.56074C299.169 6.9049 298.908 6.27605 298.445 5.81202C297.981 5.34798 297.353 5.08662 296.697 5.08521Z" fill="#D2D1D4"/>
<path d="M296.134 69.0996H186.089L191.173 62.5887H291.049L296.134 69.0996Z" fill="#D2D1D4"/>
<path d="M196.494 13.3048H189.635V20.1636H196.494V13.3048Z" fill="#6187D3"/>
<path d="M202.364 20.1636C201.455 20.1636 200.583 19.8023 199.94 19.1592C199.296 18.5161 198.935 17.6438 198.935 16.7342C198.935 15.8247 199.296 14.9524 199.94 14.3093C200.583 13.6661 201.455 13.3048 202.364 13.3048C203.274 13.3048 204.146 13.6661 204.789 14.3093C205.433 14.9524 205.794 15.8247 205.794 16.7342C205.794 17.6438 205.433 18.5161 204.789 19.1592C204.146 19.8023 203.274 20.1636 202.364 20.1636Z" fill="#71B951"/>
<path d="M214.025 13.3048H209.304C208.714 13.3048 208.235 13.7835 208.235 14.3739V19.0945C208.235 19.685 208.714 20.1636 209.304 20.1636H214.025C214.616 20.1636 215.094 19.685 215.094 19.0945V14.3739C215.094 13.7835 214.616 13.3048 214.025 13.3048Z" fill="#ED4C52"/>
<path d="M193.067 29.5797C192.616 29.5803 192.17 29.492 191.753 29.3199C191.336 29.1479 190.958 28.8953 190.639 28.5768C190.32 28.2583 190.067 27.8801 189.894 27.4637C189.722 27.0473 189.633 26.601 189.633 26.1502C189.633 25.6995 189.722 25.2532 189.894 24.8368C190.067 24.4204 190.32 24.0422 190.639 23.7237C190.958 23.4052 191.336 23.1526 191.753 22.9806C192.17 22.8085 192.616 22.7202 193.067 22.7208C193.976 22.7208 194.849 23.0821 195.492 23.7253C196.135 24.3684 196.496 25.2407 196.496 26.1502C196.496 27.0598 196.135 27.9321 195.492 28.5752C194.849 29.2184 193.976 29.5797 193.067 29.5797Z" fill="#C5D3FA"/>
<path d="M205.794 22.7208H198.935V29.5797H205.794V22.7208Z" fill="#409AB2"/>
<path d="M214.025 22.7208H209.304C208.714 22.7208 208.235 23.1995 208.235 23.7899V28.5105C208.235 29.101 208.714 29.5797 209.304 29.5797H214.025C214.616 29.5797 215.094 29.101 215.094 28.5105V23.7899C215.094 23.1995 214.616 22.7208 214.025 22.7208Z" fill="#F9CA4D"/>
<path d="M195.425 32.1368H190.704C190.114 32.1368 189.635 32.6155 189.635 33.206V37.9266C189.635 38.517 190.114 38.9957 190.704 38.9957H195.425C196.015 38.9957 196.494 38.517 196.494 37.9266V33.206C196.494 32.6155 196.015 32.1368 195.425 32.1368Z" fill="#97B4E4"/>
<path d="M205.794 32.1368H198.935V38.9957H205.794V32.1368Z" fill="#4E7CFD"/>
<path d="M211.665 38.9949C210.755 38.9949 209.883 38.6336 209.24 37.9905C208.597 37.3474 208.235 36.4751 208.235 35.5655C208.235 34.656 208.597 33.7837 209.24 33.1406C209.883 32.4974 210.755 32.1361 211.665 32.1361C212.574 32.1361 213.447 32.4974 214.09 33.1406C214.733 33.7837 215.094 34.656 215.094 35.5655C215.094 36.4751 214.733 37.3474 214.09 37.9905C213.447 38.6336 212.574 38.9949 211.665 38.9949Z" fill="#1B64B7"/>
<path d="M193.067 48.4117C192.616 48.4123 192.17 48.324 191.753 48.152C191.336 47.9799 190.958 47.7274 190.639 47.4089C190.32 47.0903 190.067 46.7121 189.894 46.2957C189.722 45.8793 189.633 45.433 189.633 44.9823C189.633 44.5315 189.722 44.0852 189.894 43.6688C190.067 43.2525 190.32 42.8742 190.639 42.5557C190.958 42.2372 191.336 41.9847 191.753 41.8126C192.17 41.6405 192.616 41.5523 193.067 41.5529C193.517 41.5529 193.963 41.6416 194.379 41.8139C194.795 41.9863 195.173 42.2389 195.492 42.5573C195.81 42.8758 196.063 43.2538 196.235 43.6699C196.408 44.086 196.496 44.5319 196.496 44.9823C196.496 45.8918 196.135 46.7641 195.492 47.4072C194.849 48.0504 193.976 48.4117 193.067 48.4117Z" fill="#7E599A"/>
<path d="M205.794 41.5529H198.935V48.4117H205.794V41.5529Z" fill="#F17B2D"/>
<path opacity="0.2" d="M296.697 5.08521H185.529C184.872 5.08581 184.243 5.34682 183.779 5.81094C183.315 6.27506 183.054 6.90437 183.053 7.56074V21.8965C200.664 24.6231 220.343 26.1501 241.111 26.1501C261.88 26.1501 281.556 24.6239 299.17 21.8965V7.56074C299.169 6.9049 298.908 6.27605 298.445 5.81202C297.981 5.34798 297.353 5.08662 296.697 5.08521Z" fill="white"/>
<path d="M201.562 60.4429H197.597C196.8 60.4429 196.154 61.0886 196.154 61.8852V65.8503C196.154 66.6468 196.8 67.2926 197.597 67.2926H201.562C202.358 67.2926 203.004 66.6468 203.004 65.8503V61.8852C203.004 61.0886 202.358 60.4429 201.562 60.4429Z" fill="#4E7CFD"/>
<path d="M210.791 60.4429H206.826C206.029 60.4429 205.383 61.0886 205.383 61.8852V65.8503C205.383 66.6468 206.029 67.2926 206.826 67.2926H210.791C211.587 67.2926 212.233 66.6468 212.233 65.8503V61.8852C212.233 61.0886 211.587 60.4429 210.791 60.4429Z" fill="#4E7CFD"/>
<path d="M220.021 60.4429H216.056C215.259 60.4429 214.613 61.0886 214.613 61.8852V65.8503C214.613 66.6468 215.259 67.2926 216.056 67.2926H220.021C220.817 67.2926 221.463 66.6468 221.463 65.8503V61.8852C221.463 61.0886 220.817 60.4429 220.021 60.4429Z" fill="#4E7CFD"/>
<path d="M229.25 60.4429H225.285C224.488 60.4429 223.842 61.0886 223.842 61.8852V65.8503C223.842 66.6468 224.488 67.2926 225.285 67.2926H229.25C230.046 67.2926 230.692 66.6468 230.692 65.8503V61.8852C230.692 61.0886 230.046 60.4429 229.25 60.4429Z" fill="#4E7CFD"/>
<path d="M238.48 60.4429H234.515C233.718 60.4429 233.072 61.0886 233.072 61.8852V65.8503C233.072 66.6468 233.718 67.2926 234.515 67.2926H238.48C239.276 67.2926 239.922 66.6468 239.922 65.8503V61.8852C239.922 61.0886 239.276 60.4429 238.48 60.4429Z" fill="#4E7CFD"/>
<path d="M247.709 60.4429H243.744C242.947 60.4429 242.301 61.0886 242.301 61.8852V65.8503C242.301 66.6468 242.947 67.2926 243.744 67.2926H247.709C248.505 67.2926 249.151 66.6468 249.151 65.8503V61.8852C249.151 61.0886 248.505 60.4429 247.709 60.4429Z" fill="#4E7CFD"/>
<path d="M256.939 60.4429H252.974C252.177 60.4429 251.531 61.0886 251.531 61.8852V65.8503C251.531 66.6468 252.177 67.2926 252.974 67.2926H256.939C257.735 67.2926 258.381 66.6468 258.381 65.8503V61.8852C258.381 61.0886 257.735 60.4429 256.939 60.4429Z" fill="#4E7CFD"/>
<path d="M266.168 60.4429H262.203C261.406 60.4429 260.76 61.0886 260.76 61.8852V65.8503C260.76 66.6468 261.406 67.2926 262.203 67.2926H266.168C266.964 67.2926 267.61 66.6468 267.61 65.8503V61.8852C267.61 61.0886 266.964 60.4429 266.168 60.4429Z" fill="#4E7CFD"/>
<path d="M275.398 60.4429H271.433C270.636 60.4429 269.99 61.0886 269.99 61.8852V65.8503C269.99 66.6468 270.636 67.2926 271.433 67.2926H275.398C276.194 67.2926 276.84 66.6468 276.84 65.8503V61.8852C276.84 61.0886 276.194 60.4429 275.398 60.4429Z" fill="#4E7CFD"/>
<path d="M284.627 60.4429H280.662C279.865 60.4429 279.219 61.0886 279.219 61.8852V65.8503C279.219 66.6468 279.865 67.2926 280.662 67.2926H284.627C285.423 67.2926 286.069 66.6468 286.069 65.8503V61.8852C286.069 61.0886 285.423 60.4429 284.627 60.4429Z" fill="#4E7CFD"/>
<path d="M142.609 88.4597H135.663V108.874H142.609V88.4597Z" fill="#018CFF"/>
<path d="M136.833 106.875H141.803C142.227 106.875 142.634 107.044 142.934 107.343C143.234 107.643 143.402 108.05 143.402 108.474V110.476H135.237V108.474C135.237 108.05 135.405 107.644 135.704 107.344C136.004 107.044 136.41 106.876 136.833 106.875Z" fill="#1A2FB4"/>
<path d="M152.763 88.4597H145.816V108.874H152.763V88.4597Z" fill="#018CFF"/>
<path d="M146.986 106.875H151.956C152.38 106.875 152.786 107.044 153.086 107.343C153.386 107.643 153.554 108.05 153.554 108.474V110.476H145.389V108.474C145.389 108.05 145.557 107.644 145.857 107.344C146.156 107.044 146.562 106.876 146.986 106.875Z" fill="#1A2FB4"/>
<path d="M132.29 108.874H142.778C144.176 108.874 145.517 109.429 146.506 110.418C147.495 111.407 148.05 112.748 148.05 114.146V115.464H127.019V114.146C127.019 112.748 127.574 111.407 128.563 110.419C129.551 109.43 130.892 108.874 132.29 108.874Z" fill="#3EB8FF"/>
<path d="M141.459 108.874H138.952C138.086 108.874 137.229 109.044 136.43 109.375C135.63 109.706 134.903 110.192 134.291 110.804C133.679 111.416 133.194 112.142 132.863 112.942C132.531 113.741 132.361 114.598 132.361 115.464H148.049C148.049 113.716 147.355 112.04 146.119 110.804C144.883 109.568 143.206 108.874 141.459 108.874Z" fill="#018CFF"/>
<path d="M142.443 108.874H152.927C153.62 108.874 154.305 109.01 154.945 109.275C155.585 109.54 156.166 109.928 156.656 110.418C157.145 110.908 157.533 111.489 157.798 112.128C158.063 112.768 158.2 113.454 158.2 114.146V115.464H137.168V114.146C137.168 113.454 137.305 112.768 137.57 112.128C137.835 111.488 138.224 110.907 138.713 110.417C139.203 109.928 139.785 109.539 140.425 109.274C141.065 109.01 141.751 108.873 142.443 108.874Z" fill="#3EB8FF"/>
<path d="M151.611 108.874H149.104C147.356 108.874 145.68 109.568 144.444 110.804C143.208 112.04 142.514 113.716 142.514 115.464H158.202C158.202 114.598 158.031 113.741 157.7 112.942C157.369 112.142 156.883 111.416 156.271 110.804C155.659 110.192 154.933 109.706 154.133 109.375C153.333 109.044 152.476 108.874 151.611 108.874Z" fill="#018CFF"/>
<path d="M126.15 94.5669C124.718 94.5669 123.344 93.9978 122.331 92.9849C121.318 91.9719 120.749 90.5981 120.749 89.1656V65.8442C120.749 64.4117 121.318 63.0378 122.331 62.0249C123.344 61.0119 124.718 60.4429 126.15 60.4429C127.583 60.4429 128.957 61.0119 129.97 62.0249C130.983 63.0378 131.552 64.4117 131.552 65.8442V89.1656C131.552 90.5981 130.983 91.9719 129.97 92.9849C128.957 93.9978 127.583 94.5669 126.15 94.5669Z" fill="#3EB8FF"/>
<path d="M129.958 62.0179C129.442 61.5114 128.748 61.2275 128.025 61.2275C127.302 61.2275 126.608 61.5114 126.092 62.0179C125.586 62.5181 125.185 63.114 124.911 63.7709C124.637 64.4278 124.497 65.1325 124.498 65.8442V89.1656C124.497 89.8772 124.637 90.582 124.911 91.2388C125.185 91.8957 125.586 92.4916 126.092 92.9918C126.608 93.4984 127.302 93.7822 128.025 93.7822C128.748 93.7822 129.442 93.4984 129.958 92.9918C130.464 92.4916 130.866 91.8958 131.14 91.2389C131.414 90.582 131.554 89.8773 131.553 89.1656V65.8442C131.554 65.1325 131.414 64.4277 131.14 63.7708C130.866 63.114 130.464 62.5181 129.958 62.0179Z" fill="#018CFF"/>
<path d="M124.103 94.0914C121.84 94.0914 120.005 97.0424 120.005 100.682C120.005 104.322 121.837 107.273 124.103 107.273H128.203V94.0914H124.103Z" fill="#3EB8FF"/>
<path d="M128.199 107.27C130.461 107.27 132.296 104.32 132.296 100.68C132.296 97.0405 130.461 94.09 128.199 94.09C125.936 94.09 124.102 97.0405 124.102 100.68C124.102 104.32 125.936 107.27 128.199 107.27Z" fill="#018CFF"/>
<path d="M134.673 57.9201C132.642 57.9146 130.692 58.7163 129.251 60.1488C127.811 61.5813 126.998 63.5273 126.993 65.5588L126.955 79.5749C126.951 80.8354 127.196 82.0843 127.675 83.2503C128.155 84.4162 128.859 85.4763 129.748 86.3701C130.637 87.2639 131.693 87.9738 132.856 88.4594C134.02 88.9449 135.267 89.1966 136.528 89.2L152.241 89.2427C153.502 89.2461 154.751 89.0012 155.917 88.5219C157.083 88.0426 158.143 87.3383 159.037 86.4493C159.93 85.5602 160.64 84.5038 161.126 83.3404C161.611 82.177 161.863 80.9294 161.866 79.6687L161.904 65.6527C161.91 63.6213 161.108 61.671 159.675 60.2306C158.243 58.7903 156.297 57.9778 154.266 57.972L134.673 57.9201Z" fill="#3EB8FF"/>
<path d="M150.333 57.9642C154.563 57.9757 154.242 61.4036 154.231 65.6343L154.193 79.6503C154.179 84.9516 153.61 89.2479 148.308 89.2334L152.243 89.2441C153.504 89.2472 154.753 89.002 155.919 88.5225C157.085 88.043 158.144 87.3385 159.038 86.4493C159.932 85.5602 160.641 84.5037 161.127 83.3403C161.612 82.1768 161.863 80.9292 161.866 79.6686L161.904 65.6526C161.91 63.6212 161.108 61.6709 159.675 60.2305C158.243 58.7902 156.297 57.9777 154.266 57.9719L150.333 57.9642Z" fill="#018CFF"/>
<path d="M151.989 67.8543V79.3124C151.989 80.1604 151.652 80.9737 151.052 81.5733C150.453 82.173 149.639 82.5098 148.791 82.5098H132.249C131.401 82.5098 130.588 82.173 129.988 81.5735C129.389 80.9741 129.052 80.161 129.052 79.3132V67.8535C129.052 67.0057 129.389 66.1926 129.988 65.5931C130.588 64.9937 131.401 64.6569 132.249 64.6569H148.794C149.642 64.6575 150.455 64.9946 151.054 65.5942C151.653 66.1938 151.989 67.0067 151.989 67.8543Z" fill="white"/>
<path d="M148.49 66.1823H132.557C131.465 66.1823 130.581 67.0671 130.581 68.1587V79.0063C130.581 80.0979 131.465 80.9828 132.557 80.9828H148.49C149.582 80.9828 150.466 80.0979 150.466 79.0063V68.1587C150.466 67.0671 149.582 66.1823 148.49 66.1823Z" fill="#1A2FB4"/>
<path d="M162.985 60.4429H160.825C158.438 60.4429 156.504 62.3773 156.504 64.7636V90.2461C156.504 92.6324 158.438 94.5669 160.825 94.5669H162.985C165.371 94.5669 167.306 92.6324 167.306 90.2461V64.7636C167.306 62.3773 165.371 60.4429 162.985 60.4429Z" fill="#3EB8FF"/>
<path d="M165.711 62.018C165.195 61.5114 164.501 61.2275 163.778 61.2275C163.055 61.2275 162.361 61.5114 161.845 62.018C161.339 62.5183 160.937 63.1142 160.663 63.7711C160.39 64.4279 160.249 65.1326 160.25 65.8442V89.1656C160.249 89.8773 160.39 90.582 160.663 91.2388C160.937 91.8957 161.339 92.4915 161.845 92.9919C162.361 93.4985 163.055 93.7823 163.778 93.7823C164.501 93.7823 165.195 93.4985 165.711 92.9919C166.217 92.4915 166.618 91.8957 166.892 91.2388C167.166 90.582 167.307 89.8773 167.306 89.1656V65.8442C167.307 65.1326 167.166 64.4279 166.892 63.7711C166.618 63.1142 166.217 62.5183 165.711 62.018Z" fill="#018CFF"/>
<path d="M166.249 66.4135C166.249 68.3686 165.142 69.9536 163.778 69.9536C162.413 69.9536 161.306 68.3686 161.306 66.4135C161.306 64.4584 162.413 62.8734 163.778 62.8734C165.143 62.8734 166.249 64.4584 166.249 66.4135Z" fill="#1A2FB4"/>
<path d="M159.856 94.0914C157.594 94.0914 155.759 97.0424 155.759 100.682C155.759 104.322 157.591 107.273 159.856 107.273H163.953V94.0914H159.856Z" fill="#3EB8FF"/>
<path d="M163.953 107.27C166.215 107.27 168.05 104.32 168.05 100.68C168.05 97.0405 166.215 94.09 163.953 94.09C161.69 94.09 159.855 97.0405 159.855 100.68C159.855 104.32 161.69 107.27 163.953 107.27Z" fill="#018CFF"/>
<path d="M158.397 33.2908H129.399C126.363 33.2908 123.901 35.7524 123.901 38.789V53.0859C123.901 56.1224 126.363 58.5841 129.399 58.5841H158.397C161.434 58.5841 163.895 56.1224 163.895 53.0859V38.789C163.895 35.7524 161.434 33.2908 158.397 33.2908Z" fill="#3EB8FF"/>
<path d="M157.022 33.2908H151.681C153.503 33.2908 155.251 34.0148 156.54 35.3037C157.829 36.5926 158.553 38.3406 158.553 40.1633V51.7115C158.553 53.5342 157.829 55.2823 156.54 56.5711C155.251 57.86 153.503 58.5841 151.681 58.5841H157.022C158.845 58.5841 160.593 57.86 161.882 56.5712C163.171 55.2823 163.896 53.5343 163.896 51.7115V40.1633C163.896 38.3406 163.171 36.5925 161.882 35.3037C160.593 34.0148 158.845 33.2908 157.022 33.2908Z" fill="#018CFF"/>
<path d="M165.662 39.4283H122.134V52.4455H165.662V39.4283Z" fill="#1A2FB4"/>
<path fill-rule="evenodd" clip-rule="evenodd" d="M163.412 37.6328H124.496L122.134 39.4284H165.662L163.412 37.6328Z" fill="white"/>
<path fill-rule="evenodd" clip-rule="evenodd" d="M163.412 54.2418H124.496L122.134 52.4462H165.662L163.412 54.2418Z" fill="#16299C"/>
<path d="M135.139 30.084H150.491C151.104 30.084 151.693 30.3277 152.126 30.7614C152.56 31.1952 152.804 31.7835 152.804 32.397V33.3341H132.826V32.397C132.826 31.7835 133.069 31.1952 133.503 30.7614C133.937 30.3277 134.525 30.084 135.139 30.084Z" fill="#FF6AF0"/>
<path d="M150.17 51.2132H131.893C131.171 51.2133 130.456 51.0712 129.789 50.7949C129.122 50.5186 128.515 50.1136 128.005 49.6031C127.494 49.0925 127.089 48.4864 126.813 47.8192C126.536 47.1521 126.394 46.4371 126.394 45.715C126.394 44.9931 126.536 44.2782 126.813 43.6113C127.089 42.9444 127.494 42.3385 128.005 41.8282C128.516 41.318 129.122 40.9134 129.789 40.6375C130.456 40.3617 131.171 40.22 131.893 40.2206H150.17C150.892 40.2201 151.607 40.3618 152.274 40.6377C152.941 40.9136 153.547 41.3183 154.058 41.8285C154.568 42.3388 154.974 42.9446 155.25 43.6115C155.526 44.2783 155.668 44.9931 155.668 45.715C155.668 47.1732 155.089 48.5717 154.058 49.6028C153.027 50.6339 151.628 51.2132 150.17 51.2132Z" fill="#3EB8FF"/>
<path d="M131.914 42.0747C131.195 42.0747 130.491 42.2882 129.892 42.6882C129.294 43.0881 128.827 43.6566 128.551 44.3218C128.276 44.9869 128.204 45.7188 128.344 46.4249C128.485 47.131 128.831 47.7796 129.341 48.2886C129.85 48.7977 130.498 49.1444 131.204 49.2848C131.91 49.4253 132.642 49.3532 133.307 49.0777C133.973 48.8022 134.541 48.3356 134.941 47.737C135.341 47.1384 135.554 46.4347 135.554 45.7147C135.554 45.2367 135.46 44.7634 135.277 44.3218C135.094 43.8801 134.826 43.4789 134.488 43.1408C134.15 42.8028 133.749 42.5347 133.307 42.3518C132.866 42.1689 132.392 42.0747 131.914 42.0747Z" fill="#018CFF"/>
<path d="M153.829 46.7144C154.383 44.782 153.265 42.7662 151.333 42.2121C149.4 41.6579 147.385 42.7753 146.83 44.7078C146.276 46.6402 147.394 48.656 149.326 49.2101C151.259 49.7642 153.274 48.6469 153.829 46.7144Z" fill="#018CFF"/>
<path d="M132.909 70.9761H135.415V68.4708H132.909V70.9761ZM136.291 70.9761H138.796V68.4708H136.291L136.291 70.9761ZM139.671 68.4708V70.9761H142.176V68.4708H139.671ZM132.909 74.2308H135.415V71.7255H132.909V74.2308ZM136.291 74.2308H138.796V71.7255H136.291L136.291 74.2308ZM139.671 74.2308H142.176V71.7255H139.671V74.2308Z" fill="#69DBBE"/>
<path d="M145.818 74.2308C147.409 74.2308 148.698 72.9414 148.698 71.3508C148.698 69.7602 147.409 68.4708 145.818 68.4708C144.227 68.4708 142.938 69.7602 142.938 71.3508C142.938 72.9414 144.227 74.2308 145.818 74.2308Z" fill="#69DBBE"/>
<path d="M136.53 75.6866V76.1949H142.177V75.6866H136.53ZM136.53 77.6028H142.177V77.0946H136.53V77.6028ZM136.53 79.0108H142.177V78.5025H136.53V79.0108Z" fill="#69DBBE"/>
<path d="M253.047 138.182H154.267C147.323 138.182 141.667 132.53 141.667 125.582V115.464H144.21V125.582C144.21 131.128 148.722 135.64 154.268 135.64H253.047C255.714 135.637 258.27 134.576 260.156 132.691C262.042 130.805 263.102 128.249 263.105 125.582V89.4403H265.648V125.582C265.645 132.53 259.992 138.182 253.047 138.182Z" fill="#CAF0FF"/>
<path d="M262.185 149.332H172.037C165.958 149.332 161.013 144.387 161.013 138.308V107.27H163.555V138.308C163.558 140.557 164.452 142.713 166.042 144.303C167.632 145.893 169.788 146.787 172.037 146.79H262.185C264.434 146.787 266.589 145.893 268.179 144.303C269.769 142.713 270.664 140.557 270.666 138.308V89.4403H273.208V138.308C273.208 144.387 268.263 149.332 262.185 149.332Z" fill="#CAF0FF"/>
<path d="M207.066 161.252H204.523C204.524 159.773 205.112 158.356 206.158 157.31C207.203 156.264 208.621 155.676 210.1 155.674H266.194C273.215 155.674 278.927 149.963 278.927 142.942V89.4403H281.47V142.944C281.47 151.366 274.617 158.219 266.194 158.219H210.1C209.295 158.219 208.524 158.539 207.955 159.108C207.386 159.676 207.066 160.448 207.066 161.252Z" fill="#CAF0FF"/>
<defs>
<linearGradient id="paint0_linear" x1="58.9345" y1="141.64" x2="63.0477" y2="182.71" gradientUnits="userSpaceOnUse">
<stop offset="0.01" stop-color="#FFBCA3"/>
<stop offset="1" stop-color="#FFD5BB"/>
</linearGradient>
<linearGradient id="paint1_linear" x1="16729.2" y1="95587.8" x2="23195.2" y2="121794" gradientUnits="userSpaceOnUse">
<stop offset="0.01" stop-color="#FFBCA3"/>
<stop offset="1" stop-color="#FFD5BB"/>
</linearGradient>
<linearGradient id="paint2_linear" x1="25227.3" y1="29287.5" x2="50332.4" y2="28415" gradientUnits="userSpaceOnUse">
<stop offset="0.01" stop-color="#FFBCA3"/>
<stop offset="1" stop-color="#FFD5BB"/>
</linearGradient>
<linearGradient id="paint3_linear" x1="20743.2" y1="26403.3" x2="30114.4" y2="22759.2" gradientUnits="userSpaceOnUse">
<stop offset="0.01" stop-color="#FFBCA3"/>
<stop offset="1" stop-color="#FFD5BB"/>
</linearGradient>
<linearGradient id="paint4_linear" x1="11970" y1="6065.2" x2="12005.1" y2="7123.58" gradientUnits="userSpaceOnUse">
<stop offset="0.01" stop-color="#FFBCA3"/>
<stop offset="1" stop-color="#FFD5BB"/>
</linearGradient>
<linearGradient id="paint5_linear" x1="9140.5" y1="13471.1" x2="9401.35" y2="16097.4" gradientUnits="userSpaceOnUse">
<stop offset="0.01" stop-color="#FFBCA3"/>
<stop offset="1" stop-color="#FFD5BB"/>
</linearGradient>
<linearGradient id="paint6_linear" x1="48233.3" y1="12863.9" x2="48233.3" y2="41829.7" gradientUnits="userSpaceOnUse">
<stop offset="0.01" stop-color="#FFBCA3"/>
<stop offset="1" stop-color="#FFD5BB"/>
</linearGradient>
<linearGradient id="paint7_linear" x1="10003.5" y1="6988.92" x2="10146.8" y2="8702.4" gradientUnits="userSpaceOnUse">
<stop offset="0.01" stop-color="#FFBCA3"/>
<stop offset="1" stop-color="#FFD5BB"/>
</linearGradient>
<linearGradient id="paint8_linear" x1="7916.84" y1="6011.82" x2="10211.4" y2="7991.79" gradientUnits="userSpaceOnUse">
<stop offset="0.01" stop-color="#FFBCA3"/>
<stop offset="1" stop-color="#FFD5BB"/>
</linearGradient>
<linearGradient id="paint9_linear" x1="35007" y1="39930.8" x2="54174.6" y2="48929.4" gradientUnits="userSpaceOnUse">
<stop offset="0.01" stop-color="#FFBCA3"/>
<stop offset="1" stop-color="#FFD5BB"/>
</linearGradient>
<linearGradient id="paint10_linear" x1="14638.2" y1="19697.3" x2="23312.9" y2="23023.2" gradientUnits="userSpaceOnUse">
<stop offset="0.01" stop-color="#FFBCA3"/>
<stop offset="1" stop-color="#FFD5BB"/>
</linearGradient>
</defs>
</svg>
