<svg width="238" height="198" viewBox="0 0 238 198" fill="none" xmlns="http://www.w3.org/2000/svg">
<path style="mix-blend-mode:screen" d="M128.764 38.9192H121.834H120.621H112.495L73.5874 132.411H120.621H121.834H168.868L128.764 38.9192Z" fill="url(#paint0_linear)"/>
<path style="mix-blend-mode:screen" d="M153.988 60.9651L150.361 59.6865L149.722 59.4642L145.465 57.9586L107.798 99.7479L132.438 108.443L133.078 108.665L157.718 117.36L153.988 60.9651Z" fill="url(#paint1_linear)"/>
<path d="M120.306 197.224C164.871 197.224 200.998 194.399 200.998 190.915C200.998 187.43 164.871 184.605 120.306 184.605C75.7406 184.605 39.6133 187.43 39.6133 190.915C39.6133 194.399 75.7406 197.224 120.306 197.224Z" fill="#18262C"/>
<path d="M129.339 59.1088L112.419 65.6647C110.685 66.3367 109.824 68.2874 110.496 70.0218L117.051 86.9414C117.723 88.6757 119.674 89.5369 121.409 88.8649L138.328 82.309C140.062 81.637 140.924 79.6862 140.252 77.9519L133.696 61.0323C133.024 59.298 131.073 58.4368 129.339 59.1088Z" fill="#FFB11B"/>
<path d="M120.19 87.2589C119.88 87.2604 119.576 87.1677 119.32 86.9932C119.064 86.8187 118.866 86.5705 118.754 86.2815L112.199 69.3684C112.054 68.99 112.064 68.5694 112.228 68.1987C112.392 67.828 112.697 67.5374 113.074 67.3904L129.987 60.8355C130.175 60.763 130.375 60.7281 130.575 60.7329C130.776 60.7376 130.974 60.7819 131.158 60.8632C131.342 60.9445 131.508 61.0613 131.646 61.2067C131.785 61.3522 131.893 61.5236 131.966 61.711L138.52 78.6241C138.666 79.0026 138.655 79.4231 138.491 79.7938C138.327 80.1645 138.023 80.4551 137.645 80.6021L120.741 87.1617C120.565 87.2273 120.378 87.2603 120.19 87.2589ZM130.548 61.22C130.417 61.2201 130.287 61.2437 130.163 61.2894L113.25 67.8444C113.119 67.895 112.998 67.9713 112.897 68.0688C112.795 68.1663 112.713 68.2831 112.657 68.4124C112.6 68.5417 112.57 68.6809 112.568 68.8219C112.565 68.963 112.591 69.1031 112.644 69.2341L119.217 86.1147C119.32 86.3799 119.525 86.5932 119.785 86.7079C120.046 86.8225 120.341 86.8291 120.607 86.7262L137.52 80.1713C137.651 80.1207 137.772 80.0444 137.874 79.9468C137.976 79.8493 138.057 79.7325 138.114 79.6033C138.17 79.474 138.2 79.3348 138.203 79.1937C138.205 79.0527 138.179 78.9126 138.127 78.7816L131.576 61.8685C131.526 61.7377 131.45 61.6183 131.353 61.5173C131.256 61.4163 131.14 61.3357 131.011 61.2802C130.863 61.2264 130.705 61.2058 130.548 61.22Z" fill="white"/>
<path d="M135.718 79.7498C135.558 79.7493 135.4 79.7146 135.255 79.6479L114.553 70.4849C114.403 70.4313 114.266 70.3476 114.151 70.2389C114.035 70.1302 113.943 69.9989 113.88 69.8532C113.817 69.7074 113.785 69.5503 113.786 69.3916C113.786 69.2329 113.819 69.076 113.883 68.9306C113.946 68.7852 114.039 68.6545 114.156 68.5464C114.272 68.4384 114.409 68.3555 114.559 68.3027C114.708 68.2499 114.867 68.2285 115.026 68.2397C115.184 68.2509 115.338 68.2946 115.479 68.3679L136.177 77.5077C136.42 77.6144 136.62 77.8015 136.741 78.0378C136.863 78.2741 136.9 78.545 136.846 78.8052C136.792 79.0655 136.649 79.2991 136.443 79.4668C136.237 79.6346 135.979 79.7264 135.714 79.7267L135.718 79.7498Z" fill="white"/>
<path d="M120.797 85.5032C120.637 85.5026 120.48 85.4695 120.334 85.4059C120.194 85.3446 120.068 85.2564 119.963 85.1464C119.858 85.0363 119.775 84.9066 119.72 84.7646C119.665 84.6226 119.638 84.4711 119.642 84.3189C119.645 84.1666 119.679 84.0165 119.741 83.8772L128.88 63.1794C128.934 63.0301 129.018 62.8933 129.126 62.7777C129.235 62.662 129.366 62.5699 129.512 62.5071C129.658 62.4443 129.815 62.4122 129.974 62.4126C130.132 62.4131 130.289 62.4461 130.435 62.5097C130.58 62.5734 130.711 62.6662 130.819 62.7825C130.927 62.8988 131.01 63.036 131.063 63.1857C131.115 63.3353 131.137 63.4943 131.126 63.6526C131.114 63.8109 131.071 63.9652 130.997 64.1059L121.858 84.813C121.767 85.0189 121.619 85.194 121.43 85.3166C121.242 85.4392 121.022 85.5041 120.797 85.5032Z" fill="white"/>
<path d="M160.571 62.4614C164.513 64.4117 166.834 66.7881 166.968 69.4425C167.376 77.503 147.41 85.0631 122.377 86.3232C107.168 87.0875 93.5905 85.355 85.1826 82.0706C93.2338 86.0499 108.048 88.2549 124.846 87.4072C149.861 86.1471 169.845 78.6055 169.438 70.5265C169.28 67.3579 166.005 64.5877 160.571 62.4614Z" fill="white"/>
<path d="M83.3019 53.6274C80.893 54.7902 79.4616 56.2216 79.3643 57.8337C79.0678 62.7395 91.1724 67.4646 106.399 68.391C115.664 68.9562 123.924 67.9834 129.061 66.0378C124.137 68.4096 115.108 69.6557 104.884 69.035C89.6576 68.1085 77.553 63.3834 77.8541 58.4776C77.9885 56.5551 79.9851 54.8875 83.3019 53.6274Z" fill="white"/>
<path d="M171.138 119.163H163.689C163.133 119.163 162.584 119.053 162.071 118.84C161.558 118.627 161.092 118.315 160.701 117.921L155.763 112.983C155.029 112.249 154.158 111.666 153.2 111.269C152.241 110.872 151.214 110.667 150.176 110.667H120.065V128.506H160.951C161.709 128.509 162.458 128.344 163.145 128.024C163.832 127.704 164.44 127.236 164.926 126.653L171.138 119.163Z" fill="#433748"/>
<path d="M188.913 44.4364C193.27 44.4364 196.802 40.9044 196.802 36.5474C196.802 32.1904 193.27 28.6583 188.913 28.6583C184.556 28.6583 181.023 32.1904 181.023 36.5474C181.023 40.9044 184.556 44.4364 188.913 44.4364Z" fill="#DAE1E5"/>
<path d="M121.26 27.2919L115.279 28.8669L116.766 33.4994C116.89 33.8853 117.089 34.2431 117.352 34.5522C117.614 34.8614 117.935 35.1158 118.295 35.301C118.656 35.4861 119.05 35.5985 119.454 35.6315C119.858 35.6646 120.265 35.6177 120.651 35.4936C121.037 35.3695 121.394 35.1706 121.703 34.9082C122.013 34.6459 122.267 34.3252 122.452 33.9645C122.637 33.6038 122.75 33.2102 122.783 32.8061C122.816 32.402 122.769 31.9953 122.645 31.6093L121.26 27.2919Z" fill="#433748"/>
<path d="M189.704 42.6391C189.215 42.6511 188.728 42.566 188.271 42.3887C187.815 42.2114 187.398 41.9454 187.045 41.6061C186.632 41.1722 186.326 40.6472 186.153 40.0734C185.98 39.4997 185.945 38.8932 186.049 38.3032C186.277 36.9702 186.913 35.7407 187.868 34.7841C188.824 33.8275 190.053 33.1909 191.386 32.962C191.976 32.8574 192.582 32.893 193.156 33.0661C193.73 33.2391 194.255 33.5446 194.689 33.9579C196.343 35.6117 195.972 38.6691 193.864 40.7769C192.775 41.9187 191.281 42.5874 189.704 42.6391ZM187.699 40.9483C188.991 42.2408 191.465 41.8748 193.211 40.1284C194.958 38.3819 195.324 35.9082 194.031 34.6157C193.697 34.3058 193.295 34.0782 192.858 33.9511C192.42 33.824 191.959 33.801 191.511 33.8838C190.379 34.0839 189.336 34.6271 188.523 35.44C187.71 36.253 187.167 37.2962 186.967 38.4282C186.884 38.8763 186.907 39.3374 187.034 39.7749C187.161 40.2124 187.389 40.6142 187.699 40.9483Z" fill="white"/>
<path d="M20.6523 88.7969L25.6137 83.8356C26.3654 83.0834 27.2581 82.4868 28.2405 82.0798C29.223 81.6729 30.276 81.4635 31.3394 81.4637H50.2352C52.3826 81.4643 54.442 82.3174 55.9609 83.8356L60.9222 88.7969H20.6523Z" fill="#433748"/>
<path d="M19.5595 88.797H62.0159C62.6126 88.7982 63.1845 89.0358 63.6065 89.4578C64.0284 89.8797 64.266 90.4516 64.2672 91.0484C64.2672 91.344 64.209 91.6368 64.0959 91.9099C63.9827 92.1831 63.8169 92.4313 63.6078 92.6403C63.3988 92.8494 63.1506 93.0152 62.8774 93.1284C62.6043 93.2415 62.3115 93.2997 62.0159 93.2997H19.5595C19.2637 93.3003 18.9706 93.2425 18.6972 93.1296C18.4238 93.0167 18.1753 92.8509 17.9662 92.6417C17.757 92.4325 17.5912 92.1841 17.4782 91.9107C17.3653 91.6372 17.3075 91.3442 17.3081 91.0484C17.3081 90.4513 17.5453 89.8786 17.9675 89.4564C18.3897 89.0342 18.9624 88.797 19.5595 88.797Z" fill="#DAE1E5"/>
<path d="M170.322 88.7969L175.27 83.8356C176.021 83.0834 176.914 82.4868 177.897 82.0798C178.879 81.6729 179.932 81.4635 180.995 81.4637H199.887C200.95 81.463 202.003 81.6721 202.986 82.0791C203.968 82.4861 204.861 83.083 205.612 83.8356L210.574 88.7969H170.322Z" fill="#433748"/>
<path d="M169.247 88.797H211.704C212.301 88.7982 212.873 89.0358 213.294 89.4578C213.716 89.8797 213.954 90.4516 213.955 91.0484C213.955 91.344 213.897 91.6368 213.784 91.9099C213.671 92.1831 213.505 92.4313 213.296 92.6403C213.087 92.8494 212.839 93.0152 212.565 93.1284C212.292 93.2415 212 93.2997 211.704 93.2997H169.247C168.952 93.3003 168.659 93.2425 168.385 93.1296C168.112 93.0167 167.863 92.8509 167.654 92.6417C167.445 92.4325 167.279 92.1841 167.166 91.9107C167.053 91.6372 166.995 91.3442 166.996 91.0484C166.996 90.4513 167.233 89.8786 167.656 89.4564C168.078 89.0342 168.65 88.797 169.247 88.797Z" fill="#DAE1E5"/>
<path d="M64.1791 13.237C63.3805 13.4249 62.6893 13.9225 62.2575 14.6201C61.8257 15.3177 61.6888 16.1582 61.8767 16.9568C62.0647 17.7554 62.5622 18.4466 63.2598 18.8784C63.9574 19.3102 64.798 19.4471 65.5966 19.2591L69.6407 18.3049L67.9916 12.3475L64.1791 13.237Z" fill="#433748"/>
<path d="M46.4553 38.303C46.3116 38.682 46.244 39.0856 46.2563 39.4907C46.2686 39.8959 46.3607 40.2946 46.5272 40.6641C46.6937 41.0337 46.9313 41.3668 47.2266 41.6444C47.5219 41.9221 47.869 42.1388 48.248 42.2823C48.5977 42.4132 48.9679 42.4806 49.3413 42.4815C49.9689 42.4816 50.5816 42.2907 51.098 41.934C51.6144 41.5774 52.0099 41.0719 52.2319 40.4849L54.4509 34.6156L48.5677 32.7163L46.4553 38.303Z" fill="#433748"/>
<path d="M109.359 36.9087V37.9834C109.359 38.4343 109.538 38.8667 109.857 39.1856C110.176 39.5044 110.609 39.6835 111.059 39.6835H129.149C129.372 39.6835 129.593 39.6395 129.799 39.554C130.005 39.4685 130.192 39.3432 130.35 39.1853C130.507 39.0274 130.632 38.8399 130.717 38.6337C130.802 38.4274 130.845 38.2065 130.845 37.9834V36.9087H109.359Z" fill="#433748"/>
<path d="M130.845 36.6402C130.846 35.8356 130.609 35.0487 130.164 34.3785C129.719 33.7083 129.085 33.1848 128.343 32.874C126.726 32.193 124.146 31.5769 120.102 31.5769C116.058 31.5769 113.478 32.193 111.861 32.874C111.119 33.1848 110.485 33.7083 110.04 34.3785C109.595 35.0487 109.358 35.8356 109.359 36.6402V36.9089H130.845V36.6402Z" fill="#DAE1E5"/>
<path d="M114.187 39.6837V42.7411C114.187 44.3101 114.81 45.8147 115.919 46.9241C117.029 48.0335 118.533 48.6568 120.102 48.6568C121.672 48.6568 123.177 48.0337 124.287 46.9244C125.397 45.8151 126.021 44.3105 126.022 42.7411V39.6837H114.187Z" fill="#433748"/>
<path d="M149.485 46.8594L148.017 51.4177C147.893 51.8037 147.846 52.2104 147.879 52.6145C147.912 53.0186 148.024 53.4122 148.21 53.7729C148.395 54.1336 148.649 54.4543 148.958 54.7166C149.267 54.979 149.625 55.1779 150.011 55.302C150.397 55.4261 150.804 55.473 151.208 55.4399C151.612 55.4069 152.006 55.2945 152.366 55.1093C152.727 54.9242 153.048 54.6697 153.31 54.3606C153.572 54.0515 153.771 53.6937 153.895 53.3077L155.318 48.8976L149.485 46.8594Z" fill="#433748"/>
<path d="M157.393 57.514C157.168 58.4699 156.758 59.3721 156.184 60.169C155.61 60.966 154.885 61.642 154.05 62.1583C153.215 62.6746 152.286 63.0212 151.317 63.1781C150.347 63.3351 149.357 63.2993 148.401 63.0729C147.446 62.8479 146.544 62.4367 145.747 61.8629C144.951 61.2892 144.275 60.5641 143.759 59.729C143.242 58.894 142.896 57.9654 142.739 56.9963C142.581 56.0273 142.617 55.0367 142.842 54.0813C143.08 53.0894 143.701 52.2319 144.569 51.6963C145.437 51.1607 146.482 50.9905 147.475 51.2231L154.493 52.8908C154.988 53.0028 155.455 53.2114 155.869 53.5047C156.283 53.798 156.634 54.1701 156.904 54.5997C157.173 55.0293 157.355 55.5079 157.439 56.008C157.523 56.5082 157.507 57.0199 157.393 57.514Z" fill="#DAE1E5"/>
<path d="M108.938 57.6715C108.613 57.6712 108.297 57.5684 108.034 57.378C107.771 57.1875 107.575 56.919 107.474 56.6107L106.251 52.9047C105.953 52.0075 105.835 51.0603 105.904 50.1175C105.973 49.1746 106.228 48.2547 106.653 47.4104C107.078 46.566 107.666 45.8139 108.382 45.1971C109.099 44.5803 109.93 44.1109 110.828 43.8158L114.233 42.6902C114.621 42.5618 115.045 42.5931 115.411 42.7773C115.777 42.9615 116.054 43.2834 116.183 43.6722C116.311 44.0611 116.28 44.485 116.096 44.8508C115.912 45.2165 115.59 45.4941 115.201 45.6225L111.805 46.7621C111.293 46.9308 110.819 47.199 110.41 47.5511C110.001 47.9033 109.666 48.3326 109.423 48.8145C109.18 49.2964 109.035 49.8214 108.996 50.3595C108.956 50.8976 109.023 51.4382 109.192 51.9504L110.411 55.6564C110.475 55.8489 110.5 56.0521 110.485 56.2544C110.47 56.4567 110.415 56.654 110.324 56.8352C110.233 57.0163 110.107 57.1777 109.953 57.3101C109.8 57.4424 109.621 57.5432 109.429 57.6066C109.27 57.6564 109.104 57.6784 108.938 57.6715Z" fill="white"/>
<path d="M130.97 57.6715C130.812 57.6704 130.655 57.6438 130.506 57.5927C130.314 57.5293 130.135 57.4285 129.982 57.2962C129.828 57.1638 129.702 57.0024 129.611 56.8213C129.52 56.6401 129.465 56.4428 129.45 56.2405C129.435 56.0382 129.46 55.835 129.524 55.6425L130.743 51.9365C131.084 50.9026 131.001 49.7755 130.512 48.8027C130.023 47.8299 129.168 47.091 128.134 46.7482L124.725 45.6225C124.336 45.4941 124.014 45.2165 123.83 44.8508C123.646 44.485 123.615 44.0611 123.743 43.6722C123.871 43.2834 124.149 42.9615 124.515 42.7773C124.88 42.5931 125.304 42.5618 125.693 42.6902L129.103 43.8158C130 44.1119 130.83 44.5819 131.546 45.1991C132.261 45.8162 132.848 46.5683 133.273 47.4125C133.697 48.2566 133.952 49.1762 134.021 50.1186C134.09 51.061 133.972 52.0077 133.675 52.9047L132.457 56.6107C132.353 56.922 132.153 57.1924 131.886 57.383C131.618 57.5736 131.298 57.6746 130.97 57.6715Z" fill="white"/>
<path d="M120.102 59.6356C119.693 59.6356 119.3 59.4731 119.011 59.1838C118.722 58.8945 118.559 58.5022 118.559 58.093V45.6549C118.559 45.2458 118.722 44.8534 119.011 44.5641C119.3 44.2748 119.693 44.1123 120.102 44.1123C120.511 44.1123 120.903 44.2748 121.192 44.5641C121.482 44.8534 121.644 45.2458 121.644 45.6549V58.093C121.644 58.5022 121.482 58.8945 121.192 59.1838C120.903 59.4731 120.511 59.6356 120.102 59.6356Z" fill="white"/>
<path d="M135.75 67.358C135.35 67.357 134.965 67.2005 134.677 66.9214C134.389 66.6422 134.221 66.2624 134.208 65.8617L134.087 61.9704C134.029 60.0668 134.727 58.2176 136.03 56.8282C137.332 55.4388 139.133 54.6226 141.036 54.5585L144.626 54.4474C145.035 54.4351 145.433 54.5858 145.731 54.8664C146.029 55.147 146.203 55.5345 146.215 55.9436C146.227 56.3528 146.077 56.75 145.796 57.048C145.515 57.346 145.128 57.5203 144.719 57.5326L141.133 57.6437C140.045 57.6788 139.016 58.1437 138.27 58.9364C137.524 59.7291 137.123 60.7852 137.154 61.8732L137.275 65.7644C137.281 65.9672 137.248 66.1693 137.176 66.3591C137.105 66.5489 136.996 66.7226 136.857 66.8703C136.718 67.018 136.551 67.1367 136.366 67.2196C136.181 67.3025 135.981 67.348 135.778 67.3534L135.75 67.358Z" fill="white"/>
<path d="M156.874 73.6161C156.592 73.6174 156.315 73.5409 156.073 73.3952C155.832 73.2495 155.635 73.04 155.504 72.7899C155.374 72.5397 155.314 72.2584 155.333 71.9768C155.352 71.6953 155.447 71.4242 155.61 71.1934L157.829 67.997C158.449 67.102 158.688 65.9978 158.496 64.9263C158.303 63.8548 157.693 62.9033 156.8 62.2806L153.854 60.233C153.688 60.1174 153.546 59.9702 153.436 59.7997C153.327 59.6293 153.252 59.4389 153.216 59.2396C153.18 59.0402 153.184 58.8357 153.227 58.6377C153.27 58.4398 153.352 58.2523 153.467 58.0859C153.583 57.9195 153.73 57.7775 153.9 57.668C154.071 57.5585 154.261 57.4837 154.461 57.4478C154.66 57.4119 154.864 57.4156 155.062 57.4587C155.26 57.5018 155.448 57.5835 155.614 57.6991L158.56 59.7466C160.127 60.8355 161.196 62.5017 161.534 64.3789C161.872 66.2561 161.451 68.1907 160.363 69.7573L158.144 72.9537C158.001 73.1585 157.812 73.3257 157.59 73.4411C157.369 73.5565 157.124 73.6165 156.874 73.6161Z" fill="white"/>
<path d="M145.896 72.412C145.748 72.4132 145.601 72.3913 145.46 72.3471C145.265 72.2903 145.084 72.1955 144.926 72.0681C144.768 71.9408 144.637 71.7835 144.54 71.6052C144.443 71.4269 144.382 71.2312 144.361 71.0294C144.34 70.8276 144.36 70.6237 144.418 70.4293L147.938 58.5054C147.996 58.311 148.092 58.1299 148.219 57.9725C148.347 57.815 148.505 57.6843 148.683 57.5877C148.861 57.4912 149.057 57.4306 149.259 57.4097C149.46 57.3887 149.664 57.4076 149.859 57.4654C150.053 57.5232 150.234 57.6187 150.391 57.7465C150.549 57.8743 150.68 58.0318 150.776 58.2101C150.873 58.3884 150.933 58.584 150.954 58.7857C150.975 58.9873 150.956 59.1912 150.899 59.3856L147.364 71.3095C147.27 71.6264 147.076 71.9045 146.812 72.103C146.547 72.3015 146.226 72.4099 145.896 72.412Z" fill="white"/>
<path d="M203.778 48.5131C203.587 48.975 203.288 49.3838 202.904 49.7045C202.521 50.0252 202.066 50.2481 201.578 50.3542C201.089 50.4604 200.583 50.4465 200.101 50.3138C199.619 50.1811 199.177 49.9336 198.812 49.5925L190.557 41.8934C189.958 41.3343 189.607 40.5605 189.579 39.7422C189.551 38.9238 189.85 38.1279 190.409 37.5296C190.968 36.9313 191.741 36.5795 192.56 36.5517C193.378 36.5239 194.174 36.8223 194.772 37.3814L203.013 45.0805C203.474 45.5074 203.794 46.0645 203.931 46.6777C204.067 47.2908 204.014 47.931 203.778 48.5131Z" fill="#433748"/>
<path d="M196.139 66.9827L193.221 71.1519C192.772 71.8227 192.604 72.6423 192.752 73.4355C192.9 74.2287 193.352 74.9326 194.013 75.3966C194.673 75.8607 195.488 76.0481 196.284 75.9189C197.081 75.7896 197.795 75.3539 198.275 74.705L201.082 70.7072L196.139 66.9827Z" fill="#433748"/>
<path d="M69.0708 119.163H76.4827C77.038 119.163 77.5879 119.053 78.1007 118.84C78.6135 118.627 79.0791 118.315 79.4707 117.921L84.4088 112.983C85.1422 112.249 86.0131 111.666 86.9717 111.269C87.9303 110.872 88.9579 110.667 89.9956 110.667H120.106V128.506H79.2159C78.4579 128.509 77.7087 128.344 77.0217 128.023C76.3347 127.703 75.7268 127.235 75.2412 126.653L69.0708 119.163Z" fill="#433748"/>
<path d="M84.0107 128.511L88.3884 132.884C88.9315 133.428 89.5764 133.859 90.2862 134.153C90.996 134.447 91.7568 134.598 92.5252 134.598H120.121V128.511H84.0107Z" fill="#DAE1E5"/>
<path d="M120.106 134.598H97.2036V173.965H120.106V134.598Z" fill="#B9D4E0"/>
<path opacity="0.3" d="M102.244 137.377H99.9834V171.185H102.244V137.377Z" fill="white"/>
<path opacity="0.3" d="M110.582 137.377H104.329V171.185H110.582V137.377Z" fill="white"/>
<path d="M94.0353 173.969H120.102V179.63H87.5962L90.5841 175.683C90.9881 175.15 91.5099 174.719 92.1086 174.421C92.7074 174.124 93.3668 173.969 94.0353 173.969Z" fill="#433748"/>
<path d="M83.9455 179.63H120.102V189.576H76.9644C76.7178 189.575 76.4758 189.508 76.2649 189.38C76.0539 189.252 75.8818 189.069 75.7673 188.851C75.6528 188.632 75.6003 188.387 75.6153 188.14C75.6303 187.894 75.7124 187.657 75.8526 187.454L79.7161 181.849C80.189 181.164 80.8209 180.605 81.5575 180.218C82.2942 179.832 83.1136 179.63 83.9455 179.63Z" fill="#DAE1E5"/>
<path d="M90.459 128.511V122.892C90.459 122.426 90.644 121.979 90.9732 121.65C91.3025 121.321 91.749 121.136 92.2147 121.136C92.4456 121.135 92.6744 121.18 92.888 121.268C93.1015 121.356 93.2956 121.485 93.4591 121.649C93.6227 121.812 93.7524 122.005 93.8409 122.219C93.9294 122.432 93.975 122.661 93.975 122.892V128.511H90.459Z" fill="#5E5067"/>
<path d="M81.1616 128.511V122.892C81.1616 122.661 81.2072 122.432 81.2957 122.219C81.3842 122.005 81.514 121.812 81.6775 121.649C81.841 121.485 82.0351 121.356 82.2487 121.268C82.4622 121.18 82.691 121.135 82.9219 121.136C83.3876 121.136 83.8342 121.321 84.1634 121.65C84.4927 121.979 84.6776 122.426 84.6776 122.892V128.511H81.1616Z" fill="#5E5067"/>
<path d="M109.049 128.511V122.892C109.049 122.661 109.094 122.432 109.183 122.219C109.271 122.005 109.401 121.812 109.565 121.649C109.728 121.485 109.922 121.356 110.136 121.268C110.349 121.18 110.578 121.135 110.809 121.136C111.04 121.136 111.268 121.181 111.481 121.27C111.694 121.358 111.888 121.487 112.051 121.65C112.214 121.813 112.343 122.007 112.431 122.22C112.519 122.433 112.565 122.661 112.565 122.892V128.511H109.049Z" fill="#5E5067"/>
<path d="M118.346 128.511V122.892C118.346 122.661 118.391 122.432 118.479 122.219C118.567 122.006 118.696 121.812 118.859 121.649C119.022 121.486 119.216 121.356 119.429 121.268C119.643 121.18 119.871 121.135 120.102 121.136C120.333 121.135 120.562 121.18 120.775 121.268C120.989 121.356 121.183 121.485 121.346 121.649C121.51 121.812 121.64 122.005 121.728 122.219C121.817 122.432 121.862 122.661 121.862 122.892V128.511H118.346Z" fill="#5E5067"/>
<path d="M99.7607 128.511V122.892C99.7607 122.661 99.8063 122.432 99.8948 122.219C99.9834 122.005 100.113 121.812 100.277 121.649C100.44 121.485 100.634 121.356 100.848 121.268C101.061 121.18 101.29 121.135 101.521 121.136C101.752 121.135 101.981 121.18 102.194 121.268C102.408 121.356 102.602 121.485 102.766 121.649C102.929 121.812 103.059 122.005 103.147 122.219C103.236 122.432 103.281 122.661 103.281 122.892V128.511H99.7607Z" fill="#5E5067"/>
<path d="M224.077 93.2996H16.1265C15.8925 93.2996 15.6608 93.3457 15.4447 93.4354C15.2286 93.5251 15.0323 93.6565 14.867 93.8222C14.7018 93.9879 14.5709 94.1845 14.4817 94.4009C14.3926 94.6172 14.3471 94.8491 14.3477 95.0831V97.1723C14.3485 97.4245 14.4026 97.6737 14.5064 97.9036C14.6102 98.1335 14.7613 98.3389 14.9499 98.5064L24.766 107.146C25.6793 107.952 26.8555 108.397 28.0736 108.397H41.5633C42.5744 108.396 43.5756 108.595 44.5097 108.982C45.4437 109.369 46.2921 109.937 47.0064 110.653L54.2794 117.921C54.6709 118.315 55.1365 118.627 55.6493 118.84C56.1621 119.053 56.712 119.163 57.2673 119.163H76.4966C77.0519 119.163 77.6018 119.053 78.1145 118.84C78.6273 118.627 79.0929 118.315 79.4845 117.921L84.4227 112.983C85.1561 112.249 86.027 111.666 86.9856 111.269C87.9442 110.871 88.9717 110.667 90.0094 110.667H150.194C151.232 110.667 152.259 110.871 153.218 111.269C154.177 111.666 155.048 112.249 155.781 112.983L160.719 117.921C161.111 118.315 161.576 118.627 162.089 118.84C162.602 119.053 163.152 119.163 163.707 119.163H182.936C183.492 119.163 184.041 119.053 184.554 118.84C185.067 118.627 185.533 118.315 185.924 117.921L193.197 110.653C193.911 109.937 194.76 109.369 195.694 108.982C196.628 108.595 197.629 108.396 198.64 108.397H212.13C213.348 108.397 214.524 107.952 215.438 107.146L225.254 98.5064C225.443 98.3397 225.595 98.1344 225.699 97.9044C225.803 97.6743 225.856 97.4247 225.856 97.1723V95.0831C225.857 94.8491 225.811 94.6172 225.722 94.4009C225.633 94.1845 225.502 93.9879 225.337 93.8222C225.171 93.6565 224.975 93.5251 224.759 93.4354C224.543 93.3457 224.311 93.2996 224.077 93.2996Z" fill="#DAE1E5"/>
<path opacity="0.3" d="M54.2519 113.965L72.1331 96.0791H17.1274V96.7184L26.6054 105.057C27.0108 105.415 27.533 105.613 28.0739 105.613H41.5636C42.9408 105.609 44.3051 105.878 45.5774 106.406C46.8497 106.933 48.0047 107.707 48.9755 108.684L54.2519 113.965Z" fill="white"/>
<path opacity="0.3" d="M101.15 96.0791H77.2284L56.9614 116.346C57.0617 116.37 57.1642 116.382 57.2672 116.383H76.4965C76.6868 116.383 76.8752 116.345 77.0508 116.272C77.2265 116.199 77.386 116.092 77.5202 115.957L82.4584 111.019C84.2902 109.181 86.7333 108.079 89.3237 107.924L101.15 96.0791Z" fill="white"/>
<path opacity="0.3" d="M106.571 96.0791L94.7578 107.892H104.796L116.604 96.0791H106.571Z" fill="white"/>
<path d="M156.212 128.511L151.834 132.884C151.291 133.428 150.646 133.859 149.937 134.153C149.227 134.447 148.466 134.598 147.698 134.598H120.102V128.511H156.212Z" fill="#DAE1E5"/>
<path d="M143.005 134.598H120.102V173.965H143.005V134.598Z" fill="#B9D4E0"/>
<path d="M146.169 173.969H120.102V179.63H152.608L149.62 175.683C149.216 175.15 148.694 174.719 148.096 174.421C147.497 174.124 146.837 173.969 146.169 173.969Z" fill="#433748"/>
<path d="M156.277 179.63H120.102V189.576H163.226C163.473 189.576 163.715 189.509 163.927 189.382C164.138 189.254 164.311 189.071 164.426 188.853C164.541 188.634 164.594 188.388 164.579 188.142C164.564 187.895 164.482 187.657 164.342 187.454L160.474 181.849C160.004 181.169 159.378 180.612 158.647 180.225C157.916 179.839 157.103 179.635 156.277 179.63Z" fill="#DAE1E5"/>
<path d="M181.413 114.53H167.052C166.274 114.529 165.528 114.221 164.977 113.673L161.91 110.602C161.787 110.479 161.703 110.323 161.669 110.153C161.635 109.983 161.652 109.806 161.719 109.646C161.785 109.485 161.898 109.348 162.043 109.252C162.187 109.156 162.357 109.105 162.531 109.106H185.925C186.098 109.105 186.268 109.156 186.413 109.252C186.557 109.348 186.67 109.485 186.737 109.646C186.803 109.806 186.82 109.983 186.786 110.153C186.752 110.323 186.668 110.479 186.545 110.602L183.493 113.669C183.22 113.942 182.895 114.159 182.538 114.307C182.181 114.454 181.799 114.53 181.413 114.53Z" fill="#433748"/>
<path d="M149.745 128.511V122.892C149.745 122.426 149.56 121.979 149.231 121.65C148.902 121.321 148.455 121.136 147.989 121.136C147.758 121.135 147.53 121.18 147.316 121.268C147.102 121.356 146.908 121.485 146.745 121.649C146.581 121.812 146.452 122.005 146.363 122.219C146.275 122.432 146.229 122.661 146.229 122.892V128.511H149.745Z" fill="#5E5067"/>
<path d="M159.056 128.511V122.892C159.056 122.661 159.011 122.432 158.922 122.219C158.833 122.005 158.704 121.812 158.54 121.649C158.377 121.485 158.183 121.356 157.969 121.268C157.756 121.18 157.527 121.135 157.296 121.136C156.83 121.136 156.384 121.321 156.054 121.65C155.725 121.979 155.54 122.426 155.54 122.892V128.511H159.056Z" fill="#5E5067"/>
<path d="M131.155 128.511V122.892C131.155 122.426 130.97 121.979 130.64 121.65C130.311 121.321 129.865 121.136 129.399 121.136C129.168 121.135 128.939 121.18 128.726 121.268C128.512 121.356 128.318 121.485 128.155 121.649C127.991 121.812 127.861 122.005 127.773 122.219C127.684 122.432 127.639 122.661 127.639 122.892V128.511H131.155Z" fill="#5E5067"/>
<path d="M140.452 128.511V122.892C140.452 122.661 140.406 122.432 140.318 122.219C140.229 122.005 140.1 121.812 139.936 121.649C139.773 121.485 139.579 121.356 139.365 121.268C139.151 121.18 138.923 121.135 138.692 121.136C138.226 121.136 137.78 121.321 137.45 121.65C137.121 121.979 136.936 122.426 136.936 122.892V128.511H140.452Z" fill="#5E5067"/>
<path d="M118.365 16.2853L114.946 12.8665C114.703 12.6236 114.414 12.4314 114.096 12.301C113.778 12.1706 113.437 12.1046 113.093 12.1068H93.1412C92.7974 12.109 92.4567 12.043 92.1386 11.9126C91.8205 11.7822 91.5315 11.59 91.2882 11.3471L83.8763 3.93518L80.3927 4.22239C79.1237 4.32902 77.8896 4.69252 76.7655 5.29082C75.6413 5.88912 74.6505 6.70973 73.8533 7.70278C73.0561 8.69584 72.4691 9.8406 72.128 11.0675C71.7869 12.2945 71.6988 13.5779 71.869 14.84C72.0594 16.2417 72.5636 17.5824 73.344 18.7622C74.1244 19.942 75.1609 20.9306 76.3764 21.6543L78.2757 22.7846C81.5752 24.7428 85.281 25.9157 89.1063 26.2126L108.785 27.7506C112.006 28.002 115.205 27.0448 117.758 25.0655C120.311 23.0862 122.035 20.2268 122.594 17.045H120.19C119.505 17.0431 118.849 16.7699 118.365 16.2853Z" fill="#DAE1E5"/>
<path d="M122.798 14.7983C122.801 12.9995 122.431 11.2198 121.709 9.57207C120.988 7.92435 119.932 6.44467 118.608 5.22705C117.284 4.00942 115.721 3.08046 114.019 2.49919C112.317 1.91791 110.512 1.69703 108.72 1.85056L83.8901 3.93054L91.3021 11.3425C91.5453 11.5853 91.8344 11.7776 92.1524 11.908C92.4705 12.0384 92.8113 12.1044 93.155 12.1022H113.126C113.469 12.1 113.81 12.166 114.128 12.2964C114.446 12.4268 114.735 12.619 114.979 12.8619L118.397 16.2806C118.882 16.7664 119.541 17.0397 120.227 17.0404H122.631C122.764 16.2988 122.83 15.5469 122.83 14.7936L122.798 14.7983Z" fill="#B9D4E0"/>
<path d="M168.974 29.1264H177.693C178.036 29.1292 178.377 29.0634 178.695 28.933C179.014 28.8025 179.303 28.61 179.546 28.3667L183.057 24.8553C183.3 24.612 183.589 24.4195 183.907 24.2891C184.225 24.1586 184.566 24.0929 184.91 24.0956H187.991C187.807 23.7267 187.593 23.3734 187.351 23.0394C186.663 22.0991 185.77 21.3265 184.741 20.7795C183.712 20.2324 182.572 19.9249 181.408 19.8801L179.592 19.8106C176.436 19.6884 173.295 20.2939 170.41 21.5802L163.485 24.6747L167.191 28.3806C167.667 28.8501 168.306 29.1174 168.974 29.1264Z" fill="#B9D4E0"/>
<path d="M187.953 24.0955H184.873C184.529 24.0928 184.188 24.1586 183.87 24.289C183.552 24.4195 183.263 24.6119 183.02 24.8553L179.508 28.3667C179.265 28.61 178.976 28.8025 178.658 28.9329C178.34 29.0633 177.999 29.1291 177.655 29.1264H168.974C168.63 29.1291 168.289 29.0633 167.971 28.9329C167.653 28.8025 167.364 28.61 167.121 28.3667L163.415 24.6607L155.489 28.1953C154.141 28.7968 152.933 29.6705 151.939 30.7614C150.945 31.8524 150.187 33.137 149.714 34.5347C149.24 35.9324 149.06 37.4129 149.186 38.8834C149.312 40.3538 149.74 41.7823 150.444 43.0793C151.151 44.3815 152.12 45.5228 153.291 46.4309C154.462 47.339 155.808 47.9941 157.245 48.3546C158.682 48.7152 160.179 48.7734 161.639 48.5256C163.1 48.2778 164.494 47.7293 165.731 46.915L185.294 34.0646C186.887 33.0218 188.039 31.428 188.53 29.5885C189.02 27.7489 188.815 25.7931 187.953 24.0955Z" fill="#DAE1E5"/>
<path d="M55.6644 9.54493C52.7306 9.54178 49.9036 10.6451 47.7476 12.6348H50.5826C50.9264 12.632 51.2674 12.6978 51.5855 12.8283C51.9037 12.9587 52.1926 13.1512 52.4356 13.3945L53.7466 14.7055C53.9899 14.9484 54.1824 15.2374 54.3128 15.5555C54.4433 15.8737 54.509 16.2146 54.5063 16.5585V18.2725C54.5036 18.6163 54.5693 18.9572 54.6998 19.2754C54.8302 19.5935 55.0227 19.8825 55.266 20.1254L59.6205 24.4799C59.8635 24.7233 60.1524 24.9157 60.4706 25.0462C60.7887 25.1766 61.1297 25.2424 61.4735 25.2397H66.7267C67.3594 23.4722 67.5579 21.5784 67.3055 19.7181C67.053 17.8578 66.3571 16.0855 65.2762 14.5505C64.1954 13.0155 62.7613 11.7629 61.095 10.8982C59.4286 10.0335 57.5788 9.58206 55.7015 9.58199L55.6644 9.54493Z" fill="#DAE1E5"/>
<path d="M59.6021 24.443L55.2476 20.0885C55.0043 19.8456 54.8118 19.5566 54.6814 19.2385C54.5509 18.9203 54.4852 18.5794 54.4879 18.2355V16.5215C54.4906 16.1777 54.4249 15.8368 54.2944 15.5186C54.164 15.2005 53.9715 14.9115 53.7282 14.6686L52.4172 13.3576C52.1742 13.1143 51.8853 12.9218 51.5671 12.7913C51.249 12.6609 50.908 12.5951 50.5642 12.5979H47.7292C46.4219 13.7996 45.4052 15.2829 44.7559 16.9356C44.1067 18.5883 43.8419 20.3671 43.9816 22.1372C44.1214 23.9074 44.662 25.6225 45.5625 27.1529C46.4631 28.6832 47.6999 29.9887 49.1796 30.9704C50.6592 31.9521 52.3427 32.5843 54.1028 32.8192C55.8628 33.0542 57.6532 32.8856 59.3385 32.3263C61.0238 31.7671 62.5598 30.8317 63.8302 29.5912C65.1006 28.3506 66.0721 26.8372 66.6712 25.1657H61.4366C60.7537 25.1761 60.0944 24.9164 59.6021 24.443Z" fill="#B9D4E0"/>
<path d="M51.6715 52.6359L40.0904 64.2171C39.8475 64.4603 39.6553 64.7494 39.5248 65.0674C39.3944 65.3855 39.3284 65.7263 39.3306 66.07V71.0036C39.3279 71.3474 39.3937 71.6884 39.5241 72.0065C39.6546 72.3246 39.8471 72.6136 40.0904 72.8566L44.2596 77.0258C44.5025 77.2691 44.7915 77.4616 45.1097 77.592C45.4278 77.7225 45.7687 77.7882 46.1126 77.7855H51.9124C52.9346 76.4268 54.2027 75.2719 55.6508 74.3807L59.82 71.805C61.0252 71.0639 62.0204 70.0263 62.7106 68.7912C63.4007 67.5561 63.7628 66.1647 63.7622 64.7498V53.5671C63.7617 53.0022 63.7308 52.4378 63.6695 51.8762H53.5059C53.1652 51.8759 52.8278 51.9429 52.513 52.0733C52.1982 52.2036 51.9123 52.3949 51.6715 52.6359Z" fill="#B9D4E0"/>
<path d="M32.0764 58.6212L39.2196 51.4919C39.4625 51.2486 39.6547 50.9596 39.7851 50.6415C39.9155 50.3235 39.9815 49.9827 39.9793 49.6389V45.3678C39.9815 45.024 39.9155 44.6833 39.7851 44.3652C39.6547 44.0471 39.4625 43.7581 39.2196 43.5148L36.7597 41.0967C35.5205 42.1948 34.4621 43.4814 33.6236 44.9092L25.1138 59.3671H30.2419C30.9278 59.3703 31.5873 59.1022 32.0764 58.6212Z" fill="#B9D4E0"/>
<path d="M58.6526 41.8839C55.8056 38.9663 51.9446 37.2568 47.8707 37.1101C43.7968 36.9635 39.8229 38.391 36.7735 41.0964L39.2195 43.5377C39.4623 43.781 39.6546 44.07 39.785 44.3881C39.9154 44.7061 39.9814 45.0469 39.9792 45.3907V49.6386C39.9814 49.9824 39.9154 50.3232 39.785 50.6412C39.6546 50.9593 39.4623 51.2484 39.2195 51.4916L32.0762 58.6348C31.833 58.8777 31.5439 59.07 31.2259 59.2004C30.9078 59.3308 30.567 59.3968 30.2232 59.3946H25.1136L23.7471 61.7108C23.0729 62.8558 22.7801 64.1853 22.9108 65.5076C23.0415 66.8298 23.5891 68.0763 24.4744 69.0671L27.189 72.1014C28.3983 73.4572 29.3412 75.0288 29.9685 76.7338L31.7195 81.4913H49.8602L50.3234 80.449C50.7432 79.5107 51.2685 78.6233 51.8892 77.8039H46.0894C45.7455 77.8066 45.4046 77.7409 45.0865 77.6104C44.7683 77.48 44.4794 77.2875 44.2364 77.0442L40.0672 72.875C39.8239 72.632 39.6314 72.3431 39.501 72.0249C39.3705 71.7068 39.3047 71.3658 39.3075 71.022V66.0653C39.3053 65.7215 39.3713 65.3808 39.5017 65.0627C39.6321 64.7446 39.8243 64.4556 40.0672 64.2123L51.6483 52.6312C51.8913 52.3879 52.1802 52.1954 52.4984 52.065C52.8165 51.9345 53.1575 51.8688 53.5013 51.8715H63.6556C63.2745 48.3398 61.722 45.0374 59.2455 42.4908L58.6526 41.8839Z" fill="#DAE1E5"/>
<path d="M208.003 51.186L212.139 55.3228C212.383 55.5657 212.672 55.7579 212.99 55.8883C213.308 56.0187 213.649 56.0847 213.992 56.0825H216.244C216.783 53.6331 216.366 51.0702 215.079 48.9177C213.792 46.7652 211.731 45.1855 209.318 44.5014C208.647 44.3123 207.957 44.1943 207.261 44.1493V49.3376C207.257 49.6794 207.32 50.0187 207.447 50.3359C207.574 50.6531 207.763 50.9421 208.003 51.186Z" fill="#B9D4E0"/>
<path d="M198.654 56.1244C198.656 55.7803 198.589 55.4394 198.458 55.1214C198.326 54.8033 198.133 54.5144 197.89 54.2714L196.648 53.0299L195.606 56.7359C195.26 57.9537 195.178 59.2314 195.365 60.4835L197.89 57.9542C198.377 57.4695 198.652 56.8115 198.654 56.1244Z" fill="#B9D4E0"/>
<path d="M213.974 56.0825C213.63 56.0848 213.289 56.0187 212.971 55.8883C212.653 55.7579 212.364 55.5657 212.121 55.3228L207.984 51.186C207.741 50.9431 207.548 50.6541 207.418 50.336C207.287 50.0178 207.222 49.6769 207.224 49.3331V44.1447C204.979 44.002 202.752 44.6325 200.915 45.9313C199.077 47.2301 197.74 49.1188 197.126 51.2833L196.63 53.0205L197.871 54.262C198.113 54.5023 198.305 54.788 198.437 55.1029C198.568 55.4177 198.635 55.7554 198.635 56.0964C198.635 56.4375 198.568 56.7751 198.437 57.09C198.305 57.4048 198.113 57.6906 197.871 57.9309L195.347 60.4602C195.56 61.8915 196.117 63.2496 196.971 64.4179C197.825 65.5863 198.95 66.5299 200.249 67.1677C201.548 67.8056 202.982 68.1186 204.429 68.0799C205.875 68.0412 207.291 67.652 208.554 66.9456L210.782 65.6995C211.807 65.1273 212.71 64.3585 213.438 63.4373C214.166 62.516 214.705 61.4603 215.025 60.3305L216.072 56.6245C216.128 56.4253 216.165 56.2261 216.207 56.0316L213.974 56.0825Z" fill="#DAE1E5"/>
<path d="M190.455 68.4697C189.163 68.4696 187.886 68.7558 186.718 69.3077C185.549 69.8595 184.517 70.6634 183.696 71.6615L188.014 75.9789C188.257 76.2218 188.546 76.414 188.864 76.5445C189.182 76.6749 189.523 76.7409 189.867 76.7387H193.411C193.754 76.7364 194.095 76.8024 194.413 76.9329C194.731 77.0633 195.02 77.2555 195.263 77.4984L196.524 78.763C196.766 79.0063 197.055 79.1988 197.374 79.3293C197.692 79.4597 198.033 79.5255 198.377 79.5228H198.895C199.107 78.7688 199.214 77.9895 199.215 77.2065C199.211 74.8865 198.286 72.6629 196.644 71.0246C195.001 69.3862 192.775 68.4673 190.455 68.4697Z" fill="#B9D4E0"/>
<path d="M196.486 78.7629L195.226 77.4983C194.983 77.2554 194.694 77.0632 194.376 76.9327C194.058 76.8023 193.717 76.7363 193.373 76.7385H189.829C189.486 76.7408 189.145 76.6747 188.827 76.5443C188.509 76.4139 188.22 76.2217 187.976 75.9788L183.659 71.6614C182.832 72.6681 182.24 73.8469 181.927 75.1116C181.614 76.3763 181.588 77.695 181.849 78.9713C182.111 80.2476 182.655 81.4492 183.441 82.4884C184.227 83.5277 185.235 84.3782 186.391 84.9779C187.548 85.5775 188.824 85.9112 190.126 85.9545C191.428 85.9978 192.724 85.7497 193.918 85.2281C195.112 84.7066 196.174 83.9249 197.027 82.9402C197.88 81.9555 198.503 80.7926 198.849 79.5365H198.284C197.606 79.5237 196.961 79.2459 196.486 78.7629Z" fill="#DAE1E5"/>
<path d="M203.695 86.819C203.633 86.8178 203.571 86.8053 203.514 86.7819C203.401 86.7339 203.312 86.6431 203.266 86.5293C203.22 86.4155 203.221 86.2881 203.268 86.1751C204.493 83.246 206.128 80.5056 208.123 78.0359C214.201 70.5267 222.067 67.7703 227.811 65.7552C232.337 64.1709 235.608 63.0221 236.15 60.4742C236.645 58.07 234.213 56.305 230.188 53.3125C226.644 50.7044 221.789 47.1282 216.8 41.4164C210.616 34.3519 207.558 27.9128 205.103 22.7291C202.421 17.0682 200.651 13.3252 196.505 12.5377C191.873 11.6482 186.314 14.928 179.958 22.2658C179.877 22.3592 179.763 22.4168 179.64 22.4259C179.517 22.435 179.396 22.3949 179.302 22.3145C179.209 22.234 179.152 22.1197 179.142 21.9968C179.133 21.8739 179.173 21.7523 179.254 21.659C185.841 14.0525 191.706 10.6754 196.676 11.6251C201.286 12.5052 203.241 16.6281 205.941 22.3353C208.373 27.4634 211.398 33.8469 217.476 40.8049C222.4 46.4426 227.204 49.9818 230.716 52.5667C234.885 55.6426 237.664 57.6623 237.039 60.6595C236.409 63.7262 232.754 65.0094 228.117 66.6308C222.479 68.6088 214.752 71.3142 208.841 78.6149C206.904 81.0192 205.315 83.6843 204.121 86.5318C204.086 86.6164 204.027 86.6888 203.951 86.7399C203.875 86.791 203.786 86.8185 203.695 86.819Z" fill="#433748"/>
<path d="M180.685 83.2658C180.589 83.2651 180.495 83.2344 180.417 83.1779C180.339 83.1214 180.28 83.0421 180.25 82.9508C175.793 69.8827 175.867 60.1267 180.472 53.9609C184.076 49.1293 189.431 47.7442 194.605 46.41C200.063 45.0203 205.723 43.5472 209.49 38.0716C213.969 31.5862 215.048 20.5378 209.726 15.9888C204.63 11.6389 192.998 13.3205 183.784 22.7568C183.698 22.8446 183.581 22.8947 183.458 22.896C183.335 22.8973 183.216 22.8497 183.129 22.7637C183.041 22.6777 182.991 22.5603 182.989 22.4374C182.988 22.3145 183.036 22.1961 183.122 22.1082C192.683 12.3013 204.894 10.6615 210.314 15.2846C215.994 20.1394 214.947 31.8039 210.24 38.5997C206.256 44.3625 200.442 45.8634 194.823 47.3134C189.57 48.666 184.632 49.9492 181.199 54.5168C176.789 60.4278 176.761 69.8966 181.111 82.659C181.151 82.7751 181.143 82.9022 181.089 83.0125C181.035 83.1228 180.94 83.2073 180.824 83.2473C180.779 83.259 180.732 83.2652 180.685 83.2658Z" fill="#433748"/>
<path d="M56.9617 12.7737H56.9154C56.8548 12.7674 56.7961 12.7492 56.7426 12.7201C56.6891 12.691 56.6419 12.6517 56.6036 12.6044C56.5653 12.5571 56.5367 12.5027 56.5195 12.4443C56.5022 12.3859 56.4967 12.3247 56.5031 12.2642C57.1516 5.77874 62.3122 0.539441 68.5057 0.039137C73.7311 -0.382416 78.8917 2.63331 81.3515 7.54833C81.3793 7.60301 81.3959 7.66265 81.4005 7.72381C81.405 7.78496 81.3974 7.8464 81.378 7.90458C81.3586 7.96275 81.3278 8.0165 81.2875 8.0627C81.2472 8.1089 81.1981 8.14663 81.1431 8.17371C81.0331 8.22833 80.9059 8.23705 80.7896 8.19796C80.6732 8.15887 80.577 8.07517 80.5223 7.96526C78.2061 3.37913 73.43 0.553338 68.5799 0.960993C62.8264 1.42424 58.0318 6.33 57.4249 12.3568C57.4134 12.4715 57.3596 12.5777 57.2739 12.6548C57.1882 12.7319 57.0769 12.7743 56.9617 12.7737Z" fill="#433748"/>
<path d="M25.0349 86.6615C24.983 86.6624 24.9313 86.6545 24.882 86.6383C21.8477 85.5589 20.0318 84.0534 19.4944 82.1587C18.9154 80.1204 20.0411 78.4528 21.1297 76.8453C21.711 76.0523 22.2034 75.1979 22.5982 74.2974C24.3817 69.665 19.7075 64.384 15.1863 59.2559C10.8179 54.3084 6.3105 49.1757 7.60295 44.5432C8.31172 42 10.7067 39.6236 14.1764 38.0254C18.883 35.8528 24.3678 35.7092 28.4768 37.6085C32.9285 39.6792 35.1753 43.7742 36.1203 46.0349C36.1676 46.1485 36.1678 46.2763 36.1209 46.3901C36.074 46.5039 35.9838 46.5944 35.8701 46.6417C35.7565 46.689 35.6287 46.6893 35.5149 46.6423C35.4011 46.5954 35.3106 46.5052 35.2633 46.3916C34.3739 44.256 32.2568 40.3694 28.083 38.4469C24.2103 36.6449 19.0312 36.807 14.5655 38.8685C11.3923 40.3277 9.1224 42.5466 8.49702 44.7934C7.33427 48.9626 11.6795 53.8869 15.8811 58.649C20.5831 63.9995 25.4518 69.489 23.4598 74.6541C23.0441 75.6211 22.5204 76.538 21.8987 77.3873C20.8379 78.9531 19.9253 80.3057 20.3885 81.9271C20.8518 83.5484 22.4546 84.8131 25.1924 85.7859C25.2499 85.8062 25.303 85.8376 25.3484 85.8784C25.3938 85.9192 25.4306 85.9685 25.4569 86.0236C25.4832 86.0787 25.4983 86.1385 25.5014 86.1995C25.5045 86.2604 25.4955 86.3214 25.4749 86.3789C25.4386 86.4648 25.3771 86.5378 25.2986 86.5882C25.2201 86.6386 25.1281 86.6642 25.0349 86.6615Z" fill="#433748"/>
<path d="M28.7407 83.4185C28.687 83.4184 28.6337 83.409 28.5832 83.3907C8.79803 76.039 -0.540984 69.9195 0.0241745 64.6849C0.329916 61.9054 3.26689 60.4879 7.00064 58.7229C11.559 56.5642 17.2337 53.8774 21.2454 47.5031C24.3075 42.6437 25.0301 37.5897 25.5582 33.9022C26.0632 30.3955 26.4245 27.8569 28.5137 27.528C33.0628 26.8007 39.5946 32.6746 41.7023 42.2453C41.7213 42.3621 41.6948 42.4818 41.6283 42.5797C41.5618 42.6776 41.4604 42.7464 41.3448 42.7719C41.2292 42.7974 41.1083 42.7776 41.0068 42.7168C40.9053 42.6559 40.8309 42.5584 40.799 42.4445C38.6959 32.9109 32.3123 27.8708 28.662 28.4406C27.2444 28.6676 26.9248 30.9189 26.4754 34.032C25.9335 37.8028 25.1969 42.9726 22.0329 47.9988C17.8637 54.6 11.8184 57.4675 7.39903 59.5799C3.79499 61.2846 1.19155 62.5169 0.946034 64.8053C0.436465 69.4887 9.84497 75.4599 28.9029 82.5429C29.0025 82.5823 29.0855 82.655 29.1376 82.7486C29.1897 82.8422 29.2077 82.951 29.1886 83.0565C29.1694 83.1619 29.1144 83.2575 29.0327 83.3269C28.951 83.3962 28.8479 83.4352 28.7407 83.437V83.4185Z" fill="#433748"/>
<path d="M52.5098 84.8085C52.4019 84.8087 52.2972 84.7713 52.214 84.7027C52.1307 84.634 52.074 84.5384 52.0537 84.4324C52.0334 84.3265 52.0507 84.2167 52.1027 84.1221C52.1547 84.0275 52.238 83.9541 52.3384 83.9144C61.6033 80.3104 67.1622 75.5297 68.8948 69.7021C71.0998 62.2206 66.6943 54.0351 63.1552 47.4663C60.2089 42 57.8881 37.6826 60.0375 35.2552C61.6033 33.4856 64.4013 34.0507 67.6394 34.7039C71.4055 35.4683 75.672 36.3299 79.2761 33.9396C82.6114 31.7252 84.5154 27.2225 84.9369 20.5518C84.9409 20.491 84.9568 20.4315 84.9837 20.3768C85.0106 20.3221 85.0481 20.2733 85.0939 20.233C85.1397 20.1928 85.193 20.162 85.2507 20.1424C85.3084 20.1228 85.3694 20.1147 85.4303 20.1187C85.4911 20.1226 85.5506 20.1385 85.6053 20.1654C85.66 20.1924 85.7088 20.2298 85.749 20.2756C85.7892 20.3214 85.82 20.3747 85.8397 20.4324C85.8593 20.4902 85.8674 20.5512 85.8634 20.612C85.4233 27.5838 83.3804 32.3275 79.7856 34.7132C75.8666 37.3166 71.2017 36.3716 67.4541 35.6119C64.4986 35.0143 61.9461 34.4955 60.7324 35.8667C59.0091 37.8123 61.3068 42.0834 63.9751 47.0262C67.593 53.7525 72.1004 62.1234 69.7888 69.9707C67.9868 76.0902 62.2287 81.0886 52.6812 84.7946C52.6252 84.8086 52.5673 84.8133 52.5098 84.8085Z" fill="#433748"/>
<path d="M178.563 86.3138C178.528 86.3182 178.492 86.3182 178.457 86.3138C176.233 85.7811 170.776 83.9976 168.191 78.9019C164.541 71.6938 169.581 63.5083 172.787 60.1868C178.601 54.1276 189.927 49.8379 201.1 54.7344C201.156 54.7588 201.207 54.7939 201.249 54.8378C201.292 54.8817 201.325 54.9335 201.347 54.9903C201.37 55.0471 201.381 55.1077 201.38 55.1687C201.379 55.2297 201.366 55.2899 201.341 55.3459C201.317 55.4019 201.282 55.4525 201.238 55.4949C201.194 55.5373 201.142 55.5706 201.085 55.593C201.029 55.6154 200.968 55.6263 200.907 55.6253C200.846 55.6242 200.786 55.6111 200.73 55.5868C189.973 50.8617 179.05 54.9938 173.454 60.8307C170.429 63.9854 165.579 71.7401 169.016 78.4804C171.429 83.2425 176.572 84.9195 178.67 85.429C178.793 85.4432 178.905 85.5055 178.982 85.6024C179.059 85.6992 179.094 85.8227 179.08 85.9455C179.066 86.0684 179.003 86.1806 178.907 86.2575C178.81 86.3344 178.686 86.3697 178.563 86.3555V86.3138Z" fill="#433748"/>
<path d="M42.8234 42.1712C42.9114 42.5325 42.2814 43.0004 41.4337 43.2135C40.5859 43.4266 39.7891 43.3154 39.6965 42.9587C39.6038 42.602 40.2385 42.1295 41.0862 41.9118C41.934 41.6941 42.7307 41.8145 42.8234 42.1712Z" fill="#433748"/>
<path d="M58.3514 12.8432C58.3051 13.2092 57.5454 13.413 56.6606 13.3065C55.7758 13.1999 55.0902 12.8015 55.1365 12.4309C55.1828 12.0603 55.9425 11.8611 56.832 11.9677C57.7214 12.0742 58.3977 12.4726 58.3514 12.8432Z" fill="#433748"/>
<path d="M87.0168 20.6026C86.9426 21.1956 86.1598 21.5801 85.275 21.4689C84.3902 21.3577 83.7324 20.7786 83.8065 20.1857C83.8806 19.5927 84.6635 19.2082 85.5529 19.3194C86.4423 19.4306 87.0955 19.9911 87.0168 20.6026Z" fill="#433748"/>
<path d="M181.241 21.9414C181.185 22.4047 180.416 22.6641 179.531 22.5483C178.647 22.4325 177.97 21.9785 178.031 21.5291C178.091 21.0798 178.855 20.8111 179.74 20.9223C180.625 21.0335 181.292 21.4921 181.241 21.9414Z" fill="#433748"/>
<path d="M200.748 56.7541C200.412 56.775 200.077 56.6921 199.789 56.5166C199.502 56.3411 199.275 56.0814 199.14 55.7728C199.004 55.4641 198.967 55.1213 199.033 54.7909C199.099 54.4604 199.265 54.1582 199.509 53.9251C199.752 53.692 200.061 53.5393 200.394 53.4877C200.727 53.436 201.068 53.488 201.37 53.6364C201.673 53.7849 201.923 54.0226 202.085 54.3176C202.248 54.6126 202.317 54.9505 202.281 55.2856C202.269 55.6825 202.102 56.0588 201.815 56.3335C201.528 56.6081 201.145 56.7592 200.748 56.7541Z" fill="#433748"/>
<path d="M82.4863 7.48352C82.6577 8.05795 82.0971 8.72502 81.2401 8.97981C80.3831 9.23459 79.5493 8.97981 79.3872 8.39612C79.225 7.81243 79.7763 7.15462 80.6333 6.89983C81.4903 6.64505 82.3195 6.91373 82.4863 7.48352Z" fill="#433748"/>
<path d="M37.1304 45.6733C37.3018 46.0022 36.7922 46.5998 36 47.0121C35.2079 47.4244 34.425 47.4753 34.2536 47.1603C34.0822 46.8453 34.5872 46.2338 35.3839 45.8215C36.1807 45.4092 36.959 45.3444 37.1304 45.6733Z" fill="#433748"/>
<path d="M26.04 65.1808C26.37 65.1808 26.6375 64.9132 26.6375 64.5832C26.6375 64.2531 26.37 63.9856 26.04 63.9856C25.7099 63.9856 25.4424 64.2531 25.4424 64.5832C25.4424 64.9132 25.7099 65.1808 26.04 65.1808Z" fill="#433748"/>
<path d="M58.6802 68.4743C58.6802 68.2911 58.7345 68.112 58.8363 67.9596C58.9381 67.8073 59.0828 67.6885 59.2521 67.6184C59.4214 67.5483 59.6077 67.5299 59.7874 67.5657C59.9671 67.6014 60.1322 67.6896 60.2618 67.8192C60.3914 67.9488 60.4796 68.1139 60.5154 68.2936C60.5511 68.4733 60.5327 68.6596 60.4626 68.8289C60.3925 68.9982 60.2738 69.1429 60.1214 69.2447C59.969 69.3465 59.7899 69.4008 59.6067 69.4008C59.3609 69.4008 59.1253 69.3032 58.9515 69.1295C58.7778 68.9557 58.6802 68.7201 58.6802 68.4743Z" fill="#433748"/>
<path d="M55.6876 44.5619C56.166 44.5619 56.5538 44.174 56.5538 43.6956C56.5538 43.2172 56.166 42.8293 55.6876 42.8293C55.2091 42.8293 54.8213 43.2172 54.8213 43.6956C54.8213 44.174 55.2091 44.5619 55.6876 44.5619Z" fill="#433748"/>
<path d="M60.7739 28.033C60.7739 27.8635 60.8242 27.6978 60.9184 27.5569C61.0125 27.416 61.1464 27.3061 61.303 27.2413C61.4596 27.1764 61.6319 27.1594 61.7981 27.1925C61.9644 27.2256 62.1171 27.3072 62.2369 27.427C62.3568 27.5469 62.4384 27.6996 62.4715 27.8658C62.5045 28.0321 62.4876 28.2044 62.4227 28.361C62.3578 28.5176 62.248 28.6514 62.1071 28.7456C61.9661 28.8398 61.8004 28.89 61.6309 28.89C61.4036 28.89 61.1857 28.7997 61.0249 28.639C60.8642 28.4783 60.7739 28.2603 60.7739 28.033Z" fill="#433748"/>
<path d="M45.9597 24.5171C46.2769 24.5171 46.5341 24.26 46.5341 23.9427C46.5341 23.6255 46.2769 23.3683 45.9597 23.3683C45.6424 23.3683 45.3853 23.6255 45.3853 23.9427C45.3853 24.26 45.6424 24.5171 45.9597 24.5171Z" fill="#433748"/>
<path d="M80.7631 22.511C81.1776 22.511 81.5136 22.1751 81.5136 21.7606C81.5136 21.3461 81.1776 21.0101 80.7631 21.0101C80.3487 21.0101 80.0127 21.3461 80.0127 21.7606C80.0127 22.1751 80.3487 22.511 80.7631 22.511Z" fill="#433748"/>
<path d="M100.72 23.3079C100.719 23.1508 100.765 22.997 100.851 22.866C100.938 22.7351 101.062 22.6328 101.207 22.5723C101.352 22.5118 101.511 22.4957 101.665 22.5261C101.819 22.5565 101.961 22.6321 102.072 22.7431C102.183 22.8542 102.259 22.9958 102.289 23.1498C102.319 23.3039 102.303 23.4636 102.243 23.6085C102.182 23.7535 102.08 23.8771 101.949 23.9638C101.818 24.0505 101.664 24.0963 101.507 24.0954C101.298 24.0954 101.098 24.0124 100.95 23.8647C100.803 23.717 100.72 23.5167 100.72 23.3079Z" fill="#433748"/>
<path d="M113.742 5.59358C113.744 5.40524 113.801 5.22166 113.907 5.06596C114.013 4.91025 114.163 4.78938 114.337 4.71857C114.512 4.64776 114.703 4.63018 114.888 4.66804C115.072 4.7059 115.242 4.79751 115.374 4.93133C115.507 5.06515 115.597 5.2352 115.633 5.42005C115.669 5.60491 115.649 5.79631 115.577 5.97014C115.504 6.14398 115.382 6.29247 115.225 6.39692C115.069 6.50138 114.884 6.55712 114.696 6.55713C114.57 6.55776 114.445 6.5332 114.328 6.48488C114.211 6.43656 114.105 6.36547 114.017 6.27574C113.928 6.18602 113.858 6.07947 113.81 5.96234C113.763 5.84521 113.74 5.71984 113.742 5.59358Z" fill="#433748"/>
<path d="M171.346 24.4477C171.82 24.4477 172.203 24.064 172.203 23.5906C172.203 23.1173 171.82 22.7336 171.346 22.7336C170.873 22.7336 170.489 23.1173 170.489 23.5906C170.489 24.064 170.873 24.4477 171.346 24.4477Z" fill="#433748"/>
<path d="M169.447 42.2316C170.15 42.2316 170.721 41.6612 170.721 40.9576C170.721 40.2541 170.15 39.6837 169.447 39.6837C168.743 39.6837 168.173 40.2541 168.173 40.9576C168.173 41.6612 168.743 42.2316 169.447 42.2316Z" fill="#433748"/>
<path d="M212.265 60.6364C212.689 60.6364 213.034 60.2921 213.034 59.8674C213.034 59.4427 212.689 59.0984 212.265 59.0984C211.84 59.0984 211.496 59.4427 211.496 59.8674C211.496 60.2921 211.84 60.6364 212.265 60.6364Z" fill="#433748"/>
<path d="M208.438 46.9844C208.438 46.8528 208.477 46.7242 208.551 46.615C208.624 46.5058 208.728 46.4209 208.85 46.3712C208.972 46.3215 209.106 46.3092 209.235 46.3359C209.364 46.3626 209.482 46.4271 209.574 46.5212C209.666 46.6152 209.728 46.7345 209.752 46.8639C209.776 46.9933 209.761 47.1269 209.708 47.2477C209.656 47.3685 209.569 47.471 209.458 47.5421C209.348 47.6131 209.218 47.6496 209.087 47.6469C208.913 47.6432 208.748 47.5718 208.627 47.448C208.506 47.3242 208.438 47.1577 208.438 46.9844Z" fill="#433748"/>
<path d="M191.789 83.7846C192.332 83.7846 192.771 83.3449 192.771 82.8025C192.771 82.2601 192.332 81.8204 191.789 81.8204C191.247 81.8204 190.807 82.2601 190.807 82.8025C190.807 83.3449 191.247 83.7846 191.789 83.7846Z" fill="#433748"/>
<path d="M184.549 75.8399C184.84 75.8399 185.077 75.6035 185.077 75.3118C185.077 75.0201 184.84 74.7837 184.549 74.7837C184.257 74.7837 184.021 75.0201 184.021 75.3118C184.021 75.6035 184.257 75.8399 184.549 75.8399Z" fill="#433748"/>
<path d="M204.209 67.1773C203.005 67.1602 201.831 66.802 200.822 66.1443C198.311 64.5369 197.297 61.6277 198.557 59.6589C199.817 57.6901 202.884 57.3936 205.394 59.0011C207.905 60.6085 208.92 63.5177 207.66 65.4865C207.274 66.0371 206.756 66.4811 206.152 66.7768C205.549 67.0725 204.88 67.2103 204.209 67.1773ZM201.994 58.9038C201.479 58.8739 200.966 58.9751 200.5 59.1979C200.035 59.4207 199.635 59.7578 199.335 60.1777C198.353 61.7157 199.243 64.0504 201.323 65.38C203.403 66.7095 205.895 66.5427 206.881 65.0047C207.868 63.4668 206.974 61.132 204.894 59.7979C204.032 59.2317 203.026 58.9216 201.994 58.9038Z" fill="white"/>
<path d="M204.76 65.4631C205.23 64.7923 205.415 63.962 205.273 63.155C205.132 62.3479 204.675 61.6302 204.005 61.1596C203.702 60.9432 203.361 60.7861 202.999 60.6963C202.392 60.5406 201.752 60.5733 201.163 60.7901C200.575 61.0069 200.067 61.3975 199.706 61.91L196.139 66.9826L201.081 70.6885L204.76 65.4631Z" fill="#433748"/>
<path d="M156.388 45.6179C155.515 45.5757 154.663 45.3382 153.894 44.9229C153.125 44.5076 152.459 43.9251 151.945 43.2183C150.116 40.8604 150.134 37.7798 151.982 36.3484C153.831 34.917 156.819 35.6628 158.644 38.0207C160.469 40.3786 160.455 43.4546 158.607 44.8906C157.969 45.3745 157.188 45.6306 156.388 45.6179ZM154.211 36.5383C153.611 36.5281 153.026 36.7189 152.548 37.0803C151.107 38.2014 151.158 40.6983 152.677 42.6393C154.197 44.5803 156.596 45.2659 158.037 44.1494C159.478 43.033 159.427 40.5269 157.912 38.5905C157.486 37.9953 156.933 37.5023 156.292 37.1474C155.652 36.7924 154.941 36.5844 154.211 36.5383Z" fill="white"/>
<path d="M157.351 42.565C157.491 42.1751 157.551 41.761 157.528 41.3473C157.505 40.9337 157.398 40.529 157.216 40.1572C157.033 39.7855 156.777 39.4543 156.463 39.1834C156.15 38.9125 155.785 38.7075 155.391 38.5804C154.997 38.4533 154.581 38.4068 154.168 38.4437C153.755 38.4805 153.354 38.6 152.989 38.795C152.623 38.99 152.301 39.2565 152.04 39.5786C151.78 39.9008 151.587 40.2721 151.473 40.6703L149.485 46.8593L155.318 48.8976L157.351 42.565Z" fill="#433748"/>
<path d="M119.189 20.8574C119.065 20.4717 118.867 20.1143 118.604 19.8054C118.342 19.4966 118.022 19.2424 117.661 19.0574C117.301 18.8725 116.907 18.7603 116.503 18.7274C116.1 18.6944 115.693 18.7414 115.307 18.8655C114.952 18.9807 114.619 19.158 114.325 19.3889C113.836 19.781 113.477 20.3124 113.296 20.9129C113.114 21.5134 113.12 22.1547 113.311 22.7521L115.28 28.8669L121.26 27.2919L119.189 20.8574Z" fill="#433748"/>
<path d="M77.4465 18.884C76.459 18.8613 75.5149 18.4735 74.7967 17.7954C73.806 16.8702 73.1441 15.6471 72.9113 14.3118C72.3508 11.3841 73.7637 8.64627 76.0567 8.20619C76.6483 8.10865 77.2545 8.15131 77.8265 8.33073C78.3986 8.51015 78.9205 8.82133 79.3504 9.23923C80.3401 10.1626 81.0006 11.3844 81.2312 12.7182C81.7917 15.6459 80.3788 18.3837 78.0858 18.8238C77.875 18.864 77.661 18.8841 77.4465 18.884ZM76.696 9.07246C76.5404 9.07182 76.3852 9.08734 76.2328 9.11878C74.44 9.46159 73.356 11.713 73.8193 14.1404C74.0154 15.2761 74.5765 16.317 75.4175 17.1051C75.7416 17.4256 76.1362 17.6658 76.5698 17.8065C77.0033 17.9473 77.4638 17.9847 77.9144 17.9158C79.7071 17.573 80.7911 15.317 80.3279 12.8942C80.133 11.758 79.5717 10.7168 78.7297 9.92946C78.1814 9.40171 77.4567 9.09631 76.696 9.07246Z" fill="white"/>
<path d="M78.8731 12.9545C78.7819 12.5591 78.6137 12.1855 78.378 11.855C78.1424 11.5246 77.844 11.2438 77.4999 11.0287C77.1558 10.8137 76.7726 10.6685 76.3723 10.6015C75.9721 10.5345 75.5626 10.547 75.1671 10.6383L67.9961 12.3245L69.6499 18.2957L76.5986 16.6651C77.3911 16.4728 78.0754 15.9746 78.5016 15.2792C78.9278 14.5839 79.0614 13.7481 78.8731 12.9545Z" fill="#433748"/>
<path d="M54.1774 31.9428C53.6661 31.9426 53.1564 31.8851 52.6579 31.7714C51.3309 31.4919 50.1319 30.7858 49.2438 29.761C48.8399 29.3187 48.5456 28.7876 48.3847 28.2107C48.2237 27.6337 48.2007 27.027 48.3173 26.4395C48.8362 24.1603 51.6249 22.8401 54.5294 23.5025C55.8564 23.7821 57.0555 24.4882 57.9435 25.513C58.3475 25.9553 58.6418 26.4864 58.8027 27.0633C58.9636 27.6403 58.9867 28.247 58.87 28.8345C58.7224 29.4154 58.4406 29.9535 58.0471 30.4057C57.6537 30.8579 57.1597 31.2114 56.6048 31.4379C55.8407 31.7767 55.0132 31.9489 54.1774 31.9428ZM53.0193 24.2576C51.1431 24.2576 49.5635 25.1841 49.2299 26.6433C49.1462 27.0914 49.1679 27.5527 49.2933 27.9909C49.4188 28.4291 49.6445 28.8321 49.9526 29.168C50.7248 30.0185 51.7396 30.6114 52.8597 30.8666C53.9798 31.1217 55.1512 31.0269 56.2156 30.5948C56.6397 30.4262 57.0184 30.1607 57.3217 29.8197C57.6249 29.4787 57.8442 29.0715 57.9621 28.6306C58.0463 28.1823 58.0244 27.7204 57.8981 27.282C57.7718 26.8436 57.5446 26.4408 57.2348 26.106C56.4777 25.2379 55.4578 24.641 54.3302 24.4059C53.9001 24.3079 53.4604 24.2582 53.0193 24.2576Z" fill="white"/>
<path d="M54.4233 25.9575C54.044 25.8139 53.6402 25.7465 53.2348 25.7592C52.8295 25.7718 52.4306 25.8643 52.061 26.0312C51.6914 26.1981 51.3584 26.4363 51.0809 26.7321C50.8035 27.0278 50.587 27.3754 50.444 27.7549L48.5679 32.7163L54.4511 34.6156L56.2207 29.9368C56.5094 29.1707 56.4822 28.3214 56.1452 27.5753C55.8082 26.8292 55.1889 26.2474 54.4233 25.9575Z" fill="#433748"/>
<path d="M105.95 16.4797H96.6476C95.7038 16.4461 94.8099 16.0475 94.1541 15.3679C93.4983 14.6883 93.1318 13.7807 93.1318 12.8363C93.1318 11.8919 93.4983 10.9843 94.1541 10.3047C94.8099 9.62513 95.7038 9.22653 96.6476 9.19287H105.95C106.893 9.22653 107.787 9.62513 108.443 10.3047C109.099 10.9843 109.465 11.8919 109.465 12.8363C109.465 13.7807 109.099 14.6883 108.443 15.3679C107.787 16.0475 106.893 16.4461 105.95 16.4797ZM96.6476 9.65612C95.8252 9.68751 95.0469 10.0363 94.4761 10.6293C93.9054 11.2222 93.5865 12.0133 93.5865 12.8363C93.5865 13.6593 93.9054 14.4503 94.4761 15.0433C95.0469 15.6363 95.8252 15.9851 96.6476 16.0165H105.95C106.772 15.9851 107.55 15.6363 108.121 15.0433C108.692 14.4503 109.011 13.6593 109.011 12.8363C109.011 12.0133 108.692 11.2222 108.121 10.6293C107.55 10.0363 106.772 9.68751 105.95 9.65612H96.6476Z" fill="#433748"/>
<path d="M164.814 37.1312C164.409 37.1313 164.007 37.064 163.624 36.932C163.17 36.7774 162.751 36.534 162.392 36.2158C162.034 35.8976 161.742 35.5112 161.534 35.079C161.117 34.2099 161.061 33.2112 161.378 32.3008C161.695 31.3904 162.359 30.6422 163.225 30.2196L171.564 26.1477C171.994 25.9381 172.461 25.8153 172.938 25.7863C173.416 25.7572 173.895 25.8225 174.347 25.9785C174.799 26.1344 175.216 26.3779 175.575 26.6951C175.933 27.0122 176.225 27.3968 176.435 27.8269C176.644 28.257 176.767 28.7242 176.796 29.2018C176.825 29.6793 176.76 30.1579 176.604 30.6102C176.448 31.0625 176.204 31.4797 175.887 31.8379C175.57 32.1961 175.185 32.4884 174.755 32.6979L166.417 36.7699C165.918 37.0132 165.369 37.137 164.814 37.1312ZM173.152 26.231C172.67 26.2304 172.195 26.3414 171.763 26.5553L163.415 30.6458C162.658 31.017 162.079 31.6728 161.805 32.4698C161.531 33.2668 161.583 34.14 161.951 34.8984C162.323 35.655 162.978 36.2341 163.775 36.5093C164.572 36.7844 165.445 36.7332 166.204 36.3668L174.542 32.2903C175.177 31.9691 175.686 31.4443 175.988 30.7998C176.29 30.1552 176.367 29.4281 176.207 28.7346C176.047 28.0412 175.659 27.4213 175.105 26.9742C174.552 26.5271 173.864 26.2785 173.152 26.2681V26.231Z" fill="#433748"/>
<path d="M41.2622 70.2717C40.4233 70.2693 39.598 70.0598 38.8595 69.6618C38.121 69.2638 37.4922 68.6897 37.0289 67.9904C36.5655 67.291 36.282 66.4881 36.2035 65.6529C36.125 64.8177 36.2539 63.976 36.5788 63.2026L41.7301 51.0285C41.9578 50.368 42.3188 49.7613 42.7908 49.2462C43.2629 48.7311 43.8358 48.3186 44.4739 48.0343C45.1121 47.75 45.802 47.5999 46.5006 47.5935C47.1992 47.587 47.8917 47.7243 48.535 47.9968C49.1784 48.2693 49.7588 48.6711 50.2402 49.1774C50.7217 49.6837 51.0939 50.2836 51.3337 50.9398C51.5735 51.596 51.6759 52.2945 51.6343 52.9919C51.5928 53.6893 51.4083 54.3708 51.0923 54.9939L50.8792 54.9012L51.0923 54.9939L45.941 67.1679C45.5508 68.0866 44.8994 68.8705 44.0676 69.4223C43.2359 69.9741 42.2604 70.2694 41.2622 70.2717ZM46.4135 48.388C45.5055 48.3892 44.6179 48.6573 43.861 49.1589C43.1041 49.6605 42.5113 50.3734 42.1563 51.2091L37.005 63.3878C36.63 64.4956 36.6878 65.7043 37.167 66.7711C37.6461 67.838 38.5111 68.6842 39.5882 69.1398C40.6654 69.5954 41.875 69.6267 42.9742 69.2274C44.0735 68.8282 44.9811 68.0279 45.5148 66.9873L50.6568 54.8086C50.9507 54.1061 51.067 53.342 50.9953 52.584C50.9235 51.8259 50.666 51.0972 50.2455 50.4624C49.8251 49.8275 49.2546 49.3061 48.5846 48.9443C47.9145 48.5825 47.1657 48.3914 46.4042 48.388H46.4135Z" fill="#433748"/>
<path d="M58.7961 114.53H73.1567C73.9344 114.529 74.6802 114.221 75.232 113.673L78.2987 110.602C78.4219 110.479 78.5058 110.323 78.5398 110.153C78.5739 109.983 78.5565 109.806 78.49 109.646C78.4235 109.485 78.3107 109.348 78.1661 109.252C78.0216 109.156 77.8516 109.105 77.678 109.106H54.2841C54.1105 109.105 53.9406 109.156 53.796 109.252C53.6514 109.348 53.5387 109.485 53.4721 109.646C53.4056 109.806 53.3882 109.983 53.4223 110.153C53.4563 110.323 53.5403 110.479 53.6634 110.602L56.7162 113.669C56.9891 113.942 57.3134 114.159 57.6703 114.307C58.0272 114.454 58.4098 114.53 58.7961 114.53Z" fill="#433748"/>
<path d="M103.272 68.3724C104.434 68.3724 105.375 67.4308 105.375 66.2693C105.375 65.1077 104.434 64.1661 103.272 64.1661C102.111 64.1661 101.169 65.1077 101.169 66.2693C101.169 67.4308 102.111 68.3724 103.272 68.3724Z" fill="#FF4949"/>
<path d="M105.375 72.9307C105.375 72.7255 105.436 72.5249 105.55 72.3542C105.664 72.1836 105.826 72.0506 106.016 71.9721C106.206 71.8935 106.414 71.873 106.616 71.913C106.817 71.953 107.002 72.0519 107.147 72.197C107.292 72.3421 107.391 72.527 107.431 72.7283C107.471 72.9296 107.45 73.1382 107.372 73.3278C107.293 73.5174 107.16 73.6795 106.99 73.7935C106.819 73.9075 106.618 73.9684 106.413 73.9684C106.138 73.9684 105.874 73.8591 105.679 73.6645C105.485 73.4699 105.375 73.2059 105.375 72.9307Z" fill="#FFB11B"/>
<path d="M95.8974 84.9518C97.8239 84.9518 99.3856 83.3901 99.3856 81.4636C99.3856 79.5371 97.8239 77.9753 95.8974 77.9753C93.9709 77.9753 92.4092 79.5371 92.4092 81.4636C92.4092 83.3901 93.9709 84.9518 95.8974 84.9518Z" fill="#00DFFF"/>
<path d="M108.15 81.2181C109.046 81.2181 109.772 80.4921 109.772 79.5967C109.772 78.7012 109.046 77.9753 108.15 77.9753C107.255 77.9753 106.529 78.7012 106.529 79.5967C106.529 80.4921 107.255 81.2181 108.15 81.2181Z" fill="#FF4949"/>
<path d="M134.361 89.2093C134.361 88.644 134.528 88.0914 134.843 87.6213C135.157 87.1513 135.603 86.785 136.125 86.5686C136.648 86.3523 137.222 86.2957 137.777 86.406C138.331 86.5163 138.84 86.7885 139.24 87.1882C139.64 87.588 139.912 88.0972 140.022 88.6517C140.133 89.2061 140.076 89.7808 139.86 90.3031C139.643 90.8254 139.277 91.2718 138.807 91.5858C138.337 91.8999 137.784 92.0675 137.219 92.0675C136.461 92.0675 135.734 91.7664 135.198 91.2304C134.662 90.6943 134.361 89.9673 134.361 89.2093Z" fill="#FFB11B"/>
<path d="M142.203 84.3451C142.202 84.0389 142.292 83.7393 142.462 83.4842C142.631 83.2292 142.872 83.0301 143.155 82.9123C143.438 82.7945 143.749 82.7632 144.049 82.8224C144.35 82.8816 144.626 83.0285 144.843 83.2447C145.06 83.4609 145.207 83.7366 145.268 84.0369C145.328 84.3372 145.297 84.6485 145.18 84.9315C145.063 85.2145 144.865 85.4564 144.61 85.6266C144.356 85.7968 144.057 85.8877 143.75 85.8877C143.341 85.8877 142.948 85.7253 142.658 85.4361C142.368 85.147 142.204 84.7546 142.203 84.3451Z" fill="#00DFFF"/>
<path d="M144.353 77.7439C144.353 77.5606 144.407 77.3815 144.509 77.2291C144.61 77.0768 144.755 76.958 144.924 76.8879C145.094 76.8178 145.28 76.7994 145.46 76.8352C145.64 76.8709 145.805 76.9592 145.934 77.0887C146.064 77.2183 146.152 77.3834 146.188 77.5631C146.223 77.7428 146.205 77.9291 146.135 78.0984C146.065 78.2677 145.946 78.4124 145.794 78.5142C145.641 78.616 145.462 78.6704 145.279 78.6704C145.033 78.6704 144.798 78.5727 144.624 78.399C144.45 78.2252 144.353 77.9896 144.353 77.7439Z" fill="#FF4949"/>
<path d="M124.077 56.8424C124.077 56.5868 124.152 56.3369 124.294 56.1243C124.437 55.9118 124.638 55.7461 124.875 55.6483C125.111 55.5505 125.371 55.5249 125.621 55.5748C125.872 55.6246 126.102 55.7477 126.283 55.9285C126.464 56.1092 126.587 56.3395 126.637 56.5902C126.687 56.8409 126.661 57.1008 126.563 57.337C126.465 57.5731 126.3 57.775 126.087 57.917C125.875 58.059 125.625 58.1348 125.369 58.1348C125.199 58.1348 125.031 58.1014 124.875 58.0364C124.718 57.9715 124.575 57.8763 124.455 57.7563C124.335 57.6363 124.24 57.4938 124.175 57.337C124.11 57.1802 124.077 57.0121 124.077 56.8424Z" fill="#FFB11B"/>
<path d="M116.025 57.9633C116.335 57.9633 116.586 57.7124 116.586 57.4028C116.586 57.0932 116.335 56.8423 116.025 56.8423C115.716 56.8423 115.465 57.0932 115.465 57.4028C115.465 57.7124 115.716 57.9633 116.025 57.9633Z" fill="#00DFFF"/>
<path d="M109.359 97.3901C111.618 97.3901 113.449 95.5588 113.449 93.2997C113.449 91.0406 111.618 89.2092 109.359 89.2092C107.1 89.2092 105.269 91.0406 105.269 93.2997C105.269 95.5588 107.1 97.3901 109.359 97.3901Z" fill="#FFB11B"/>
<path d="M109.373 100.447C109.373 100.149 109.462 99.8568 109.628 99.6084C109.793 99.3601 110.029 99.1665 110.305 99.0522C110.581 98.9379 110.885 98.908 111.178 98.9663C111.471 99.0245 111.74 99.1684 111.951 99.3796C112.162 99.5908 112.306 99.8599 112.364 100.153C112.423 100.446 112.393 100.749 112.278 101.025C112.164 101.301 111.971 101.537 111.722 101.703C111.474 101.869 111.182 101.958 110.883 101.958C110.483 101.958 110.099 101.799 109.815 101.515C109.532 101.232 109.373 100.848 109.373 100.447Z" fill="#433748"/>
<path d="M115.511 100.447C115.511 100.149 115.6 99.8568 115.766 99.6084C115.932 99.3601 116.168 99.1665 116.443 99.0522C116.719 98.9379 117.023 98.908 117.316 98.9663C117.609 99.0245 117.878 99.1684 118.089 99.3796C118.3 99.5908 118.444 99.8599 118.503 100.153C118.561 100.446 118.531 100.749 118.417 101.025C118.302 101.301 118.109 101.537 117.86 101.703C117.612 101.869 117.32 101.958 117.021 101.958C116.621 101.958 116.237 101.799 115.954 101.515C115.67 101.232 115.511 100.848 115.511 100.447Z" fill="#433748"/>
<path d="M121.663 100.447C121.663 100.149 121.752 99.8568 121.918 99.6084C122.084 99.3601 122.319 99.1665 122.595 99.0522C122.871 98.9379 123.175 98.908 123.468 98.9663C123.761 99.0245 124.03 99.1684 124.241 99.3796C124.452 99.5908 124.596 99.8599 124.654 100.153C124.713 100.446 124.683 100.749 124.568 101.025C124.454 101.301 124.261 101.537 124.012 101.703C123.764 101.869 123.472 101.958 123.173 101.958C122.773 101.958 122.389 101.799 122.105 101.515C121.822 101.232 121.663 100.848 121.663 100.447Z" fill="#433748"/>
<path d="M127.81 100.447C127.81 100.149 127.899 99.8568 128.065 99.6084C128.231 99.3601 128.466 99.1665 128.742 99.0522C129.018 98.9379 129.322 98.908 129.615 98.9663C129.908 99.0245 130.177 99.1684 130.388 99.3796C130.599 99.5908 130.743 99.8599 130.801 100.153C130.86 100.446 130.83 100.749 130.715 101.025C130.601 101.301 130.408 101.537 130.159 101.703C129.911 101.869 129.619 101.958 129.32 101.958C128.92 101.958 128.536 101.799 128.252 101.515C127.969 101.232 127.81 100.848 127.81 100.447Z" fill="#433748"/>
<path d="M113.941 105.951C114.775 105.951 115.451 105.275 115.451 104.441C115.451 103.607 114.775 102.931 113.941 102.931C113.107 102.931 112.431 103.607 112.431 104.441C112.431 105.275 113.107 105.951 113.941 105.951Z" fill="#433748"/>
<path d="M120.088 105.951C120.922 105.951 121.598 105.275 121.598 104.441C121.598 103.607 120.922 102.931 120.088 102.931C119.254 102.931 118.578 103.607 118.578 104.441C118.578 105.275 119.254 105.951 120.088 105.951Z" fill="#433748"/>
<path d="M126.231 105.951C127.065 105.951 127.741 105.275 127.741 104.441C127.741 103.607 127.065 102.931 126.231 102.931C125.397 102.931 124.721 103.607 124.721 104.441C124.721 105.275 125.397 105.951 126.231 105.951Z" fill="#433748"/>
<path d="M122.65 97.3901C122.651 97.1081 122.735 96.8327 122.893 96.5986C123.05 96.3646 123.273 96.1825 123.534 96.0752C123.795 95.9679 124.081 95.9403 124.358 95.9959C124.634 96.0515 124.888 96.1877 125.087 96.3874C125.286 96.5872 125.422 96.8414 125.476 97.118C125.531 97.3947 125.503 97.6813 125.394 97.9418C125.286 98.2022 125.103 98.4248 124.869 98.5813C124.634 98.7379 124.359 98.8215 124.077 98.8215C123.889 98.8215 123.703 98.7844 123.53 98.7124C123.356 98.6404 123.199 98.5349 123.066 98.4019C122.934 98.269 122.829 98.1111 122.757 97.9375C122.686 97.7639 122.649 97.5778 122.65 97.3901Z" fill="#00DFFF"/>
<path d="M68.1583 104.672H34.763C34.1392 104.671 33.5414 104.423 33.1003 103.982C32.6592 103.541 32.4109 102.943 32.4097 102.319V101.105C32.4097 100.481 32.6576 99.8827 33.0989 99.4413C33.5403 99 34.1388 98.7521 34.763 98.7521H68.1583C68.7824 98.7521 69.381 99 69.8223 99.4413C70.2636 99.8827 70.5116 100.481 70.5116 101.105V102.319C70.5103 102.943 70.262 103.541 69.8209 103.982C69.3799 104.423 68.782 104.671 68.1583 104.672ZM34.763 99.2061C34.2617 99.2061 33.7809 99.4052 33.4265 99.7596C33.072 100.114 32.8729 100.595 32.8729 101.096V102.31C32.8729 102.811 33.072 103.292 33.4265 103.646C33.7809 104.001 34.2617 104.2 34.763 104.2H68.1583C68.6595 104.2 69.1403 104.001 69.4947 103.646C69.8492 103.292 70.0483 102.811 70.0483 102.31V101.105C70.0483 100.604 69.8492 100.123 69.4947 99.7689C69.1403 99.4144 68.6595 99.2153 68.1583 99.2153L34.763 99.2061Z" fill="#433748"/>
<path d="M79.5956 104.672H74.7454C74.1217 104.671 73.5238 104.423 73.0828 103.982C72.6417 103.541 72.3934 102.943 72.3922 102.319V100.929C72.3897 100.619 72.4488 100.311 72.5659 100.023C72.6831 99.7353 72.8561 99.4737 73.0748 99.2532C73.2936 99.0327 73.5539 98.8577 73.8406 98.7383C74.1273 98.6188 74.4348 98.5574 74.7454 98.5574H79.5864C80.2105 98.5574 80.809 98.8053 81.2504 99.2466C81.6917 99.688 81.9396 100.287 81.9396 100.911V102.3C81.9415 102.61 81.8823 102.917 81.7655 103.204C81.6487 103.491 81.4765 103.752 81.2589 103.972C81.0412 104.192 80.7823 104.367 80.4969 104.487C80.2115 104.608 79.9053 104.67 79.5956 104.672ZM74.7454 99.0206C74.2442 99.0206 73.7634 99.2197 73.409 99.5742C73.0545 99.9286 72.8554 100.409 72.8554 100.911V102.3C72.853 102.55 72.9 102.798 72.9939 103.029C73.0878 103.261 73.2266 103.471 73.4024 103.649C73.5781 103.826 73.7873 103.967 74.0178 104.063C74.2484 104.159 74.4957 104.209 74.7454 104.209H79.5864C80.0876 104.209 80.5684 104.01 80.9228 103.655C81.2773 103.301 81.4764 102.82 81.4764 102.319V100.929C81.4764 100.428 81.2773 99.9472 80.9228 99.5927C80.5684 99.2383 80.0876 99.0392 79.5864 99.0392L74.7454 99.0206Z" fill="#433748"/>
<path d="M205.274 104.478H171.879C171.255 104.476 170.657 104.228 170.216 103.787C169.775 103.346 169.527 102.748 169.525 102.124V100.911C169.525 100.287 169.773 99.688 170.215 99.2466C170.656 98.8053 171.255 98.5574 171.879 98.5574H205.274C205.898 98.5574 206.497 98.8053 206.938 99.2466C207.379 99.688 207.627 100.287 207.627 100.911V102.124C207.626 102.748 207.378 103.346 206.937 103.787C206.496 104.228 205.898 104.476 205.274 104.478ZM171.879 99.0206C171.377 99.0206 170.897 99.2197 170.542 99.5742C170.188 99.9286 169.989 100.409 169.989 100.911V102.124C169.989 102.626 170.188 103.106 170.542 103.461C170.897 103.815 171.377 104.014 171.879 104.014H205.274C205.775 104.014 206.256 103.815 206.61 103.461C206.965 103.106 207.164 102.626 207.164 102.124V100.911C207.164 100.409 206.965 99.9286 206.61 99.5742C206.256 99.2197 205.775 99.0206 205.274 99.0206H171.879Z" fill="#433748"/>
<path d="M165.282 104.672H160.446C159.822 104.671 159.224 104.423 158.783 103.982C158.342 103.541 158.094 102.943 158.092 102.319V100.929C158.09 100.619 158.149 100.311 158.266 100.023C158.383 99.7353 158.556 99.4737 158.775 99.2532C158.994 99.0327 159.254 98.8577 159.541 98.7383C159.828 98.6188 160.135 98.5574 160.446 98.5574H165.287C165.911 98.5574 166.509 98.8053 166.951 99.2466C167.392 99.688 167.64 100.287 167.64 100.911V102.3C167.642 102.611 167.582 102.919 167.464 103.207C167.347 103.495 167.173 103.756 166.954 103.977C166.735 104.197 166.474 104.372 166.187 104.491C165.901 104.611 165.593 104.672 165.282 104.672ZM160.446 99.0206C159.944 99.0206 159.464 99.2197 159.109 99.5742C158.755 99.9286 158.556 100.409 158.556 100.911V102.3C158.553 102.55 158.6 102.798 158.694 103.029C158.788 103.261 158.927 103.471 159.103 103.649C159.278 103.826 159.488 103.967 159.718 104.063C159.949 104.159 160.196 104.209 160.446 104.209H165.287C165.535 104.209 165.781 104.16 166.01 104.065C166.239 103.97 166.448 103.831 166.623 103.655C166.799 103.48 166.938 103.272 167.033 103.042C167.128 102.813 167.177 102.567 167.177 102.319V100.929C167.177 100.681 167.128 100.435 167.033 100.206C166.938 99.9766 166.799 99.7682 166.623 99.5927C166.448 99.4172 166.239 99.278 166.01 99.183C165.781 99.088 165.535 99.0392 165.287 99.0392L160.446 99.0206Z" fill="#433748"/>
<path d="M137.39 183.327H130.798C130.594 183.327 130.399 183.246 130.255 183.101C130.11 182.957 130.029 182.762 130.029 182.558C130.029 182.354 130.11 182.158 130.255 182.014C130.399 181.87 130.594 181.789 130.798 181.789H137.386C137.59 181.789 137.785 181.87 137.929 182.014C138.074 182.158 138.155 182.354 138.155 182.558C138.153 182.76 138.073 182.955 137.93 183.098C137.787 183.242 137.593 183.324 137.39 183.327Z" fill="#433748"/>
<path d="M137.39 186.444H130.798C130.697 186.444 130.597 186.424 130.504 186.386C130.411 186.347 130.326 186.291 130.255 186.219C130.183 186.148 130.126 186.063 130.088 185.97C130.049 185.876 130.029 185.776 130.029 185.675C130.029 185.471 130.11 185.276 130.255 185.132C130.399 184.987 130.594 184.906 130.798 184.906H137.386C137.59 184.906 137.785 184.987 137.929 185.132C138.074 185.276 138.155 185.471 138.155 185.675C138.153 185.878 138.073 186.072 137.93 186.216C137.787 186.36 137.593 186.442 137.39 186.444Z" fill="#433748"/>
<path d="M109.401 183.327H102.818C102.614 183.327 102.419 183.246 102.275 183.101C102.13 182.957 102.049 182.762 102.049 182.558C102.049 182.354 102.13 182.158 102.275 182.014C102.419 181.87 102.614 181.789 102.818 181.789H109.401C109.605 181.789 109.801 181.87 109.945 182.014C110.089 182.158 110.17 182.354 110.17 182.558C110.17 182.762 110.089 182.957 109.945 183.101C109.801 183.246 109.605 183.327 109.401 183.327Z" fill="#433748"/>
<path d="M109.401 186.444H102.818C102.717 186.444 102.617 186.424 102.524 186.386C102.431 186.347 102.346 186.291 102.275 186.219C102.203 186.148 102.146 186.063 102.108 185.97C102.069 185.876 102.049 185.776 102.049 185.675C102.049 185.471 102.13 185.276 102.275 185.132C102.419 184.987 102.614 184.906 102.818 184.906H109.401C109.605 184.906 109.801 184.987 109.945 185.132C110.089 185.276 110.17 185.471 110.17 185.675C110.17 185.879 110.089 186.075 109.945 186.219C109.801 186.363 109.605 186.444 109.401 186.444Z" fill="#433748"/>
<defs>
<linearGradient id="paint0_linear" x1="121.227" y1="132.411" x2="121.227" y2="38.9192" gradientUnits="userSpaceOnUse">
<stop/>
<stop offset="0.09" stop-color="#070400"/>
<stop offset="0.22" stop-color="#1C1000"/>
<stop offset="0.37" stop-color="#3D2300"/>
<stop offset="0.55" stop-color="#6B3E00"/>
<stop offset="0.75" stop-color="#A66000"/>
<stop offset="0.95" stop-color="#ED8900"/>
<stop offset="1" stop-color="#FF9300"/>
</linearGradient>
<linearGradient id="paint1_linear" x1="10517.7" y1="-77424.4" x2="12734.3" y2="-83704.9" gradientUnits="userSpaceOnUse">
<stop/>
<stop offset="0.09" stop-color="#070400"/>
<stop offset="0.22" stop-color="#1C1000"/>
<stop offset="0.37" stop-color="#3D2300"/>
<stop offset="0.55" stop-color="#6B3E00"/>
<stop offset="0.75" stop-color="#A66000"/>
<stop offset="0.95" stop-color="#ED8900"/>
<stop offset="1" stop-color="#FF9300"/>
</linearGradient>
</defs>
</svg>
