<svg width="193" height="58" viewBox="0 0 193 58" fill="none" xmlns="http://www.w3.org/2000/svg">
<path d="M17.002 4.65198e-07C14.7691 -0.000521907 12.558 0.438891 10.495 1.29314C8.43198 2.14738 6.55749 3.39972 4.9786 4.9786C3.39972 6.55749 2.14738 8.43198 1.29314 10.495C0.438891 12.558 -0.000521907 14.7691 4.65198e-07 17.002V40.998C4.65198e-07 45.5072 1.79128 49.8317 4.97977 53.0202C8.16826 56.2087 12.4928 58 17.002 58H28.998V4.65198e-07H17.002Z" fill="#2DA49B"/>
<path d="M58 40.998V17.002C58 12.4928 56.2088 8.16826 53.0203 4.97977C49.8318 1.79128 45.5073 0 40.998 0L28.998 0V58H40.998C45.5069 57.9989 49.8308 56.2073 53.0191 53.0191C56.2074 49.8308 57.999 45.5069 58 40.998Z" fill="#052460"/>
<path d="M15.1295 51.4552H9.09372L9.12156 46.2862C9.12156 46.2862 13.7697 46.2425 14.9983 46.2862C15.6319 46.2978 16.2643 46.2256 16.879 46.0715C18.2494 45.7265 19.4871 44.9835 20.4359 43.9361C21.3847 42.8888 22.0022 41.584 22.2105 40.1863C22.4189 38.7885 22.2088 37.3603 21.6067 36.0818C21.0046 34.8033 20.0375 33.7316 18.8273 33.0019L12.9943 29.3836C10.1989 27.6925 8.18749 24.9626 7.40052 21.7916C6.61356 18.6206 7.11516 15.267 8.79551 12.4651C9.78074 10.7726 11.1612 9.34383 12.8189 8.30103C14.4766 7.25823 16.3622 6.6324 18.3144 6.47705H36.5212C36.7915 6.47705 43.1653 6.77129 46.6206 12.5287C48.3046 15.3351 48.8054 18.6954 48.0128 21.8709C47.2202 25.0464 45.1992 27.7772 42.3939 29.4631L38.8154 31.6818L50.6802 51.4472H44.6007L33.0023 32.159L33.8651 28.6043L39.6703 25.0258C40.4777 24.544 41.1824 23.9079 41.7439 23.1537C42.3055 22.3996 42.7129 21.5422 42.9429 20.6305C43.173 19.7188 43.2211 18.7707 43.0846 17.8404C42.9481 16.9101 42.6296 16.0158 42.1474 15.2087C40.2548 12.0556 36.7756 11.7097 36.3462 11.6818H18.4536C17.3773 11.8121 16.3466 12.1934 15.4447 12.7949C14.5427 13.3965 13.7946 14.2015 13.2607 15.145C12.2903 16.7696 12.0028 18.7124 12.4611 20.5484C12.9193 22.3844 14.0861 23.9642 15.706 24.9423L21.5351 28.5446C23.8404 29.9423 25.6251 32.0559 26.6167 34.5628C27.6083 37.0698 27.7523 39.8323 27.0268 42.4287C26.3013 45.0252 24.7461 47.313 22.5987 48.9428C20.4512 50.5726 17.8294 51.455 15.1335 51.4552H15.1295Z" fill="white"/>
<path d="M81.6026 6.80692C80.598 6.44684 79.5406 6.25604 78.4734 6.24231C77.5042 6.19863 76.5465 6.46766 75.7418 7.00971C75.398 7.25585 75.1214 7.58427 74.9374 7.96493C74.7533 8.34558 74.6676 8.76631 74.6881 9.18863C74.6881 10.3073 75.6093 11.2894 77.4516 12.135C78.8114 12.7632 79.7127 13.1992 80.1553 13.4431C80.6478 13.7217 81.1033 14.061 81.5112 14.453C81.968 14.883 82.339 15.3957 82.6046 15.964C82.8834 16.579 83.0194 17.2492 83.0022 17.9242C83.0022 19.7214 82.3979 21.1157 81.1891 22.1071C79.9861 23.0942 78.4706 23.6201 76.9148 23.5902C75.467 23.6275 74.0322 23.3094 72.7358 22.6638L73.1812 20.8188C74.3284 21.3906 75.5826 21.7157 76.8631 21.7731C77.925 21.8253 78.9696 21.4889 79.8015 20.8268C80.1697 20.502 80.4602 20.0986 80.6515 19.6465C80.8428 19.1943 80.9301 18.7049 80.9068 18.2145C80.9288 17.4531 80.673 16.7097 80.1871 16.123C79.706 15.5544 78.8193 14.9699 77.5311 14.3775C76.2428 13.7851 75.3442 13.3477 74.9585 13.125C74.5308 12.8725 74.1401 12.5621 73.7975 12.2025C73.421 11.8218 73.1189 11.3741 72.9068 10.8825C72.694 10.3795 72.5871 9.83811 72.5927 9.29201C72.5601 8.60685 72.6931 7.92393 72.9803 7.30103C73.2675 6.67814 73.7006 6.13359 74.2428 5.71348C75.4487 4.82453 76.9208 4.37169 78.4178 4.42919C79.6613 4.43029 80.8975 4.62068 82.0838 4.9938L81.6026 6.80692Z" fill="#16133D"/>
<path d="M100.994 22.6247C99.7302 23.2281 98.3504 23.5497 96.9501 23.567C94.5141 23.567 93.2961 22.2788 93.2961 19.7022V11.3523H90.6758V9.59486H93.2961V5.86523H95.2841V9.59486H99.9203V11.3642H95.2881V19.1654C95.2399 19.8521 95.4294 20.5344 95.8249 21.0978C96.0015 21.322 96.2287 21.5011 96.4879 21.6207C96.747 21.7402 97.0308 21.7968 97.3159 21.7857C98.4611 21.779 99.5911 21.524 100.628 21.0382L100.994 22.6247Z" fill="#16133D"/>
<path d="M119.125 23.2367H117.093C116.909 22.5189 116.826 21.7788 116.847 21.0379C116.347 21.834 115.649 22.4874 114.822 22.9347C113.996 23.3819 113.067 23.6079 112.127 23.5906C111.127 23.5963 110.165 23.2094 109.447 22.5131C109.067 22.1588 108.766 21.727 108.567 21.2469C108.367 20.7668 108.273 20.2495 108.29 19.7298C108.275 19.1125 108.412 18.5009 108.688 17.9485C108.97 17.4209 109.38 16.9725 109.881 16.6443C110.467 16.2642 111.112 15.9822 111.789 15.8093C112.664 15.5818 113.559 15.4393 114.461 15.3839L116.751 15.201V14.5449C116.751 12.2069 115.661 11.0366 113.479 11.034C112.815 11.0585 112.157 11.1708 111.523 11.368C110.817 11.558 110.134 11.8247 109.487 12.1632L108.946 10.696C110.532 9.81876 112.304 9.3296 114.115 9.26855C117.222 9.26855 118.775 10.9134 118.775 14.2029V20.0717C118.765 21.1369 118.882 22.1995 119.125 23.2367ZM116.739 19.193V16.7198C114.898 16.8829 113.638 17.0379 112.95 17.1811C112.304 17.3071 111.694 17.5791 111.169 17.9763C110.926 18.1626 110.731 18.4041 110.601 18.6806C110.47 18.9572 110.407 19.261 110.417 19.5668C110.404 19.8499 110.454 20.1325 110.565 20.3934C110.676 20.6543 110.844 20.8869 111.057 21.0737C111.514 21.4592 112.099 21.6592 112.696 21.6344C113.461 21.6226 114.209 21.3983 114.855 20.9862C115.601 20.5261 116.243 19.9153 116.739 19.193Z" fill="#16133D"/>
<path d="M136.911 9.96061L136.084 11.9288C135.354 11.5787 134.562 11.3785 133.754 11.3403C133.129 11.3485 132.519 11.5273 131.988 11.8572C131.368 12.2438 130.828 12.746 130.398 13.3364C130.112 13.6658 129.867 14.029 129.67 14.4179V23.237H127.634V9.59481H129.666V12.3781C130.756 10.3185 132.17 9.28864 133.909 9.28864C134.947 9.28396 135.973 9.51365 136.911 9.96061Z" fill="#16133D"/>
<path d="M154.747 22.6247C153.482 23.2301 152.099 23.5517 150.696 23.567C148.26 23.567 147.042 22.2788 147.042 19.7022V11.3523H144.425V9.59486H147.042V5.86523H149.03V9.59486H153.662V11.3642H149.042V19.1654C148.999 19.8533 149.192 20.5351 149.59 21.0978C149.768 21.3237 149.997 21.5038 150.259 21.6235C150.52 21.7431 150.806 21.7987 151.093 21.7857C152.238 21.779 153.368 21.524 154.405 21.0382L154.747 22.6247Z" fill="#16133D"/>
<path d="M172.509 23.2364H170.465V21.2205C168.996 22.7844 167.452 23.5664 165.833 23.5664C163.272 23.5664 161.993 22.017 161.996 18.9183V9.59424H164.035V18.3418C164.035 19.5028 164.222 20.3656 164.588 20.9382C164.954 21.5107 165.574 21.797 166.445 21.797C167.693 21.797 169.033 21.0203 170.465 19.467V9.59424H172.509V23.2364Z" fill="#16133D"/>
<path d="M181.98 11.3638C182.46 10.7137 183.092 10.192 183.821 9.84495C184.578 9.4635 185.415 9.26597 186.263 9.26841C186.994 9.24708 187.719 9.41482 188.367 9.75542C189.014 10.096 189.563 10.598 189.96 11.2127C190.856 12.509 191.304 14.1962 191.304 16.2744C191.304 18.3526 190.835 20.0954 189.897 21.503C189.5 22.1496 188.943 22.6821 188.278 23.048C187.614 23.414 186.866 23.6009 186.108 23.5905C185.27 23.5955 184.447 23.3772 183.722 22.9583C183.006 22.5544 182.404 21.9757 181.972 21.2764V28.6282H179.933V9.59445H181.972L181.98 11.3638ZM181.98 13.3917V19.0616C182.349 19.8116 182.882 20.4692 183.539 20.9861C184.107 21.4692 184.825 21.7416 185.571 21.7575C186.106 21.7597 186.633 21.6176 187.095 21.3462C187.556 21.0747 187.937 20.6839 188.195 20.2147C188.878 19.0544 189.216 17.7234 189.169 16.3778C189.227 15.0328 188.905 13.6988 188.239 12.5288C187.983 12.068 187.606 11.6854 187.15 11.422C186.693 11.1587 186.173 11.0245 185.646 11.0338C184.207 11.0338 182.985 11.8198 181.98 13.3917Z" fill="#16133D"/>
<path d="M75.2763 50.8664V51.2919C75.2763 52.5961 74.5248 53.4469 73.3757 53.4469C72.2266 53.4469 71.4473 52.5682 71.4473 51.2919V38.8068C71.4711 37.3515 72.2425 36.5762 73.6739 36.5762H76.7037C78.656 36.5762 79.8846 36.8784 80.9343 37.5782C81.7792 38.1321 82.475 38.8853 82.9604 39.7715C83.4457 40.6576 83.7058 41.6494 83.7176 42.6597C83.7176 44.9857 82.3379 46.7631 79.9125 47.6139L82.7673 49.6935C83.4671 50.2183 83.817 50.7949 83.817 51.4668C83.8228 51.7185 83.7788 51.9688 83.6875 52.2033C83.5962 52.4379 83.4593 52.652 83.2849 52.8335C83.1105 53.0149 82.9019 53.1601 82.6711 53.2606C82.4403 53.3611 82.192 53.415 81.9403 53.4191C81.4493 53.3874 80.9825 53.1945 80.6123 52.8704L75.2564 48.4967L75.2763 50.8664ZM76.7395 45.1885C77.8648 45.1885 78.4174 45.0851 78.8668 44.7909C79.2468 44.5537 79.5561 44.2186 79.7621 43.8208C79.9681 43.423 80.0633 42.977 80.0377 42.5298C80.012 42.0825 79.8666 41.6504 79.6165 41.2787C79.3664 40.907 79.0209 40.6094 78.6163 40.4171C78.1431 40.1905 77.8648 40.1666 76.664 40.1666H75.2882V45.1726L76.7395 45.1885Z" fill="#16133D"/>
<path d="M100.56 38.9062C101.372 39.6906 102.014 40.6322 102.449 41.6734C102.884 42.7146 103.102 43.8336 103.089 44.9619C103.087 46.6657 102.58 48.3307 101.632 49.7467C100.685 51.1627 99.3387 52.2662 97.7645 52.918C96.1902 53.5699 94.4582 53.7408 92.7869 53.4093C91.1156 53.0777 89.58 52.2586 88.3738 51.0552C87.1676 49.8517 86.3449 48.318 86.0096 46.6475C85.6742 44.977 85.8411 43.2445 86.4893 41.6688C87.1376 40.0931 88.238 38.7447 89.6518 37.7937C91.0656 36.8428 92.7294 36.332 94.4333 36.3257C96.7298 36.3741 98.9213 37.2971 100.56 38.9062ZM89.65 44.9619C89.6636 46.2334 90.1788 47.4481 91.0836 48.3417C91.9883 49.2353 93.2093 49.7354 94.481 49.7332C95.7464 49.7332 96.96 49.2305 97.8548 48.3357C98.7496 47.4409 99.2523 46.2273 99.2523 44.9619C99.2545 43.6902 98.7544 42.4692 97.8608 41.5645C96.9672 40.6597 95.7525 40.1445 94.481 40.1309C93.2039 40.1443 91.9829 40.6576 91.0798 41.5607C90.1767 42.4638 89.6634 43.6848 89.65 44.9619Z" fill="#16133D"/>
<path d="M118.99 48.3654C119.013 49.181 118.83 49.9892 118.459 50.7154C118.087 51.4416 117.538 52.0624 116.863 52.5205C115.983 53.0537 114.965 53.3152 113.936 53.272H108.481C107.03 53.2442 106.278 52.4768 106.278 51.0414V38.8068C106.278 37.3515 107.054 36.5762 108.481 36.5762H112.811C114.362 36.5762 115.638 36.9301 116.489 37.5782C117.03 38.0183 117.462 38.5766 117.753 39.2101C118.044 39.8436 118.185 40.5354 118.167 41.2322C118.198 41.8215 118.089 42.4097 117.85 42.9492C117.611 43.4887 117.248 43.9644 116.791 44.3376C117.478 44.7578 118.043 45.351 118.429 46.0578C118.815 46.7646 119.008 47.5603 118.99 48.3654ZM112.759 43.1368C113.116 43.153 113.472 43.1018 113.809 42.9857C114.05 42.858 114.252 42.6667 114.392 42.4326C114.532 42.1985 114.606 41.9305 114.604 41.6577C114.604 40.7074 113.901 40.107 112.751 40.107H110.123V43.1368H112.759ZM113.157 49.7929C113.557 49.8344 113.96 49.7466 114.306 49.5424C114.554 49.3883 114.759 49.1749 114.904 48.9215C115.048 48.6681 115.127 48.3827 115.133 48.0911C115.133 47.0374 114.358 46.3376 113.181 46.3376H110.103V49.7929H113.157Z" fill="#16133D"/>
<path d="M135.793 38.9062C136.604 39.6912 137.246 40.6329 137.681 41.674C138.115 42.7151 138.334 43.8337 138.322 44.9619C138.32 46.6655 137.813 48.3304 136.865 49.7463C135.918 51.1621 134.572 52.2657 132.998 52.9177C131.424 53.5696 129.692 53.7408 128.021 53.4096C126.35 53.0783 124.814 52.2596 123.608 51.0565C122.402 49.8535 121.579 48.3201 121.243 46.6499C120.907 44.9796 121.074 43.2473 121.721 41.6715C122.369 40.0958 123.469 38.7471 124.882 37.7957C126.295 36.8443 127.959 36.3328 129.662 36.3257C131.96 36.3739 134.153 37.2968 135.793 38.9062ZM124.883 44.9619C124.895 46.2331 125.41 47.4478 126.314 48.3415C127.218 49.2352 128.439 49.7354 129.71 49.7332C130.975 49.7332 132.189 49.2305 133.084 48.3357C133.979 47.4409 134.481 46.2273 134.481 44.9619C134.482 43.6906 133.982 42.4701 133.089 41.5656C132.195 40.6611 130.981 40.1455 129.71 40.1309C128.434 40.1453 127.214 40.6591 126.311 41.5621C125.409 42.4651 124.896 43.6855 124.883 44.9619Z" fill="#16133D"/>
<path d="M148.541 50.8664V51.2919C148.517 52.5961 147.765 53.4469 146.612 53.4469C145.459 53.4469 144.731 52.5682 144.731 51.2919V40.0831H141.626C140.433 40.0553 139.678 39.3794 139.678 38.3297C139.678 37.28 140.453 36.5762 141.626 36.5762H151.666C152.839 36.604 153.614 37.28 153.614 38.3297C153.614 39.3794 152.819 40.0831 151.666 40.0831H148.56L148.541 50.8664Z" fill="#16133D"/>
<path d="M159.841 50.8669V51.2923C159.841 52.5965 159.089 53.4474 157.936 53.4474C156.783 53.4474 156.012 52.5686 156.012 51.2923V38.5686C156.036 37.2645 156.787 36.4414 157.936 36.4414C159.085 36.4414 159.841 37.2804 159.841 38.5686V50.8947V50.8669Z" fill="#16133D"/>
<path d="M171.634 36.3256C173.631 36.3182 175.565 37.0231 177.089 38.3137C178.063 39.1089 178.441 39.6894 178.441 40.4409C178.44 40.6864 178.391 40.9294 178.296 41.1558C178.201 41.3822 178.062 41.5875 177.887 41.7598C177.712 41.9322 177.505 42.0681 177.277 42.1597C177.049 42.2514 176.806 42.297 176.56 42.2938C176.299 42.2924 176.04 42.2385 175.8 42.1354C175.559 42.0323 175.342 41.882 175.161 41.6934L174.763 41.2958C174.077 40.7061 173.237 40.3238 172.341 40.1935C171.446 40.0631 170.532 40.19 169.706 40.5594C168.88 40.9288 168.176 41.5255 167.676 42.2798C167.176 43.0341 166.901 43.915 166.883 44.8197C166.865 45.7243 167.105 46.6155 167.574 47.3892C168.043 48.1629 168.723 48.7872 169.533 49.1893C170.344 49.5915 171.252 49.7548 172.152 49.6603C173.052 49.5658 173.907 49.2174 174.616 48.6556L175.288 48.0274C175.474 47.8369 175.696 47.6856 175.941 47.5825C176.186 47.4794 176.449 47.4265 176.715 47.427C177.212 47.4301 177.688 47.6289 178.039 47.9801C178.39 48.3314 178.589 48.807 178.592 49.3037C178.592 49.8803 178.318 50.3813 177.693 51.0055C176.074 52.574 173.916 53.462 171.662 53.4866C170.517 53.5128 169.379 53.3101 168.313 52.8905C167.248 52.4709 166.277 51.8429 165.458 51.0431C164.639 50.2434 163.987 49.2881 163.542 48.2333C163.097 47.1785 162.866 46.0454 162.865 44.9004C162.863 43.7555 163.09 42.6217 163.533 41.5657C163.975 40.5096 164.624 39.5525 165.441 38.7505C166.258 37.9485 167.227 37.3178 168.291 36.8952C169.355 36.4727 170.493 36.2668 171.638 36.2898L171.634 36.3256Z" fill="#16133D"/>
<path d="M191.714 39.5545C191.726 40.0123 191.556 40.4561 191.241 40.7891C190.927 41.1222 190.494 41.3172 190.036 41.3318C189.694 41.3239 189.362 41.2115 189.086 41.0097C189.034 40.9819 188.708 40.7075 188.235 40.3298C187.693 39.8505 187.005 39.57 186.282 39.5346C185.257 39.5346 184.406 40.2344 184.406 41.0614C184.406 41.8884 184.907 42.2861 186.433 42.6519C187.579 42.8998 188.694 43.269 189.761 43.7533C190.588 44.1153 191.286 44.7162 191.768 45.4786C192.25 46.241 192.493 47.1301 192.465 48.0316C192.465 51.2841 189.984 53.5147 186.382 53.5147C183.129 53.5147 180.251 51.6101 180.251 49.459C180.247 48.9905 180.424 48.5386 180.746 48.1978C181.067 47.857 181.508 47.6536 181.976 47.63C182.676 47.63 183.205 47.8805 184.028 48.6081C185.006 49.5067 185.805 49.8845 186.656 49.8845C186.906 49.9023 187.157 49.8693 187.394 49.7875C187.631 49.7056 187.849 49.5767 188.035 49.4084C188.221 49.2401 188.37 49.0359 188.475 48.8082C188.58 48.5804 188.637 48.3339 188.644 48.0833C188.644 47.2046 188.04 46.6558 186.692 46.2543L185.038 45.7811C184.027 45.5293 183.064 45.1143 182.187 44.5525C181.185 43.8765 180.632 42.6757 180.632 41.2244C180.632 38.3457 183.018 36.3179 186.441 36.3179C189.336 36.3258 191.714 37.7731 191.714 39.5545Z" fill="#16133D"/>
</svg>
