<svg width="133" height="40" viewBox="0 0 133 40" fill="none" xmlns="http://www.w3.org/2000/svg">
<path d="M11.7255 3.20826e-07C10.1856 -0.000359936 8.66069 0.302683 7.23793 0.891818C5.81516 1.48095 4.5224 2.34463 3.43352 3.43352C2.34463 4.5224 1.48095 5.81516 0.891818 7.23793C0.302683 8.66069 -0.000359936 10.1856 3.20826e-07 11.7255V28.2745C3.20826e-07 31.3843 1.23536 34.3667 3.43432 36.5657C5.63328 38.7646 8.61571 40 11.7255 40H19.9986V3.20826e-07H11.7255Z" fill="#2DA49B"/>
<path d="M39.9999 28.2745V11.7255C39.9999 8.61571 38.7645 5.63328 36.5656 3.43432C34.3666 1.23536 31.3842 0 28.2744 0L19.9985 0V40H28.2744C31.384 39.9993 34.366 38.7637 36.5648 36.5649C38.7636 34.3661 39.9992 31.3841 39.9999 28.2745Z" fill="#052460"/>
<path d="M10.4342 35.4864H6.27155L6.29074 31.9216C6.29074 31.9216 9.49634 31.8914 10.3437 31.9216C10.7807 31.9296 11.2168 31.8798 11.6407 31.7735C12.5858 31.5356 13.4394 31.0232 14.0937 30.3009C14.7481 29.5786 15.1739 28.6787 15.3176 27.7147C15.4613 26.7508 15.3164 25.7658 14.9012 24.8841C14.486 24.0023 13.819 23.2633 12.9844 22.76L8.96162 20.2646C7.03374 19.0983 5.64656 17.2156 5.10382 15.0288C4.56109 12.8419 4.90703 10.5291 6.06589 8.59671C6.74536 7.42945 7.69741 6.4441 8.84064 5.72493C9.98387 5.00575 11.2843 4.57415 12.6306 4.46701H25.187C25.3735 4.46701 29.7692 4.66993 32.1521 8.64059C33.3135 10.576 33.6589 12.8935 33.1123 15.0834C32.5657 17.2734 31.1719 19.1568 29.2372 20.3195L26.7693 21.8496L34.9519 35.4809H30.7591L22.7602 22.1787L23.3553 19.7272L27.3588 17.2592C27.9157 16.927 28.4017 16.4883 28.7889 15.9682C29.1762 15.4481 29.4572 14.8567 29.6158 14.228C29.7745 13.5992 29.8077 12.9454 29.7135 12.3038C29.6194 11.6622 29.3998 11.0455 29.0672 10.4888C27.7619 8.31427 25.3625 8.0757 25.0664 8.05651H12.7266C11.9843 8.14637 11.2736 8.40932 10.6515 8.82418C10.0295 9.23903 9.51355 9.79419 9.14534 10.4449C8.4761 11.5653 8.27781 12.9052 8.59385 14.1714C8.90989 15.4376 9.71453 16.5271 10.8318 17.2016L14.8518 19.686C16.4417 20.6499 17.6725 22.1076 18.3563 23.8365C19.0402 25.5654 19.1395 27.4706 18.6392 29.2613C18.1389 31.0519 17.0663 32.6297 15.5853 33.7537C14.1043 34.8777 12.2962 35.4863 10.4369 35.4864H10.4342Z" fill="white"/>
<path d="M56.2776 4.69457C55.5848 4.44624 54.8555 4.31465 54.1195 4.30518C53.4511 4.27506 52.7906 4.46059 52.2357 4.83442C51.9986 5.00418 51.8078 5.23067 51.6809 5.49319C51.5539 5.75571 51.4948 6.04587 51.509 6.33713C51.509 7.10859 52.1443 7.78591 53.4148 8.36907C54.3526 8.80234 54.9742 9.10306 55.2795 9.27125C55.6191 9.46337 55.9332 9.69737 56.2146 9.96776C56.5296 10.2643 56.7855 10.6179 56.9686 11.0098C57.1609 11.4339 57.2547 11.8961 57.2429 12.3617C57.2429 13.6011 56.8261 14.5627 55.9924 15.2464C55.1628 15.9272 54.1176 16.2898 53.0446 16.2693C52.0462 16.2949 51.0566 16.0756 50.1626 15.6303L50.4697 14.358C51.2609 14.7523 52.1259 14.9765 53.009 15.0161C53.7413 15.0521 54.4617 14.8201 55.0354 14.3635C55.2894 14.1395 55.4897 13.8613 55.6217 13.5494C55.7536 13.2376 55.8138 12.9001 55.7977 12.5618C55.8129 12.0367 55.6365 11.5241 55.3014 11.1195C54.9696 10.7273 54.3581 10.3242 53.4696 9.91566C52.5812 9.50707 51.9614 9.20543 51.6955 9.05187C51.4005 8.87773 51.1311 8.66364 50.8947 8.41569C50.6351 8.15313 50.4268 7.84437 50.2805 7.50529C50.1337 7.15842 50.06 6.78504 50.0639 6.40842C50.0414 5.9359 50.1331 5.46492 50.3312 5.03533C50.5293 4.60575 50.8279 4.2302 51.2019 3.94047C52.0335 3.3274 53.0487 3.01509 54.0811 3.05475C54.9388 3.05551 55.7913 3.18681 56.6094 3.44414L56.2776 4.69457Z" fill="white"/>
<path d="M69.6511 15.6029C68.7796 16.0191 67.828 16.2408 66.8623 16.2528C65.1823 16.2528 64.3422 15.3643 64.3422 13.5874V7.82887H62.5352V6.61683H64.3422V4.04468H65.7133V6.61683H68.9107V7.8371H65.7161V13.2172C65.6828 13.6908 65.8135 14.1614 66.0863 14.5499C66.2081 14.7045 66.3648 14.8281 66.5435 14.9105C66.7222 14.993 66.9179 15.032 67.1146 15.0243C67.9043 15.0197 68.6836 14.8438 69.3988 14.5088L69.6511 15.6029Z" fill="white"/>
<path d="M82.1554 16.0252H80.7542C80.6271 15.5301 80.5699 15.0197 80.5842 14.5088C80.2393 15.0578 79.7584 15.5084 79.1881 15.8169C78.6178 16.1253 77.9775 16.2812 77.3292 16.2693C76.6396 16.2732 75.9759 16.0064 75.481 15.5261C75.2185 15.2818 75.0115 14.984 74.8739 14.6529C74.7362 14.3218 74.6711 13.965 74.683 13.6066C74.6729 13.1809 74.767 12.7591 74.9572 12.3781C75.1519 12.0142 75.4348 11.705 75.7799 11.4787C76.1845 11.2165 76.629 11.022 77.0961 10.9028C77.6995 10.7459 78.3166 10.6477 78.9389 10.6094L80.5184 10.4833V10.0308C80.5184 8.41843 79.7661 7.61132 78.2615 7.60949C77.8036 7.62642 77.35 7.70387 76.9124 7.83983C76.4258 7.9709 75.955 8.15481 75.5084 8.38827L75.1355 7.37641C76.2294 6.77142 77.451 6.43407 78.7003 6.39197C80.8428 6.39197 81.9141 7.52631 81.9141 9.795V13.8424C81.9071 14.5771 81.9881 15.3099 82.1554 16.0252ZM80.5101 13.2364V11.5308C79.2405 11.6432 78.3712 11.7502 77.8968 11.8489C77.4509 11.9358 77.0307 12.1234 76.6683 12.3973C76.501 12.5258 76.3667 12.6923 76.2766 12.8831C76.1864 13.0738 76.1431 13.2833 76.1501 13.4942C76.1408 13.6895 76.1756 13.8843 76.2521 14.0643C76.3285 14.2442 76.4446 14.4046 76.5916 14.5335C76.9064 14.7993 77.3096 14.9373 77.7213 14.9201C78.2495 14.912 78.765 14.7573 79.2103 14.4731C79.7249 14.1558 80.1676 13.7346 80.5101 13.2364Z" fill="white"/>
<path d="M94.4214 6.86911L93.851 8.22649C93.348 7.985 92.8015 7.847 92.2441 7.82065C91.8134 7.82631 91.3924 7.94958 91.0266 8.17713C90.599 8.44374 90.2266 8.79005 89.9297 9.19721C89.7326 9.4244 89.5641 9.67489 89.4279 9.94308V16.0252H88.0239V6.61683H89.4252V8.53635C90.1765 7.11591 91.1518 6.40569 92.3511 6.40569C93.0673 6.40246 93.7749 6.56087 94.4214 6.86911Z" fill="white"/>
<path d="M106.723 15.6029C105.85 16.0204 104.896 16.2422 103.928 16.2528C102.248 16.2528 101.408 15.3643 101.408 13.5874V7.82887H99.604V6.61683H101.408V4.04468H102.779V6.61683H105.974V7.8371H102.788V13.2172C102.758 13.6916 102.892 14.1618 103.166 14.5499C103.289 14.7057 103.447 14.8299 103.627 14.9124C103.807 14.9949 104.005 15.0333 104.203 15.0243C104.992 15.0197 105.772 14.8438 106.487 14.5088L106.723 15.6029Z" fill="white"/>
<path d="M118.971 16.0252H117.562V14.6349C116.549 15.7135 115.484 16.2528 114.367 16.2528C112.601 16.2528 111.719 15.1843 111.721 13.0472V6.61682H113.128V12.6496C113.128 13.4503 113.257 14.0454 113.509 14.4402C113.761 14.8351 114.189 15.0325 114.79 15.0325C115.651 15.0325 116.575 14.4969 117.562 13.4256V6.61682H118.971V16.0252Z" fill="white"/>
<path d="M125.504 7.83712C125.834 7.38877 126.27 7.02896 126.773 6.78961C127.295 6.52654 127.872 6.39031 128.457 6.39199C128.961 6.37728 129.461 6.49297 129.908 6.72787C130.355 6.96276 130.733 7.30893 131.007 7.73291C131.625 8.62686 131.934 9.79045 131.934 11.2237C131.934 12.6569 131.61 13.8589 130.963 14.8296C130.69 15.2756 130.305 15.6428 129.847 15.8952C129.389 16.1476 128.873 16.2765 128.35 16.2693C127.772 16.2727 127.205 16.1222 126.705 15.8333C126.211 15.5547 125.796 15.1557 125.498 14.6733V19.7436H124.091V6.61685H125.498L125.504 7.83712ZM125.504 9.23562V13.146C125.758 13.6632 126.125 14.1167 126.578 14.4732C126.97 14.8063 127.465 14.9942 127.98 15.0051C128.349 15.0067 128.712 14.9087 129.031 14.7215C129.349 14.5343 129.611 14.2647 129.79 13.9412C130.261 13.141 130.494 12.223 130.461 11.295C130.501 10.3674 130.279 9.44742 129.82 8.64057C129.643 8.32273 129.384 8.05888 129.069 7.87726C128.754 7.69564 128.395 7.60309 128.032 7.60952C127.039 7.60952 126.196 8.15155 125.504 9.23562Z" fill="white"/>
<path d="M51.9146 35.0805V35.374C51.9146 36.2734 51.3964 36.8602 50.6039 36.8602C49.8114 36.8602 49.2739 36.2542 49.2739 35.374V26.7635C49.2904 25.7599 49.8224 25.2252 50.8095 25.2252H52.8991C54.2455 25.2252 55.0928 25.4336 55.8167 25.9162C56.3994 26.2983 56.8793 26.8177 57.214 27.4288C57.5487 28.0399 57.7281 28.724 57.7363 29.4207C57.7363 31.0249 56.7847 32.2506 55.112 32.8374L57.0809 34.2716C57.5635 34.6336 57.8048 35.0312 57.8048 35.4946C57.8088 35.6682 57.7784 35.8408 57.7155 36.0025C57.6525 36.1643 57.5581 36.312 57.4378 36.4371C57.3175 36.5623 57.1737 36.6624 57.0145 36.7317C56.8554 36.801 56.6841 36.8382 56.5105 36.841C56.1719 36.8191 55.8499 36.6861 55.5946 36.4626L51.9009 33.4462L51.9146 35.0805ZM52.9237 31.1647C53.6998 31.1647 54.0809 31.0934 54.3908 30.8905C54.6529 30.7269 54.8662 30.4958 55.0083 30.2215C55.1503 29.9471 55.216 29.6396 55.1983 29.3311C55.1807 29.0227 55.0803 28.7246 54.9079 28.4683C54.7354 28.2119 54.4971 28.0067 54.2181 27.8741C53.8917 27.7178 53.6998 27.7014 52.8716 27.7014H51.9229V31.1538L52.9237 31.1647Z" fill="white"/>
<path d="M69.3522 26.8321C69.9115 27.3731 70.3547 28.0225 70.6546 28.7405C70.9544 29.4586 71.1047 30.2303 71.0962 31.0084C71.0946 32.1835 70.7449 33.3317 70.0913 34.3083C69.4378 35.2848 68.5096 36.0459 67.4239 36.4954C66.3382 36.945 65.1437 37.0629 63.9911 36.8342C62.8385 36.6056 61.7794 36.0406 60.9476 35.2107C60.1157 34.3807 59.5484 33.323 59.3171 32.1709C59.0857 31.0188 59.2009 29.824 59.6479 28.7373C60.095 27.6506 60.8539 26.7207 61.829 26.0649C62.804 25.4091 63.9514 25.0568 65.1265 25.0524C66.7103 25.0858 68.2217 25.7223 69.3522 26.8321ZM61.8277 31.0084C61.8371 31.8854 62.1924 32.7231 62.8164 33.3393C63.4403 33.9556 64.2824 34.3005 65.1594 34.299C66.0321 34.299 66.8691 33.9523 67.4862 33.3352C68.1033 32.7181 68.45 31.8811 68.45 31.0084C68.4515 30.1314 68.1066 29.2893 67.4903 28.6654C66.8741 28.0414 66.0363 27.6861 65.1594 27.6767C64.2787 27.686 63.4366 28.04 62.8138 28.6628C62.191 29.2856 61.837 30.1277 61.8277 31.0084Z" fill="white"/>
<path d="M82.0621 33.3557C82.0781 33.9182 81.952 34.4755 81.6956 34.9764C81.4392 35.4772 81.0607 35.9054 80.5951 36.2213C79.988 36.589 79.2859 36.7693 78.5768 36.7395H74.8146C73.8137 36.7204 73.2954 36.1911 73.2954 35.2012V26.7635C73.2954 25.7599 73.8301 25.2252 74.8146 25.2252H77.8008C78.8702 25.2252 79.7505 25.4692 80.3373 25.9162C80.7101 26.2198 81.0083 26.6048 81.2089 27.0417C81.4095 27.4786 81.5072 27.9557 81.4945 28.4363C81.5156 28.8427 81.4407 29.2483 81.2759 29.6204C81.1111 29.9925 80.8609 30.3205 80.5457 30.5779C81.0195 30.8677 81.4089 31.2768 81.675 31.7642C81.9411 32.2517 82.0746 32.8005 82.0621 33.3557ZM77.7651 29.7498C78.0109 29.7609 78.2565 29.7256 78.4891 29.6456C78.6554 29.5575 78.7944 29.4256 78.8911 29.2641C78.9877 29.1027 79.0384 28.9179 79.0375 28.7297C79.0375 28.0743 78.5521 27.6602 77.7597 27.6602H75.9471V29.7498H77.7651ZM78.0394 34.3402C78.3152 34.3688 78.5929 34.3082 78.8318 34.1674C79.0027 34.0612 79.1443 33.914 79.2439 33.7392C79.3435 33.5645 79.3979 33.3676 79.4022 33.1665C79.4022 32.4398 78.8675 31.9572 78.0558 31.9572H75.9334V34.3402H78.0394Z" fill="white"/>
<path d="M93.6505 26.8321C94.2094 27.3735 94.6522 28.0229 94.952 28.7409C95.2518 29.4589 95.4024 30.2304 95.3945 31.0084C95.3929 32.1834 95.0433 33.3315 94.3899 34.308C93.7364 35.2845 92.8084 36.0455 91.7229 36.4952C90.6373 36.9448 89.443 37.0628 88.2904 36.8344C87.1379 36.606 86.0789 36.0413 85.2469 35.2116C84.4149 34.382 83.8473 33.3245 83.6157 32.1726C83.3841 31.0207 83.4989 29.826 83.9455 28.7392C84.3921 27.6525 85.1506 26.7224 86.1253 26.0662C87.1 25.4101 88.2472 25.0573 89.4221 25.0524C91.0068 25.0857 92.519 25.7222 93.6505 26.8321ZM86.126 31.0084C86.1347 31.8851 86.4894 32.7228 87.113 33.3392C87.7365 33.9555 88.5783 34.3005 89.455 34.299C90.3277 34.299 91.1647 33.9523 91.7818 33.3352C92.3989 32.7181 92.7456 31.8811 92.7456 31.0084C92.7464 30.1317 92.4013 29.29 91.7851 28.6662C91.169 28.0424 90.3317 27.6868 89.455 27.6767C88.5747 27.6867 87.7334 28.041 87.1111 28.6637C86.4889 29.2865 86.1353 30.1281 86.126 31.0084Z" fill="white"/>
<path d="M102.442 35.0805V35.374C102.425 36.2734 101.907 36.8602 101.112 36.8602C100.317 36.8602 99.8149 36.2542 99.8149 35.374V27.6438H97.6733C96.8506 27.6246 96.3296 27.1584 96.3296 26.4345C96.3296 25.7106 96.8643 25.2252 97.6733 25.2252H104.597C105.406 25.2444 105.941 25.7106 105.941 26.4345C105.941 27.1584 105.392 27.6438 104.597 27.6438H102.456L102.442 35.0805Z" fill="white"/>
<path d="M110.235 35.0806V35.374C110.235 36.2734 109.717 36.8602 108.921 36.8602C108.126 36.8602 107.594 36.2542 107.594 35.374V26.599C107.611 25.6996 108.129 25.132 108.921 25.132C109.714 25.132 110.235 25.7106 110.235 26.599V35.0998V35.0806Z" fill="white"/>
<path d="M118.368 25.0525C119.746 25.0474 121.08 25.5335 122.131 26.4235C122.802 26.972 123.063 27.3723 123.063 27.8906C123.063 28.0599 123.029 28.2275 122.963 28.3836C122.898 28.5398 122.802 28.6814 122.681 28.8002C122.561 28.919 122.418 29.0128 122.26 29.076C122.103 29.1392 121.935 29.1706 121.766 29.1685C121.586 29.1675 121.407 29.1303 121.241 29.0592C121.076 28.9881 120.926 28.8844 120.801 28.7544L120.526 28.4802C120.053 28.0735 119.474 27.8099 118.856 27.7199C118.239 27.63 117.608 27.7175 117.039 27.9723C116.469 28.2271 115.984 28.6386 115.639 29.1588C115.294 29.679 115.105 30.2865 115.092 30.9104C115.08 31.5343 115.245 32.1489 115.569 32.6825C115.892 33.2161 116.361 33.6467 116.92 33.924C117.479 34.2013 118.105 34.314 118.726 34.2488C119.347 34.1836 119.936 33.9433 120.425 33.5559L120.888 33.1227C121.017 32.9913 121.17 32.887 121.339 32.8158C121.508 32.7447 121.689 32.7082 121.873 32.7086C122.215 32.7107 122.543 32.8478 122.786 33.0901C123.028 33.3323 123.165 33.6603 123.167 34.0029C123.167 34.4005 122.978 34.746 122.547 35.1765C121.431 36.2582 119.942 36.8707 118.388 36.8877C117.598 36.9057 116.813 36.7659 116.078 36.4765C115.344 36.1872 114.674 35.754 114.109 35.2025C113.544 34.6509 113.095 33.9921 112.788 33.2646C112.481 32.5372 112.322 31.7557 112.321 30.9661C112.32 30.1765 112.476 29.3946 112.781 28.6663C113.086 27.938 113.534 27.2779 114.097 26.7248C114.661 26.1717 115.329 25.7367 116.063 25.4453C116.797 25.1539 117.582 25.0119 118.371 25.0278L118.368 25.0525Z" fill="white"/>
<path d="M132.216 27.2791C132.224 27.5948 132.107 27.9009 131.89 28.1306C131.674 28.3603 131.375 28.4948 131.059 28.5048C130.823 28.4994 130.594 28.4219 130.404 28.2827C130.368 28.2635 130.143 28.0743 129.817 27.8138C129.443 27.4833 128.969 27.2898 128.47 27.2654C127.763 27.2654 127.176 27.748 127.176 28.3184C127.176 28.8887 127.522 29.163 128.575 29.4152C129.365 29.5862 130.134 29.8408 130.87 30.1748C131.44 30.4245 131.921 30.8389 132.254 31.3647C132.586 31.8905 132.753 32.5037 132.735 33.1254C132.735 35.3685 131.023 36.9068 128.539 36.9068C126.296 36.9068 124.311 35.5933 124.311 34.1098C124.308 33.7867 124.43 33.4751 124.652 33.24C124.874 33.005 125.178 32.8647 125.501 32.8484C125.983 32.8484 126.348 33.0212 126.916 33.523C127.59 34.1427 128.141 34.4032 128.728 34.4032C128.901 34.4155 129.074 34.3928 129.237 34.3363C129.401 34.2799 129.551 34.191 129.679 34.0749C129.807 33.9588 129.91 33.818 129.983 33.661C130.055 33.5039 130.095 33.3339 130.099 33.161C130.099 32.555 129.682 32.1766 128.753 31.8996L127.612 31.5733C126.915 31.3997 126.251 31.1135 125.646 30.726C124.955 30.2598 124.574 29.4317 124.574 28.4308C124.574 26.4455 126.219 25.047 128.58 25.047C130.576 25.0525 132.216 26.0506 132.216 27.2791Z" fill="white"/>
</svg>
