<svg width="79" height="76" viewBox="0 0 79 76" fill="none" xmlns="http://www.w3.org/2000/svg">
<rect x="10" y="13" width="62" height="37" fill="white"/>
<path fill-rule="evenodd" clip-rule="evenodd" d="M78.8903 9.86129C78.8903 7.24591 77.8514 4.73766 76.002 2.88831C74.1527 1.03895 71.6444 0 69.029 0L9.86129 0C7.24591 0 4.73766 1.03895 2.88831 2.88831C1.03895 4.73766 0 7.24591 0 9.86129L0 49.3065C0 51.9218 1.03895 54.4301 2.88831 56.2794C4.73766 58.1288 7.24591 59.1677 9.86129 59.1677H57.1265C58.434 59.168 59.688 59.6877 60.6124 60.6124L74.6796 74.6796C75.024 75.0249 75.4633 75.2603 75.9416 75.356C76.42 75.4516 76.9159 75.4032 77.3668 75.2169C77.8176 75.0305 78.203 74.7146 78.4742 74.3092C78.7454 73.9037 78.8902 73.4269 78.8903 72.939V9.86129ZM35.4711 23.4995C35.9 24.1109 36.2748 24.7814 36.5903 25.4766C38.7006 30.1509 38.5281 37.1968 31.9457 43.7496C31.5439 44.1412 31.0076 44.3644 30.4467 44.3736C29.8857 44.3828 29.3424 44.1772 28.9281 43.7989C28.7261 43.6159 28.5636 43.3935 28.4508 43.1454C28.338 42.8972 28.2772 42.6286 28.2721 42.3561C28.267 42.0836 28.3178 41.8129 28.4213 41.5607C28.5248 41.3085 28.6788 41.0802 28.8739 40.8898C30.9398 38.8387 32.1873 36.7925 32.8627 34.8745C31.5364 35.688 29.9635 36.1564 28.2773 36.1564C23.5438 36.1564 19.7226 32.4782 19.7226 27.942C19.7226 23.4058 23.5488 19.7226 28.2723 19.7226C29.6085 19.7226 30.8757 20.0184 31.9999 20.5411L32.0393 20.5608C32.8726 20.9059 33.6517 21.4582 34.3518 22.1583C34.7709 22.5676 35.1456 23.0163 35.4711 23.4995ZM54.2371 34.8745C52.9108 35.688 51.3379 36.1564 49.6516 36.1564C44.928 36.1564 41.0969 32.4782 41.0969 27.942C41.0969 23.4058 44.928 19.7226 49.6467 19.7226C50.9829 19.7226 52.25 20.0184 53.3742 20.5411L53.4137 20.5608C54.2519 20.9059 55.026 21.4582 55.7262 22.1583C56.1453 22.5676 56.52 23.0163 56.8454 23.4995C57.2744 24.1109 57.654 24.7814 57.9696 25.4766C60.0799 30.1509 59.9024 37.1968 53.3249 43.7496C52.9229 44.1426 52.3856 44.3668 51.8235 44.3759C51.2614 44.3851 50.7171 44.1786 50.3024 43.7989C50.1004 43.6159 49.938 43.3935 49.8252 43.1454C49.7124 42.8972 49.6515 42.6286 49.6465 42.3561C49.6414 42.0836 49.6921 41.8129 49.7956 41.5607C49.8991 41.3085 50.0531 41.0802 50.2482 40.8898C52.3191 38.8387 53.5616 36.7925 54.242 34.8745H54.2371Z" fill="#114A72"/>
</svg>
