<svg width="528" height="454" viewBox="0 0 528 454" fill="none" xmlns="http://www.w3.org/2000/svg">
<path d="M437.429 260.664C402.384 287.532 348.843 293.469 314.012 315.457C279.477 337.359 263.354 375.396 231.141 402.058C198.849 428.442 150.168 443.536 125.495 423.464C101.119 403.308 100.829 348.265 85.9589 308.528C71.0889 268.791 41.7185 244.637 26.5769 210.701C11.3557 176.486 10.3633 132.488 37.5158 115.101C64.6684 97.7148 120.342 107.134 157.287 120.692C194.232 134.25 210.294 124.318 243.177 114.635C276.277 104.589 326.119 94.5124 371.838 89.3002C417.774 83.7248 461.821 110.92 475.679 148.236C489.24 185.635 472.473 233.797 437.429 260.664Z" fill="#E7EDF6"/>
</svg>
