<svg width="52" height="52" viewBox="0 0 52 52" fill="none" xmlns="http://www.w3.org/2000/svg">
<path fill-rule="evenodd" clip-rule="evenodd" d="M26 51C39.8071 51 51 39.8071 51 26C51 12.1929 39.8071 1 26 1C12.1929 1 1 12.1929 1 26C1 39.8071 12.1929 51 26 51Z" stroke="#16133D" stroke-width="2"/>
<path fill-rule="evenodd" clip-rule="evenodd" d="M16.802 28.4598C16.3706 28.8565 16.3714 29.5374 16.8036 29.9333L18.385 31.3815C18.7672 31.7315 19.3535 31.7315 19.7357 31.3815L25.3246 26.2632C25.7068 25.9132 26.2932 25.9132 26.6754 26.2632L32.2643 31.3815C32.6465 31.7315 33.2328 31.7315 33.615 31.3815L35.1964 29.9333C35.6286 29.5374 35.6294 28.8565 35.198 28.4598L26.677 20.6226C26.2943 20.2707 25.7057 20.2707 25.323 20.6226L16.802 28.4598Z" fill="#16133D"/>
</svg>
